<?xml version="1.0" encoding="UTF-8" standalone="no"?>
<svg
   xmlns:dc="http://purl.org/dc/elements/1.1/"
   xmlns:cc="http://creativecommons.org/ns#"
   xmlns:rdf="http://www.w3.org/1999/02/22-rdf-syntax-ns#"
   xmlns:svg="http://www.w3.org/2000/svg"
   xmlns="http://www.w3.org/2000/svg"
   xmlns:sodipodi="http://sodipodi.sourceforge.net/DTD/sodipodi-0.dtd"
   xmlns:inkscape="http://www.inkscape.org/namespaces/inkscape"
   width="861.7251"
   height="613.47504"
   viewBox="0 0 227.99727 162.31473"
   version="1.1"
   id="svg8"
   inkscape:version="1.0.2 (e86c870879, 2021-01-15, custom)"
   sodipodi:docname="frodo-bg-rect.svg">
  <defs
     id="defs2" />
  <sodipodi:namedview
     id="base"
     pagecolor="#ffffff"
     bordercolor="#666666"
     borderopacity="1.0"
     inkscape:pageopacity="0.0"
     inkscape:pageshadow="2"
     inkscape:zoom="0.5"
     inkscape:cx="101.94992"
     inkscape:cy="812.33199"
     inkscape:document-units="mm"
     inkscape:current-layer="layer1"
     inkscape:document-rotation="0"
     showgrid="false"
     inkscape:window-width="2516"
     inkscape:window-height="1412"
     inkscape:window-x="44"
     inkscape:window-y="0"
     inkscape:window-maximized="1"
     units="px"
     showguides="false" />
  <metadata
     id="metadata5">
    <rdf:RDF>
      <cc:Work
         rdf:about="">
        <dc:format>image/svg+xml</dc:format>
        <dc:type
           rdf:resource="http://purl.org/dc/dcmitype/StillImage" />
        <dc:title></dc:title>
      </cc:Work>
    </rdf:RDF>
  </metadata>
  <g
     inkscape:groupmode="layer"
     id="layer3"
     inkscape:label="Layer 3">
    <rect
       style="fill:#4eb2f3;fill-opacity:1;stroke-width:0.326943"
       id="rect1646"
       width="227.99106"
       height="162.30357"
       x="-0.0044495109"
       y="0.003496225"
       ry="6.0315142"
       rx="6.3289814" />
  </g>
  <g
     inkscape:groupmode="layer"
     id="layer2"
     inkscape:label="Layer 2"
     style="display:inline"
     transform="translate(-79.570321,-78.14333)" />
  <g
     inkscape:label="Layer 1"
     inkscape:groupmode="layer"
     id="layer1"
     style="display:inline"
     transform="translate(-79.570321,-78.14333)">
    <g
       id="g1612"
       transform="translate(20.911041,13.20809)">
      <g
         id="g1641"
         transform="translate(7.0365127,8.1373311)">
        <path
           style="display:inline;fill:#597ef7;fill-opacity:1;stroke-width:0.707107"
           d="m 132.71182,346.97822 c -8.39261,-0.33689 -16.29388,7.74074 -14.64412,16.24586 -0.052,1.76353 0.78517,4.81836 0.67186,5.65511 -2.46477,-2.25959 -3.71207,-6.12961 -6.71061,-7.56549 -3.03051,2.40972 -3.3595,7.11722 -4.30065,10.69776 -0.91161,11.88691 5.09583,22.94758 10.06523,33.35417 7.68278,13.80409 17.06994,27.96523 31.3309,35.65641 10.02333,5.2716 22.00727,0.77094 29.70816,-6.52002 6.51189,-4.85504 8.18484,-13.05772 9.76415,-20.51024 0.83375,5.93004 0.15868,12.11366 1.13523,17.92764 19.63238,1.54351 39.38101,2.32879 58.88104,5.433 9.73748,1.00298 19.52491,2.8479 29.2891,2.9266 1.11757,-2.79517 -1.55228,-6.11918 -1.89078,-9.03531 -5.4518,-16.73221 -11.01009,-33.44089 -14.92786,-50.61853 -9.30141,-2.76665 -19.6966,-1.04793 -29.36703,-2.00531 -12.10857,-0.69227 -21.09956,-10.01361 -29.17506,-18.09337 -3.57687,0.9021 -5.99416,5.67224 -9.1272,8.00251 -3.92155,3.89525 -7.80373,7.83622 -11.88713,11.56307 -6.75582,-8.92323 -12.19208,-21.07414 -23.93943,-24.25983 -5.33117,-0.18399 -9.25065,4.58383 -11.28747,9.04185 0.0357,-4.6437 2.89219,-8.68277 3.27037,-13.1671 -3.16943,-3.27854 -8.59871,-3.35922 -12.84117,-4.46085 -1.32932,-0.19229 -2.6723,-0.33874 -4.01753,-0.26793 z m 1.66695,20.15669 c 4.69383,0.54253 5.88062,6.58622 7.15393,10.20056 0.76969,3.10209 0.6162,8.35992 -3.13364,9.24073 -6.02601,-3.49722 -7.95562,-11.93263 -6.35015,-18.32815 0.3761,-0.93399 1.39801,-1.25352 2.32986,-1.11314 z m 23.73365,3.63635 c 6.0146,2.62792 5.50613,11.00739 4.10454,16.33113 -0.75525,3.08137 -4.64597,5.36927 -6.83491,2.17794 -2.89814,-4.78968 -2.57422,-11.3711 -0.37289,-16.3919 0.66122,-1.06826 1.83189,-2.0116 3.10326,-2.11717 z m -39.05107,6.1637 c 5.26131,1.22589 6.06516,8.01066 7.03654,12.34813 0.87931,2.44995 -0.33223,7.88739 -3.91671,5.46489 -4.84295,-3.67132 -7.46303,-10.96384 -5.52289,-16.74683 0.47439,-0.84773 1.46737,-1.23421 2.40306,-1.06619 z m 27.16975,22.78486 c 9.59092,0.68634 15.2919,11.19848 15.37404,19.99648 0.86113,4.6143 -1.73996,10.666 -7.10145,10.51407 -8.24754,-0.83367 -13.18424,-9.53144 -15.28566,-16.76754 -1.53023,-5.29539 -0.10478,-13.73921 7.01307,-13.74301 z"
           id="path2033"
           transform="matrix(0.26458332,0,0,0.26458332,79.570321,78.14333)" />
        <path
           style="display:inline;fill:#597ef7;fill-opacity:1;stroke-width:0.707107"
           d="m 517.77842,346.99341 c -6.06585,0.48158 -12.86699,1.14212 -17.83235,4.90832 -0.73803,2.98179 3.06661,5.2506 2.99554,8.38446 0.24904,1.18895 0.76381,4.65235 -0.44885,1.97631 -3.18092,-3.78409 -8.83281,-8.8091 -13.84935,-5.05195 -8.51484,5.72526 -13.85733,14.75458 -19.63879,22.94506 -7.14273,-5.06842 -13.34797,-12.38262 -19.9661,-18.42206 -2.88526,0.29588 -4.6537,4.2556 -7.10283,6.01731 -8.02915,7.70575 -19.28636,12.57196 -30.56441,10.95601 -4.03585,0.24553 -10.74403,-1.87175 -12.61053,3.15712 -2.79159,17.95204 -6.49703,35.81334 -10.17295,53.61582 -0.26771,3.5636 4.60746,1.90515 6.61545,1.88733 18.51632,-2.68185 37.09078,-4.22519 55.78437,-4.68423 3.19102,-0.59 7.50253,0.47798 9.95985,-1.42088 0.12318,-5.53797 -0.0745,-11.28385 0.54414,-16.70954 0.96258,8.77146 5.04046,17.42823 12.72931,22.20067 6.8554,5.16338 15.99945,8.70199 24.40623,5.19419 15.33025,-6.1416 24.91274,-20.86211 32.6664,-34.70761 5.28143,-10.96082 12.12178,-22.33568 11.50016,-34.91892 -0.58426,-3.902 -1.83517,-8.25472 -4.72188,-11.0085 -3.26301,1.07372 -4.72308,6.50446 -6.89705,8.01848 0.90804,-6.796 1.96074,-15.7235 -5.02157,-19.78656 -2.44333,-1.74153 -5.34788,-2.78043 -8.37479,-2.55083 z m -2.13651,19.33771 c 2.6722,2.32958 1.48357,6.8332 1.45703,10.11633 -0.54463,4.22344 -3.17904,9.49892 -7.6525,10.18261 -2.93778,-3.39177 -1.84205,-8.82267 -0.93637,-12.91022 1.06529,-3.24164 3.70076,-6.62371 7.13184,-7.38872 z m -25.31912,4.44014 c 4.31018,1.31052 5.86416,6.98885 5.70381,11.04854 -0.6059,3.38204 -1.78819,9.80748 -6.45373,8.8416 -5.03614,-3.65311 -4.19501,-11.29645 -2.5757,-16.58801 0.57922,-1.38199 1.56046,-3.29411 3.32562,-3.30213 z m 39.92253,6.06427 c 3.97827,0.77559 2.49619,6.44563 1.9335,9.104 -1.21308,3.82398 -3.40586,9.97614 -8.24222,9.82491 -2.8593,-3.02164 -1.01306,-7.99236 -0.11187,-11.54572 1.17948,-2.87848 2.63047,-7.36508 6.42059,-7.38319 z m -27.33686,22.84148 c 6.0758,-0.0575 8.24895,7.57224 6.9012,12.4669 -1.26309,8.27802 -7.36298,18.27385 -16.91809,17.5589 -6.46592,-0.87837 -6.07054,-8.74227 -5.14033,-13.57314 0.95043,-7.0077 5.93732,-13.57447 12.4959,-16.18888 0.91058,-0.16425 1.71618,-0.2697 2.66132,-0.26378 z"
           id="path2035"
           transform="matrix(0.26458332,0,0,0.26458332,79.570321,78.14333)" />
        <path
           style="display:inline;fill:#597ef7;fill-opacity:1;stroke-width:0.707107"
           d="m 501.24704,253.2258 c -0.66991,3.21636 0.4585,7.14471 -0.70021,10.13842 -3.28638,-2.13404 -4.68271,-6.60401 -7.97152,-8.39965 -3.05,1.35904 -8.56957,2.82994 -7.1926,7.36938 -0.0166,1.66354 1.60068,5.10624 -0.37565,5.85987 -2.8117,-0.50443 -4.29324,-4.55981 -6.91501,-4.27993 -5.08822,6.48885 -9.50346,14.01469 -11.05821,22.18685 -1.88437,14.90229 -0.17533,30.17969 -3.58663,44.84328 -2.3695,8.34268 -7.29894,15.84509 -9.70062,24.0803 3.05939,3.9196 6.60253,8.02201 10.75851,10.67566 10.74915,-5.26374 18.98385,-15.13115 23.92701,-25.90884 5.88366,-13.46901 -0.0755,-28.05195 0.39774,-41.90436 0.46232,-8.14763 5.04937,-16.51892 13.43061,-18.73205 6.12088,-2.44839 12.88926,-0.8001 18.48587,2.37744 6.16429,3.12127 14.94961,0.6743 16.78827,-6.46616 2.04306,-10.00289 -7.21943,-18.94139 -16.31042,-21.14691 -6.56637,-0.81724 -13.47685,-1.02015 -19.97714,-0.6933 z"
           id="path2037"
           transform="matrix(0.26458332,0,0,0.26458332,79.570321,78.14333)" />
        <path
           style="display:inline;fill:#fff6ee;fill-opacity:1;stroke-width:0.707107"
           d="m 370.16573,375.86464 c -32.87602,5.42111 -66.65046,5.90793 -99.54875,0.40189 -2.2755,-0.71802 -4.36077,1.11805 -3.56316,3.47614 3.54423,18.12977 9.48445,35.75096 15.75661,53.10345 1.50469,3.62953 2.80324,9.2805 7.89418,8.71592 27.27331,0.59757 54.62906,0.75041 81.85236,-1.22799 3.41806,-0.61453 9.16765,0.0406 9.62406,-4.72165 4.2312,-16.45548 7.84907,-33.16764 9.72134,-50.0651 1.76275,-5.01578 -2.46409,-6.91971 -6.28364,-8.66229 -3.5807,-3.25553 -7.9087,-2.65721 -12.23212,-1.55522 -1.07362,0.17828 -2.14725,0.35656 -3.22088,0.53485 z"
           id="path2041"
           transform="matrix(0.26458332,0,0,0.26458332,79.570321,78.14333)" />
        <path
           style="display:inline;fill:#fff6ee;fill-opacity:1;stroke-width:0.707107"
           d="m 323.46769,273.6076 c -14.77279,-0.57864 -28.69541,6.89876 -39.6767,16.20684 -7.63613,7.26002 -13.09069,16.7658 -16.57834,26.64494 -1.34907,4.68068 4.83519,5.19512 7.40252,7.47848 3.23696,2.04169 3.51215,6.49813 6.04908,8.88579 30.22999,-1.60359 60.59453,-0.74922 90.88118,-1.05928 2.08836,-2.94016 3.38064,-7.19495 7.21193,-8.7463 2.8384,-2.05884 7.82616,-1.88349 9.35535,-5.33644 -2.97525,-8.57294 -7.80589,-16.63297 -13.47093,-23.73228 -8.32267,-9.59138 -20.04072,-15.91763 -32.13746,-19.35014 -6.25475,-1.26829 -12.69438,-0.93549 -19.03663,-0.99161 z"
           id="path2043"
           transform="matrix(0.26458332,0,0,0.26458332,79.570321,78.14333)" />
        <path
           style="display:inline;fill:#ffc695;fill-opacity:1;stroke-width:0.5"
           d="m 215.37004,34.457703 c -13.85046,0.333529 -28.139,1.333778 -41.0332,6.799804 -3.63309,1.410775 -7.35881,5.388188 -5.16895,9.460938 4.1126,7.8296 11.18264,13.556331 17.19239,19.877929 2.27544,1.827741 4.31645,4.761139 7.25683,5.362305 4.57655,-5.048794 7.68469,-11.373544 12.16509,-16.569215 5.95135,-7.927488 13.25185,-14.73886 19.23726,-22.624144 0.11707,-2.578832 -3.69374,-1.97962 -5.38049,-2.262492 -1.42204,-0.05789 -2.84601,-0.05506 -4.26893,-0.04512 z"
           id="path2059"
           transform="matrix(0.26458332,0,0,0.26458332,79.570321,78.14333)" />
        <path
           style="display:inline;fill:#ffc695;fill-opacity:1;stroke-width:0.5"
           d="m 446.16398,95.613952 c -1.26006,2.11692 0.19211,5.015038 0.12208,7.396488 0.97107,10.23323 1.04428,20.54435 1.36425,30.83984 3.62053,2.83512 8.41807,4.38622 12.57238,6.58838 1.76664,0.32721 4.17896,2.98403 5.7704,1.26611 0.55006,-3.96714 -1.70207,-7.85229 -2.48466,-11.69384 -3.43787,-12.22712 -8.45266,-24.1985 -16.33859,-34.241704 -0.26938,-0.233768 -0.66973,-0.333492 -1.00586,-0.155274 z"
           id="path2061"
           transform="matrix(0.26458332,0,0,0.26458332,79.570321,78.14333)" />
        <path
           style="display:inline;fill:#ffc695;fill-opacity:1;stroke-width:0.5"
           d="m 503.00871,400.7536 c -5.97484,0.9176 -10.38432,6.19403 -12.92676,11.35254 -1.48827,4.07366 -2.46012,9.0064 -0.63964,13.1084 1.36187,2.4833 4.5042,4.27064 7.13867,2.48437 9.08086,-3.95993 14.43901,-15.89268 10.24804,-25.07812 -0.80961,-1.27989 -2.32785,-1.95939 -3.82031,-1.86719 z"
           id="path2063"
           transform="matrix(0.26458332,0,0,0.26458332,79.570321,78.14333)" />
        <path
           style="display:inline;fill:#ffc999;fill-opacity:1;stroke-width:0.0625"
           d="m 489.97255,371.11744 c -0.70876,0.15575 -0.84724,0.96854 -1.1894,1.49957 -0.77846,1.6066 -1.73768,3.16293 -2.08349,4.93813 -0.60155,2.82562 -0.53991,5.84288 0.435,8.5789 0.51545,1.39932 1.43784,2.70366 2.72913,3.47912 0.75707,0.43411 1.72857,0.13883 2.23498,-0.53772 1.27019,-1.58239 1.88908,-3.58677 2.25403,-5.55517 0.21838,-1.56838 0.24917,-3.16954 0.0945,-4.74536 -0.29626,-1.94598 -0.80728,-3.96824 -2.14807,-5.47608 -0.58582,-0.68705 -1.10289,-1.453 -1.78134,-2.04995 -0.15146,-0.11192 -0.36578,-0.12094 -0.54532,-0.13144 z"
           id="path2065"
           transform="matrix(0.26458332,0,0,0.26458332,79.570321,78.14333)" />
        <path
           style="display:inline;fill:#ffc999;fill-opacity:1;stroke-width:0.0625"
           d="m 514.77199,367.62501 c -1.08588,0.11765 -1.94252,0.92641 -2.6582,1.68664 -1.84645,2.14048 -3.00817,4.80718 -3.67212,7.53627 -0.49555,2.11169 -0.53537,4.36087 0.0472,6.45836 0.26212,0.8662 1.04626,1.78017 2.04333,1.57202 1.08592,-0.26776 1.79315,-1.23834 2.42261,-2.09265 2.05066,-3.0868 3.21714,-6.72216 3.58362,-10.39771 0.0834,-1.30745 0.18574,-2.71797 -0.42896,-3.92065 -0.27233,-0.47292 -0.76752,-0.86616 -1.33752,-0.84228 z"
           id="path2067"
           transform="matrix(0.26458332,0,0,0.26458332,79.570321,78.14333)" />
        <path
           style="display:inline;fill:#ffc999;fill-opacity:1;stroke-width:0.0625"
           d="m 529.74233,377.42554 c -1.19636,0.0817 -2.01368,1.11957 -2.6717,2.0101 -1.68258,2.47849 -2.7326,5.33867 -3.43642,8.23556 -0.32518,1.21112 -0.42323,2.46429 -0.37824,3.7143 -0.0592,1.01719 0.26213,2.10011 1.0242,2.80262 0.66066,0.57221 1.66269,0.36285 2.24463,-0.21753 1.13916,-1.04428 1.87089,-2.44225 2.62353,-3.77112 1.49871,-2.72218 2.25808,-5.81634 2.41407,-8.90833 -0.002,-1.13005 0.0456,-2.40676 -0.68055,-3.34863 -0.27842,-0.3319 -0.70408,-0.53407 -1.13952,-0.51697 z"
           id="path2069"
           transform="matrix(0.26458332,0,0,0.26458332,79.570321,78.14333)" />
        <path
           style="display:inline;fill:#ffc695;fill-opacity:1;stroke-width:0.125"
           d="m 145.84734,400.45617 c -2.88846,0.0574 -5.11448,2.51915 -5.8955,5.14087 -0.60937,2.14608 -0.42789,4.44405 -0.10645,6.62476 1.26729,5.74127 4.1189,11.43547 9.04224,14.87036 1.62856,1.12029 3.55259,1.98961 5.57726,1.76511 2.71226,4.5e-4 4.73548,-2.40174 5.54334,-4.79099 1.19715,-3.91769 0.17129,-8.12863 -1.38134,-11.79712 -1.85901,-4.12754 -4.59188,-8.05587 -8.47413,-10.50171 -1.29603,-0.77493 -2.77409,-1.35055 -4.30542,-1.31128 z"
           id="path2071"
           transform="matrix(0.26458332,0,0,0.26458332,79.570321,78.14333)" />
        <path
           style="display:inline;fill:#ffc695;fill-opacity:1;stroke-width:0.125"
           d="m 157.52337,371.74157 c -1.14715,0.14244 -1.75427,1.34744 -2.31958,2.22168 -1.36963,2.61662 -0.96179,5.65438 -0.97668,8.49207 0.16667,2.17576 0.59409,4.43832 1.77478,6.30822 0.56928,0.9019 1.98016,1.61177 2.84179,0.67847 1.37525,-1.09257 2.13691,-2.7407 2.39185,-4.44922 0.54656,-3.37921 0.5034,-6.94738 -0.61231,-10.2102 -0.4872,-1.26243 -1.46929,-2.39093 -2.68701,-2.98389 -0.13331,-0.0411 -0.2733,-0.0613 -0.41284,-0.0571 z"
           id="path2073"
           transform="matrix(0.26458332,0,0,0.26458332,79.570321,78.14333)" />
        <path
           style="display:inline;fill:#ffc695;fill-opacity:1;stroke-width:0.125"
           d="m 133.9721,368.61755 c -1.24567,1.20641 -1.16671,3.11302 -1.31079,4.71484 -0.1189,3.46581 0.64992,7.12647 2.82568,9.89746 0.77371,1.0439 2.42411,1.83802 3.52735,0.81641 1.43532,-1.45455 1.47511,-3.76367 1.11084,-5.65381 -0.76032,-3.10745 -1.98955,-6.16574 -3.90064,-8.74927 -0.52698,-0.60038 -1.40783,-1.54232 -2.25244,-1.02563 z"
           id="path2075"
           transform="matrix(0.26458332,0,0,0.26458332,79.570321,78.14333)" />
        <path
           style="display:inline;fill:#ffc695;fill-opacity:1;stroke-width:0.125"
           d="m 118.74993,377.47057 c -1.43117,0.086 -2.07638,1.64326 -2.14782,2.8897 -0.2116,2.60998 0.5605,5.20558 1.48913,7.61787 1.0012,2.28579 2.2931,4.66529 4.46362,6.02906 1.01248,0.64105 2.38762,0.0352 2.69141,-1.09693 0.78602,-2.15615 -0.13227,-4.3929 -0.8919,-6.41028 -1.20063,-2.87719 -2.45038,-5.79669 -4.32636,-8.30749 -0.31778,-0.38515 -0.74664,-0.75173 -1.27808,-0.72193 z"
           id="path2077"
           transform="matrix(0.26458332,0,0,0.26458332,79.570321,78.14333)" />
        <path
           style="display:inline;fill:#ffc999;fill-opacity:1;stroke-width:0.125"
           d="m 307.03618,164.45487 c -4.80748,0.17728 -9.46854,1.87816 -13.60962,4.25757 -1.98294,1.23558 -4.07321,2.65979 -5.10937,4.82959 -0.68381,1.66027 0.66678,3.16178 1.64544,4.35473 2.90497,3.25723 6.21194,6.19993 9.91657,8.51978 4.46086,2.46728 9.84091,2.77565 14.76664,1.78665 4.33843,-0.79543 8.40776,-2.79481 11.84505,-5.53294 1.26237,-0.96861 2.13468,-2.64599 1.56922,-4.23344 -1.99234,-5.91958 -7.18535,-10.28732 -12.90015,-12.46656 -2.58891,-0.96474 -5.35279,-1.55514 -8.12378,-1.51538 z"
           id="path2079"
           transform="matrix(0.26458332,0,0,0.26458332,79.570321,78.14333)" />
        <path
           style="display:inline;fill:#ffffff;fill-opacity:1;stroke-width:0.353553"
           d="m 285.37806,153.08576 c -1.33743,-0.28468 -2.76595,0.94546 -1.74222,2.22697 1.64118,2.64681 3.19648,5.85452 6.09258,7.28582 1.92398,-0.38564 2.27562,-2.96898 3.05699,-4.49123 0.83903,-1.64111 0.28822,-3.88808 -1.73531,-4.23366 -1.8229,-0.58066 -3.76552,-0.78157 -5.67204,-0.7879 z"
           id="path2081"
           transform="matrix(0.26458332,0,0,0.26458332,79.570321,78.14333)" />
        <path
           style="display:inline;fill:#ffffff;fill-opacity:1;stroke-width:0.353553"
           d="m 334.68356,161.82377 c -1.30961,-0.17397 -3.32297,0.31238 -2.8153,2.0571 0.46466,2.21468 0.48282,5.13383 2.48868,6.54903 2.33523,-0.086 3.94863,-2.39963 5.65409,-3.76479 0.88107,-0.93287 3.06762,-2.80373 1.25125,-3.87252 -2.06762,-0.81419 -4.38176,-0.90351 -6.57872,-0.96882 z"
           id="path2083"
           transform="matrix(0.26458332,0,0,0.26458332,79.570321,78.14333)" />
        <path
           style="display:inline;fill:#ffffff;fill-opacity:1;stroke-width:0.353553"
           d="m 311.21231,118.73929 c -2.11152,0.32625 -4.57324,1.65741 -5.20179,3.81727 0.0865,2.59153 3.32514,3.41297 5.44755,2.93364 2.09127,0.13876 4.96088,-1.50936 4.60732,-3.85205 -0.8861,-1.58645 -3.02878,-2.83945 -4.85308,-2.89886 z"
           id="path2085"
           transform="matrix(0.26458332,0,0,0.26458332,79.570321,78.14333)" />
        <path
           style="display:inline;fill:#253368;fill-opacity:1;stroke-width:0.176777"
           d="m 347.60264,336.47353 c -18.0834,0.0645 -36.18284,-0.0444 -54.24591,0.93701 -4.44853,0.34772 -8.97043,0.52189 -13.30281,1.66181 -1.7264,0.58261 -2.46071,2.43241 -3.79278,3.53841 -3.2729,3.48136 -6.79467,6.75621 -10.04965,10.23055 -0.42103,1.0953 0.9635,1.95455 1.37197,2.90098 1.79481,2.51821 3.39464,5.58987 6.5077,6.67322 4.18921,1.58772 8.75135,1.66062 13.15294,2.1776 9.15047,0.79601 18.34811,0.76728 27.52571,0.83261 18.22546,-0.25609 36.50592,-0.20423 54.63817,-2.31208 3.64823,-0.50758 7.47761,-0.52562 10.90836,-2.00082 2.32928,-1.3396 3.12181,-4.13251 4.41901,-6.31658 0.37365,-0.79192 1.31413,-1.90944 0.32669,-2.6324 -4.15682,-3.90186 -8.90052,-7.50766 -11.59372,-12.5874 -0.70548,-0.99471 -0.9444,-2.48201 -2.03094,-3.08303 -7.94064,-0.0505 -15.89076,-0.006 -23.83474,-0.0199 z m 16.71299,2.49801 c 2.05339,0.53757 3.78839,2.20417 4.67596,4.11247 0.15179,1.08481 0.42135,2.71094 1.81334,2.76835 2.31272,0.89486 3.50447,3.67899 3.20649,6.04942 -0.32768,2.60205 -2.9691,4.19184 -5.42828,4.2751 -2.74236,0.2488 -5.87881,-0.32826 -8.1704,1.58719 -1.73555,1.51147 -3.91023,3.28226 -6.37398,2.49145 -2.37109,-0.73355 -3.32932,-3.30779 -4.7885,-5.07819 -1.34134,-1.92695 -3.30934,-3.42056 -4.35486,-5.53843 -0.68268,-2.09971 1.16914,-3.79296 2.53116,-5.09061 0.92121,-0.99313 2.20202,-1.63267 3.58763,-1.42834 2.25772,0.0502 4.78221,0.72892 6.76969,-0.74063 2.06945,-1.24401 3.93927,-3.4144 6.53175,-3.40778 z m -74.23136,3.00658 c 1.7659,-0.16724 3.44593,0.61291 4.59307,1.93559 1.55388,1.61364 3.43193,3.48105 3.35808,5.88333 -0.73487,2.5416 -2.49051,4.80144 -4.66973,6.27902 -2.19024,0.80122 -4.59805,0.81397 -6.88532,0.80896 -3.62963,-0.38373 -6.74689,-2.92583 -8.4801,-6.03975 -1.10389,-2.20914 0.53648,-4.49893 1.95836,-6.11019 1.96719,-2.33722 5.22803,-2.43764 8.03257,-2.67051 0.69665,-0.0482 1.39464,-0.0829 2.09307,-0.0865 z m 19.47133,1.14145 c 3.20278,0.0836 6.95921,0.17559 9.29045,2.71207 1.68102,1.9493 1.70441,4.84152 1.01059,7.19192 -1.40123,3.22426 -5.31393,4.26082 -8.49736,4.41562 -2.60634,0.0588 -5.59286,0.20513 -7.56411,-1.82543 -1.8149,-1.70427 -3.89614,-4.29573 -2.91164,-6.98199 0.92195,-2.14296 2.76195,-3.73774 4.72014,-4.95907 1.19455,-0.89024 2.57109,-0.46596 3.95193,-0.55312 z"
           id="path2087"
           transform="matrix(0.26458332,0,0,0.26458332,79.570321,78.14333)" />
        <path
           style="display:inline;fill:#557cf7;fill-opacity:1;stroke-width:0.176777"
           d="m 363.62419,341.84896 c -3.03979,0.16153 -4.54844,3.61489 -7.58448,3.7679 -2.55302,0.34983 -5.186,-0.55639 -7.68841,0.15882 -1.57182,0.69483 -1.28005,2.7603 -1.08794,4.14908 0.29659,1.77267 2.33426,1.97463 3.78275,2.04639 1.18886,-0.0999 0.90264,1.35895 1.04681,2.10168 0.12091,1.52188 0.3855,3.75621 2.26326,4.03579 1.83627,0.0634 3.19207,-1.53739 4.55442,-2.54807 1.58955,-1.50476 3.87929,-1.96172 6.03785,-2.00386 1.82154,-0.25402 3.96968,0.0806 5.49096,-1.14566 1.20311,-1.47201 0.33508,-3.81621 -1.36208,-4.48917 -0.78061,-0.57053 -2.1371,-0.39036 -2.60538,-1.31512 -0.21571,-1.49827 0.25048,-3.59995 -1.40627,-4.44289 -0.43718,-0.24206 -0.94448,-0.34166 -1.44149,-0.31489 z"
           id="path2103"
           transform="matrix(0.26458332,0,0,0.26458332,79.570321,78.14333)" />
        <path
           style="display:inline;fill:#557cf7;fill-opacity:1;stroke-width:0.176777"
           d="m 310.33948,345.50879 c -2.83313,-0.0533 -5.95843,0.9753 -7.62799,3.37844 -1.2952,1.9872 0.0749,4.55698 2.05469,5.45384 2.88979,1.51997 6.47274,1.74025 9.53075,0.61803 1.80146,-1.00667 3.67119,-2.53338 4.11178,-4.64764 -0.14119,-2.21754 -2.25252,-3.71866 -4.13837,-4.5085 -1.25259,-0.45609 -2.62788,-0.24392 -3.93086,-0.29417 z"
           id="path2105"
           transform="matrix(0.26458332,0,0,0.26458332,79.570321,78.14333)" />
        <path
           style="display:inline;fill:#557cf7;fill-opacity:1;stroke-width:0.176777"
           d="m 287.40132,344.62595 c -2.57564,-0.0565 -5.65201,0.57177 -6.90707,3.09566 -0.99189,2.35661 0.84937,4.84587 2.79943,6.04114 2.49824,1.35603 5.52244,1.15352 8.21286,0.57866 2.75307,-0.7308 4.76622,-4.06886 3.34046,-6.73236 -1.26085,-2.18096 -3.9375,-3.1529 -6.36707,-2.98552 -0.35956,-0.003 -0.71906,-0.001 -1.07861,0.002 z"
           id="path2107"
           transform="matrix(0.26458332,0,0,0.26458332,79.570321,78.14333)" />
        <path
           style="display:inline;fill:#6c8cf9;fill-opacity:1;stroke-width:0.25"
           d="m 320.73214,6.1364337 c -2.00596,-0.1096802 -4.31559,0.4657019 -5.16015,2.5029296 -2.5288,5.3364917 -4.05148,11.0648997 -6.25195,16.5307617 -0.74848,-5.315342 -0.67642,-10.744614 -1.52784,-16.0624999 -0.66588,-2.1139969 -3.23315,-1.2660394 -4.83935,-1.1625977 -8.45207,1.1619361 -16.53907,3.9896856 -24.83964,5.8337426 -5.63789,1.001852 -11.30054,-0.565589 -16.96011,-0.557909 -16.88068,-0.583507 -33.8153,0.116662 -50.59557,2.036941 -16.18317,2.146042 -32.2725,5.486653 -47.72817,10.797076 -4.87769,1.927579 -10.34537,3.545928 -13.80864,7.740248 -2.74741,3.553637 -1.96948,8.360812 -1.83301,12.53476 0.73209,8.118727 4.89989,15.428065 9.1742,22.1867 10.07757,15.365537 22.87566,28.68324 35.79602,41.656474 -1.66167,8.00517 -3.03546,16.1141 -3.13037,24.30712 0.47572,2.08882 2.97377,1.23568 4.49707,1.3418 10.32334,-0.40992 20.67118,-0.58346 30.97363,-0.34375 -10.64508,2.50757 -21.28507,5.13023 -31.70557,8.46094 -1.6264,0.50687 -3.38117,1.70419 -3.11328,3.63965 0.27584,3.50448 1.0288,6.99299 1.99024,10.36572 0.84821,2.1343 3.47221,1.60669 5.23199,1.24983 6.51377,-0.87146 13.21479,-1.12921 19.80951,-1.40706 -6.78268,2.49521 -13.85761,4.40911 -20.22021,7.90137 -1.61308,0.73034 -2.40976,2.59674 -1.63184,4.22119 2.64187,6.44317 6.07284,12.55707 9.74373,18.46822 10.88121,16.91353 27.26429,29.68799 45.17859,38.482 18.28771,9.24745 38.44932,14.92704 58.96098,15.79343 10.49817,0.60287 21.02949,-0.11876 31.47204,-1.21008 16.31006,-1.93478 32.36554,-6.24641 47.41272,-12.8363 9.39021,-4.25067 18.57418,-9.31043 26.06543,-16.49463 4.61988,-4.29916 9.17783,-8.71505 13.553,-13.23591 1.06523,-1.84672 -1.5172,-2.93933 -2.47417,-4.1783 -4.6732,-4.50809 -9.49483,-9.03542 -14.02073,-13.59312 6.84848,2.27488 13.19143,5.76011 19.5918,9.02979 2.11295,0.34627 2.7176,-2.25656 3.65665,-3.61245 1.3429,-2.82966 3.13903,-5.58563 3.71445,-8.69419 -0.2215,-2.74918 -3.1371,-4.01255 -5.04267,-5.53947 -8.26743,-5.58301 -16.7303,-10.8695 -25.04473,-16.38192 9.53223,2.19814 18.6974,5.64509 28.02745,8.59493 1.82783,0.36163 4.3718,1.84587 5.82753,-0.0349 1.14027,-2.59608 0.85422,-5.5926 1.33025,-8.34563 0.20247,-1.92097 0.41587,-3.87675 0.68195,-5.81257 4.9565,3.77202 10.41135,7.10303 16.57227,8.42968 5.38373,1.10546 11.08545,2.38801 16.53223,0.97657 3.4839,-0.84773 5.7837,-4.30082 5.69092,-7.80908 0.039,-7.94176 -2.24345,-15.67911 -4.5571,-23.20559 -7.4023,-22.756 -21.0645,-43.154282 -37.79545,-60.116192 -6.20445,-6.132045 -12.72532,-12.017305 -19.91502,-16.97754 -1.25615,-1.087612 -3.49563,-1.332207 -4.31643,0.406738 -0.41765,0.376822 -0.41457,1.936802 -1.14012,1.131347 -4.54108,-3.769567 -9.39835,-7.310222 -15.02835,-9.267105 -3.59223,-1.394525 -7.37827,-2.09134 -11.04734,-3.155257 2.30481,-1.273838 4.83386,-2.151498 7.43164,-2.47461 1.68248,-0.72667 1.02472,-2.959673 -0.28906,-3.700683 -5.042,-3.761223 -10.56353,-6.841548 -15.99512,-9.997558 -1.22156,-0.856908 -2.93941,-0.807641 -3.86321,0.483776 -4.91028,4.192644 -9.78824,8.424595 -14.78523,12.51427 1.94849,-5.877011 4.56199,-11.550202 6.18211,-17.518008 -0.12971,-1.995198 -2.51593,-2.753088 -4.05466,-3.583066 -4.22904,-1.757262 -8.55138,-3.631636 -13.15918,-4.040527 -2.00022,0.259912 -2.37496,2.754476 -3.54416,4.092772 -4.75051,7.556986 -9.21276,15.29544 -14.15457,22.731446 1.20136,-9.948381 2.60424,-19.902287 2.96337,-29.9252923 0.22522,-1.4997354 -1.136,-2.6253116 -2.57135,-2.3939124 -3.96498,-0.3561718 -7.92818,-0.853476 -11.91742,-0.7745446 z M 264.97385,21.857137 c 4.45731,-0.08521 9.51256,0.36372 12.80517,3.729004 0.53806,0.686324 -1.46103,0.219936 -1.89817,0.433481 -6.37206,0.47797 -12.92988,-0.192767 -19.22097,1.294546 -3.09847,0.826282 -6.0068,2.19189 -9.03271,3.171387 2.63428,-3.612954 6.39034,-6.539481 10.62939,-8.009278 2.18054,-0.607222 4.47312,-0.586794 6.71729,-0.61914 z m -49.1836,9.916504 c 5.03858,0.147374 10.32855,0.03278 15.05713,2.013672 0.99928,0.42721 -0.46831,1.434508 -0.75683,2.051268 -7.0147,8.304132 -15.0589,15.676012 -21.83448,24.207032 -4.39644,5.623368 -9.07718,11.36424 -11.29757,18.256665 -0.1992,1.080548 -0.71753,3.073313 -2.22684,2.262378 -4.41223,-2.100075 -7.94094,-5.64034 -11.63549,-8.765673 -6.0261,-5.634827 -11.94887,-11.64072 -15.61891,-19.120557 -2.21816,-4.289563 -1.50212,-10.35147 2.75782,-13.110353 5.55504,-2.990452 11.94158,-4.070017 18.03483,-5.277527 9.08735,-1.571193 18.28826,-2.487455 27.52034,-2.516905 z m 41.94287,44.163575 c 6.72684,0.233112 13.07496,3.378372 18.03118,7.861165 5.42198,4.86029 8.57207,11.692255 10.18164,18.689269 0.0894,0.72115 -1.34465,-0.95921 -1.84386,-1.21495 -6.00606,-5.379687 -13.20335,-10.183519 -21.48956,-10.693394 -6.80645,-0.56872 -14.18734,-0.20807 -19.96895,3.857345 -3.00437,1.958447 -5.69294,4.349385 -8.33916,6.757399 0.55837,-5.765492 2.36421,-11.550974 6.10683,-16.117504 4.15343,-5.2497 10.49221,-9.128675 17.32188,-9.13933 z m 183.92285,9.818357 c 1.97215,0.287283 3.13087,2.283788 4.49462,3.550295 10.60145,12.096482 17.13975,27.326272 21.14103,42.763662 0.9505,4.20227 2.43132,8.49485 1.87217,12.8462 -0.13355,1.19538 -1.29772,1.85521 -2.41552,1.49561 -4.46073,-1.06757 -8.42495,-3.47061 -12.6166,-5.29278 -3.30738,-1.57078 -6.60905,-3.15357 -9.91368,-4.73017 -0.14495,-13.36101 0.65943,-26.9385 -2.53027,-40.041182 -0.57378,-3.467855 -1.73395,-6.862827 -1.65773,-10.363117 0.50635,-0.220483 1.08155,-0.250423 1.62598,-0.228518 z m -60.6748,8.177735 c 5.47507,-0.200607 11.10191,1.808955 14.75928,5.902345 4.30109,4.472477 6.66487,10.599807 7.34144,16.706847 0.22695,2.39499 0.13315,4.82963 -0.37612,7.18427 -4.5163,-6.61791 -10.78691,-12.24933 -18.23193,-15.33789 -7.97997,-2.89811 -16.90096,-1.29109 -24.49856,2.02259 -2.70444,1.12771 -5.32978,2.43542 -8.03903,3.55211 5.4062,-10.894 16.36132,-20.197552 29.04492,-20.030272 z m -70.50196,23.537112 c 6.8624,0.24761 14.10426,1.29821 19.87842,5.28076 2.24969,1.50956 2.82664,5.01947 0.771,6.92529 -2.51462,2.77769 -5.93103,4.76073 -9.49902,5.80469 -2.1549,0.46029 -4.59516,1.91986 -4.62291,4.39654 -0.32032,2.81385 -0.85509,5.75188 -0.30647,8.53666 1.51733,1.4827 3.82003,2.09431 5.68863,3.16777 8.05935,3.92404 17.52558,6.28337 26.36202,3.73697 2.31301,-0.44552 4.56535,-2.50881 6.97931,-1.55278 1.6865,1.01938 0.046,3.10423 -1.07226,3.83789 -1.70185,1.14493 -2.93342,2.96856 -3.34766,4.95508 -3.60919,5.24743 -8.34572,9.6115 -12.86493,14.10072 -6.65677,6.25855 -13.95785,12.85659 -23.32013,14.27281 -5.49061,0.55697 -11.36983,1.11042 -16.46974,-1.48071 -6.92934,-3.71209 -11.67498,-10.49352 -15.42613,-17.13349 -3.90227,-6.97978 -6.77222,-14.41511 -8.49644,-22.19762 -0.95298,-4.31564 -5.28542,-7.18833 -5.42605,-11.74433 -0.13447,-1.72828 2.07827,-2.22435 3.24952,-1.47119 1.72292,2.33845 2.76931,5.26013 5.23673,7.00882 4.872,3.64545 11.24797,4.05462 17.10752,4.42986 4.78405,0.0562 9.77821,0.33724 14.35984,-1.26534 2.61966,-1.02558 2.58489,-4.22045 2.65282,-6.56966 0.19336,-1.94119 0.17941,-4.25897 -1.68748,-5.42302 -2.60924,-1.748 -5.33011,-3.42015 -7.37082,-5.86457 -1.90115,-1.96501 -3.67275,-5.16519 -1.78153,-7.7199 1.46982,-2.49359 4.21993,-3.85986 7.06104,-3.9336 0.77951,-0.0705 1.56216,-0.0987 2.34472,-0.0977 z"
           id="path2169"
           transform="matrix(0.26458332,0,0,0.26458332,79.570321,78.14333)" />
        <path
           style="display:inline;fill:#597ef7;fill-opacity:1;stroke-width:0.707107"
           d="m 419.16712,216.90778 c -8.35062,3.54184 -15.33406,9.88026 -23.70188,13.55104 -24.10937,11.81524 -51.12597,17.58152 -77.88808,17.0515 -16.83364,0.48405 -33.77406,-1.86638 -49.65564,-7.47178 -14.07935,-4.63853 -27.42545,-11.16771 -39.47159,-19.7872 -3.5402,-0.10063 -5.27844,4.59051 -7.89004,6.71199 -1.60213,2.46963 -7.15252,6.35334 -2.85838,8.63047 4.91797,3.14952 9.86826,6.25274 14.94272,9.14526 -8.36676,0.46385 -17.06449,-0.0999 -25.17272,1.70976 -2.16557,5.55653 -6.47883,10.70456 -6.86944,16.78274 2.504,4.08498 7.83861,5.65158 11.48911,8.50185 -5.51966,0.59308 -13.51843,-1.42433 -16.83384,4.39318 -5.68141,21.08159 -6.00382,44.48869 3.29109,64.64089 5.62189,11.33405 12.71203,23.389 24.50296,29.13389 6.07502,2.94102 13.35415,4.06551 19.82655,2.27159 0.71924,-2.94347 -1.01893,-7.47007 2.28291,-3.04525 4.93083,4.05887 12.13805,6.65385 18.06575,3.02453 4.88584,-2.2457 1.87773,-8.07367 -0.11739,-11.33304 -2.92588,-4.94991 -5.76463,-9.98804 -7.74089,-15.40581 2.05284,4.62018 5.86669,2.09953 8.57091,-0.30798 4.24814,-3.55804 11.14693,-8.54513 8.67448,-14.91968 -4.09155,-5.70279 -12.24976,-4.15844 -18.26044,-5.96025 -8.45468,-1.14757 -18.26675,-6.14215 -18.87785,-15.71423 -0.49456,-4.03405 -0.0321,-8.23373 0.50961,-12.14096 1.51691,7.8941 3.44729,17.5758 12.00839,20.74502 3.82901,1.098 8.37694,4.20776 12.24731,1.97078 3.57205,-4.92552 4.50125,-11.26514 7.79336,-16.41675 7.85263,-15.62821 23.04057,-26.79766 39.71051,-31.8069 7.77245,-3.44896 16.44134,-1.03365 24.67324,-1.44936 8.80209,-0.19666 17.64498,1.12166 25.41606,5.64042 17.69566,8.24113 29.36647,25.1629 36.08868,43.04237 4.63853,2.30137 10.55483,-0.78341 14.21119,-4.12526 5.24427,-4.40386 6.72568,-11.49759 7.62073,-17.84616 0.68397,7.80075 1.68396,17.83029 -5.56294,23.28067 -8.5664,6.38464 -20.38065,4.13773 -29.36565,9.34983 -6.6549,8.01011 5.66295,16.83053 12.53734,19.07254 1.75419,-1.06738 5.18608,-6.68568 3.22341,-1.73461 -2.53683,7.8871 -8.94226,14.06896 -11.05959,22.02526 1.26728,5.64493 9.16018,6.52515 13.75405,4.59067 4.03418,-1.38494 7.90746,-5.05506 10.39945,-7.48814 -0.56534,2.60488 -3.45161,8.40308 1.35068,7.86932 11.60687,1.20532 22.97485,-4.44609 30.02872,-13.53773 16.36099,-19.76391 22.74969,-47.01217 17.47926,-72.07171 -1.17515,-4.45848 -0.86823,-9.8174 -3.61212,-13.62444 -5.22954,-1.54749 -10.83755,-1.34165 -16.2165,-1.97492 4.12303,-2.85092 9.1001,-4.8151 12.62158,-8.30436 -1.71453,-5.89819 -4.0738,-12.03095 -7.4771,-17.07 -8.37459,-1.00154 -16.81868,-1.26074 -25.23764,-1.69181 5.07372,-3.5055 11.36566,-5.80159 15.6185,-10.25443 0.84217,-5.00734 -4.5911,-8.39379 -7.25182,-11.91869 -2.34476,-1.99019 -4.40365,-5.67614 -7.81701,-5.73412 z"
           id="path2171"
           transform="matrix(0.26458332,0,0,0.26458332,79.570321,78.14333)" />
        <path
           id="path833"
           style="fill:#000000;stroke-width:0.999999"
           d="m 622.0625,295.3457 c -11.72035,-0.0447 -23.23795,1.71753 -36.74609,5.6211 -7.75597,2.24129 -9.15311,2.33654 -23.25196,1.61132 -15.82873,-0.81417 -41.9175,0.14133 -54.5,1.9961 -13.7091,2.02084 -30.78396,5.95595 -43.52539,10.0293 -14.59234,4.66507 -19.30433,8.02921 -21.89648,15.63671 -1.98047,5.81549 -1.98106,8.92882 -0.004,16.56055 3.58927,13.8514 14.31121,29.79696 34.26367,50.95313 l 9.1836,9.73632 -0.75977,5.76368 c -0.41813,3.16981 -0.72745,12.28868 -0.68555,20.26367 0.0612,11.65372 0.51797,16.1685 2.32032,23 4.85945,18.4193 12.96417,32.72871 26.50195,46.79101 l 8.38281,8.70899 -4.82422,5.46094 c -8.91703,10.09201 -19.66468,30.07887 -24.75586,46.03906 -8.94612,28.045 -8.34019,54.10345 1.75977,75.65625 2.2218,4.74111 4.03906,9.13369 4.03906,9.75976 0,0.62616 -3.14818,4.26364 -6.99804,8.08399 -6.67964,6.6285 -7.06518,6.85535 -8.39844,4.97265 -7.84607,-11.07938 -11.68209,-14.17234 -25.37891,-20.45898 -16.55569,-7.59878 -26.95707,-8.47492 -35.6914,-3.00977 -5.16167,3.22969 -15.48628,14.64792 -17.80664,19.69336 -3.46916,7.54334 -3.01689,18.45639 1.19336,28.80274 8.04497,19.77003 17.09113,34.45696 27.86914,45.24219 3.37583,3.3781 4.82246,5.4666 4,5.77539 -102.38063,10.27296 485.48537,14.70783 379.27734,-0.0567 -1.01877,-0.38351 0.30642,-2.33348 4.58594,-6.75 9.11803,-9.40997 14.9895,-17.98142 21.3789,-31.21094 7.90439,-16.36645 9.27415,-20.67938 9.36524,-29.50586 0.0644,-6.23822 -0.38046,-8.43361 -2.63086,-13 -2.57832,-5.23177 -12.20465,-15.67318 -17.7793,-19.28516 -6.69513,-4.33799 -19.51937,-4.17456 -29.89062,0.38086 -2.42249,1.06405 -4.52769,1.81216 -4.67774,1.66211 -0.15005,-0.15005 0.579,-2.74259 1.6211,-5.76172 2.34829,-6.80353 2.57622,-21.10943 0.46093,-28.99023 -3.02865,-11.28355 -0.63047,-20.79367 5.93555,-23.53711 4.90545,-2.04964 7.65505,-1.83684 13.37695,1.03711 9.6861,4.86504 19.82192,2.96984 25.56446,-4.78125 3.16664,-4.27423 3.51618,-15.2398 0.67382,-21.11133 -2.88268,-5.95483 -8.48405,-10.84966 -15.66992,-13.69141 -8.5101,-3.36548 -25.87379,-3.41136 -35.79883,-0.0937 -11.12719,3.71921 -22.32694,12.85249 -26.14453,21.31836 -0.95735,2.12308 -2.01102,3.85314 -2.33984,3.8418 -0.32897,-0.01 -1.68468,-3.49735 -3.01367,-7.75 -2.65618,-8.49944 -10.67561,-24.75387 -16.71485,-33.88086 -2.12844,-3.21664 -6.99703,-9.14447 -10.81836,-13.17383 -5.06464,-5.34032 -6.69097,-7.68715 -6,-8.65429 0.52131,-0.72972 2.59726,-3.28203 4.61133,-5.67383 7.46827,-8.86889 17.83789,-31.39502 17.83789,-38.74805 0,-2.52782 1.35812,-2.61744 7.125,-0.47656 2.79421,1.03733 7.86841,1.66987 14.04102,1.75 10.52417,0.13667 12.79614,-0.75407 17.27148,-6.76953 3.9512,-5.311 1.64384,-22.02131 -5.67578,-41.10547 -13.45504,-35.08075 -40.09803,-63.64246 -86.5039,-92.73242 -16.79626,-10.5289 -29.06611,-16.10345 -46.75782,-21.2461 -14.63814,-4.25507 -16.93699,-4.65481 -27.00195,-4.69336 z m -0.23242,7.38086 c 1.27148,-4.5e-4 2.93002,0.10774 5.11523,0.3125 l 7.61914,0.71289 -0.008,3.13282 c -0.01,3.47168 -2.67929,27.41361 -3.58203,32.13281 -0.33736,1.76371 3.39796,-3.59348 9.06445,-13 5.30109,-8.79999 9.9833,-16.34689 10.4043,-16.77149 1.09115,-1.10037 16.12109,4.386 16.12109,5.88477 0,0.68466 -1.7653,5.77762 -3.92383,11.31641 -2.15847,5.53878 -3.68914,10.07031 -3.40039,10.07031 0.28868,0 4.76263,-3.64449 9.94141,-8.09961 l 9.41602,-8.10156 8.95507,5.35156 c 8.84176,5.2823 10.53928,6.84961 7.41407,6.84961 -1.99351,0 -8.40235,2.98532 -8.40235,3.91406 0,0.37727 2.78483,1.26009 6.1875,1.96289 7.20654,1.48849 14.32627,4.8787 19.15821,9.12109 4.06378,3.56807 4.48435,3.63729 5.49609,0.90235 0.72718,-1.96577 1.25656,-1.7189 8.29102,3.87109 29.59615,23.51898 50.83695,57.62891 55.67773,89.41016 1.7139,11.25237 -2.20879,14.20253 -15.88867,11.94336 -7.78715,-1.28602 -12.77475,-3.3157 -18.06445,-7.34766 -2.00414,-1.52757 -3.85105,-2.77734 -4.10352,-2.77734 -0.25266,0 -0.74893,3.41326 -1.10156,7.58594 -0.35275,4.17271 -0.85527,7.93351 -1.11719,8.35742 -0.26204,0.42395 -6.00159,-1.23348 -12.75391,-3.6836 -11.19764,-4.06314 -27.19838,-8.09913 -25.13476,-6.33984 0.46949,0.40021 7.60352,5.08573 15.85351,10.41211 20.58996,13.29324 18.93064,11.70102 17.00391,16.31836 -0.8835,2.11721 -2.24029,4.82045 -3.01563,6.00586 l -1.41015,2.15429 -6.46875,-3.43554 c -6.668,-3.5407 -17.60938,-7.70445 -17.60938,-6.70117 0,0.31173 4.3875,4.75888 9.75,9.88086 l 9.75,9.3125 -8.5,8.36132 c -9.47505,9.32164 -14.69085,13.09209 -25.88086,18.70118 -14.70156,7.36932 -34.37224,13.05742 -51.87304,15.00195 h -0.002 c -34.73106,3.85897 -60.86154,-0.25327 -88.74414,-13.9668 -18.587,-9.14162 -31.98324,-19.80918 -42.48633,-33.83398 -4.65481,-6.2157 -13.01367,-21.67577 -13.01367,-24.06836 0,-1.35466 5.74769,-3.90445 18.23438,-8.08789 5.06506,-1.69693 9.44606,-3.34866 9.73633,-3.66992 0.61315,-0.67798 -21.72008,0.39999 -27.11524,1.30859 l -3.64258,0.61328 -1.10742,-5.16211 c -1.48686,-6.93309 -1.47934,-6.97282 1.48438,-8.09961 4.64984,-1.76787 32.48969,-8.96484 34.67773,-8.96484 1.706,0 1.8816,-0.24979 0.88086,-1.25 -0.91895,-0.9185 -5.41357,-1.17764 -16.94922,-0.97656 -8.63463,0.15038 -17.04919,0.37565 -18.69922,0.5 l -3,0.22656 0.3418,-6 c 0.18867,-3.29998 0.93946,-8.89781 1.66797,-12.43946 l 1.32422,-6.43945 -5.16797,-5.11133 c -7.5905,-7.50689 -19.65557,-21.14388 -24.78125,-28.00976 -11.24852,-15.06762 -15.38477,-24.12445 -15.38477,-33.6836 0,-5.96655 0.30224,-7.00084 2.81446,-9.62304 4.90238,-5.11699 30.92893,-12.69641 56.01171,-16.31055 16.99503,-2.44879 47.65664,-3.50174 60.17969,-2.06836 8.58157,0.98226 9.47733,0.8919 19,-1.89062 5.49661,-1.60611 12.30369,-3.20061 15.12696,-3.54493 l 5.13281,-0.62695 0.72461,10.125 c 0.39851,5.56815 1.08985,10.12305 1.53515,10.12305 0.44531,0 2.25077,-4.38749 4.01172,-9.75 1.761,-5.36251 3.76837,-10.35527 4.46289,-11.0957 0.60371,-0.64371 1.64649,-0.94456 3.76563,-0.94532 z m -56.17774,12.89258 c -2.38734,0.006 -4.81368,0.28703 -7.0625,0.89258 -4.67758,1.25956 -12.02539,7.53507 -12.02539,10.27148 0,1.21467 1.19371,1.00014 6.25,-1.1289 5.44332,-2.2921 7.64098,-2.63277 17.02539,-2.63477 8.67803,-0.002 10.72148,-0.27377 10.5,-1.39648 -0.70435,-3.56814 -7.52548,-6.0216 -14.6875,-6.00391 z m -49.01367,10.08594 c -14.08504,-0.0524 -33.39003,2.55017 -44.35742,6.96289 -4.26837,1.71734 -6.7168,5.49773 -6.7168,10.37109 0,7.04572 8.97751,18.64783 23.5,30.3711 6.32659,5.10712 9.0506,5.32674 9.90039,0.79687 1.08099,-5.76208 10.57599,-18.68817 23.23438,-31.625 8.95687,-9.1539 11.96897,-12.83788 11.22656,-13.73242 -1.76483,-2.12651 -8.33608,-3.11309 -16.78711,-3.14453 z m -0.18164,4.37109 c 5.42291,-0.006 9.10742,0.52223 9.10742,1.68945 0,0.55416 -4.19186,5.37577 -9.3164,10.71485 -5.12459,5.33907 -11.64046,13.2699 -14.48047,17.62305 -2.84001,4.35314 -5.77529,8.78659 -6.52149,9.85351 -1.27971,1.82975 -1.87681,1.43901 -10.51953,-6.89258 -9.40535,-9.06678 -15.16211,-16.5316 -15.16211,-19.66211 0,-4.01034 4.21809,-6.76547 14.31446,-9.34961 9.67573,-2.47648 23.53993,-3.96688 32.57812,-3.97656 z m 41.37695,39.82617 c -11.5889,0.36973 -22.35372,10.94861 -23.95898,24.75 l -0.625,5.36524 4.55859,-4.17969 c 7.53419,-6.9075 12.01726,-8.76273 21.25586,-8.79297 9.45906,-0.0321 15.81404,2.56951 24,9.82813 2.74999,2.43843 5.17066,4.27428 5.37891,4.07812 0.67835,-0.63938 -1.92532,-9.60826 -3.93164,-13.54101 -4.38323,-8.59181 -12.38966,-14.87619 -21.6836,-17.02149 -1.66476,-0.38428 -3.33858,-0.53914 -4.99414,-0.48633 z m 184.62305,9.7793 c -0.24709,-0.0112 -0.50069,7.9e-4 -0.76562,0.0312 -3.1327,0.36321 -3.13895,0.7118 -0.25196,13.80469 1.59614,7.23885 2.09999,13.01265 2.11133,24.25976 l 0.0137,14.76172 11.25,5.40039 h 0.002 c 12.0418,5.78189 13.68242,6.24532 15.54882,4.37891 1.82264,-1.82264 1.45491,-6.36729 -1.34179,-16.57031 -4.70257,-17.15611 -11.05879,-30.02298 -20.26953,-41.03516 -3.13314,-3.74594 -4.56721,-4.95267 -6.29688,-5.03125 z m -61.19531,8.10742 c -7.52759,0.147 -15.54842,3.52886 -21.85547,9.81055 -4.15495,4.13824 -8.8418,11.3919 -8.8418,13.68555 0,0.46647 3.54419,-0.91209 7.875,-3.06446 8.84051,-4.39358 17.61072,-5.74145 24.75977,-3.80664 5.51248,1.49193 14.15865,8.03927 17.86523,13.5293 l 3,4.44336 0.86133,-3.47852 c 2.07935,-8.41375 -2.5891,-21.4119 -9.61328,-26.76953 -3.98064,-3.03618 -8.90033,-4.45019 -14.05078,-4.34961 z m 65.68359,3.07227 c 1.09028,0.093 8.38929,11.86333 11.06641,17.92773 2.61906,5.93292 8.55273,24.91557 8.55273,27.35938 0,1.87544 -0.3697,1.76685 -9.75,-2.83008 l -8.25,-4.04297 v -13.19531 c 0,-7.25753 -0.48053,-15.7967 -1.06836,-18.97656 -0.58775,-3.17983 -0.87407,-5.97516 -0.63671,-6.2129 0.0219,-0.0219 0.0508,-0.0323 0.0859,-0.0293 z m -135.87695,20.56055 c -1.89436,3.2e-4 -3.59313,0.15187 -4.90234,0.48046 -3.43238,0.86147 -6.60157,4.44198 -6.60157,7.45899 0,3.29246 3.91623,8.25739 8.42774,10.68555 3.46461,1.86473 3.64531,2.20957 3.36719,6.4121 -0.27478,4.14936 -0.52503,4.50163 -3.79493,5.35157 -1.92499,0.50128 -7.54999,0.7228 -12.5,0.49414 -11.05769,-0.51107 -16.87796,-3.05663 -19.08789,-8.34571 -1.09874,-2.62972 -2.0328,-3.4414 -3.95703,-3.4414 -4.4598,0 -4.51393,5.36892 -0.10742,10.67383 1.38463,1.66688 2.61447,4.81891 2.99609,7.68164 0.35603,2.67038 2.89924,9.52088 5.65039,15.22461 5.77255,11.96772 13.02333,20.16237 20.16407,22.78711 2.89096,1.06284 6.61044,1.47966 11.1289,1.24609 10.58699,-0.54773 17.82688,-4.69185 30.96289,-17.72461 6.51425,-6.46303 10.75,-11.45251 10.75,-12.66211 0,-1.09784 1.12501,-2.73389 2.5,-3.63476 5.15891,-3.38023 1.67232,-8.76633 -3.83203,-5.91993 -7.04277,3.64199 -18.23817,2.69565 -28.46289,-2.40429 l -5.29687,-2.64063 0.29687,-4.96289 c 0.29488,-4.94808 0.30866,-4.96725 4.79492,-6.27734 5.21511,-1.52296 11,-6.38653 11,-9.24805 0,-3.69706 -1.24557,-5.22988 -6.375,-7.8418 -3.9926,-2.03303 -11.43802,-3.39369 -17.12109,-3.39257 z m 0.97266,3.18554 c 0.93287,-0.0292 1.82273,0.40905 3.04492,1.30274 1.61718,1.18253 1.70237,1.63362 0.56836,3 -1.64693,1.98451 -6.433,2.10184 -8.01368,0.19726 -0.92816,-1.11844 -0.70125,-1.73858 1.09961,-3 1.39259,-0.97546 2.36791,-1.47083 3.30079,-1.5 z m -26.84375,34.42188 c 0.76616,-0.0232 2.36407,0.0705 4.11718,0.2539 4.55777,0.47653 5.05078,1.38368 3.08985,5.6875 -0.63829,1.40085 -1.46731,2.54688 -1.84375,2.54688 -1.41959,0 -6.75409,-7.7147 -5.82617,-8.42578 0.0455,-0.0349 0.2075,-0.0548 0.46289,-0.0625 z m 50.9375,8.70312 c 2.39588,0.0647 5.54832,0.56982 6.20117,1.22266 0.33263,0.33263 -0.94343,1.92673 -2.83399,3.54297 -1.89055,1.61624 -3.76143,2.95584 -4.1582,2.97851 -0.93063,0.0524 -2.63646,-6.18847 -2.00195,-7.32422 0.18989,-0.3399 1.35543,-0.45874 2.79297,-0.41992 z m -28.16016,2.79102 c 7.80801,0.0141 15.84192,4.70998 19.21484,11.23242 2.00062,3.8688 1.45742,4.93748 -4.18164,8.24219 -6.33237,3.711 -15.20661,4.41752 -21.04492,1.67578 -4.21051,-1.9773 -12.39844,-9.68359 -12.39844,-11.66992 0,-3.78728 11.0815,-9.49559 18.41016,-9.48047 z m 112.31641,52.88672 c 2.22773,0.081 4.13583,2.24914 8.25586,6.84375 8.21883,9.16558 8.41167,8.26587 -3.24024,15.17968 l -10.24219,6.07813 5.59571,0.002 c 3.07797,0.002 9.68234,0.29392 14.67578,0.64844 l 9.08008,0.64453 3.47851,7.60352 c 1.91422,4.18197 3.26703,7.94877 3.00586,8.37109 -0.26101,0.42229 -3.80851,2.71934 -7.88477,5.10547 l -7.4121,4.33984 9.57226,0.57032 c 5.26469,0.31406 9.74292,0.74096 9.95117,0.94921 0.99171,0.99171 3.45276,13.25736 4.36914,21.77539 2.40926,22.39469 -3.66529,44.06901 -17.13867,61.1504 -5.57476,7.06755 -7.19524,8.41732 -14.29297,11.90039 -4.46392,2.19053 -7.43005,2.94474 -11.58398,2.94531 -3.07087,4.5e-4 -5.83051,-0.24886 -6.13477,-0.55274 -0.30406,-0.3041 0.0706,-2.62747 0.83399,-5.16406 0.76327,-2.53659 1.22778,-4.77417 1.03125,-4.9707 -0.19665,-0.19661 -1.43509,1.23928 -2.75196,3.1914 -1.43013,2.12009 -4.53036,4.60353 -7.69726,6.16602 -4.78738,2.36194 -5.6822,2.50117 -9.23242,1.4375 -6.55835,-1.96494 -6.85028,-4.15105 -1.59375,-11.92773 5.34115,-7.9019 8.57718,-14.72579 8.60742,-18.15235 l 0.0215,-2.47265 -1.70898,2.47265 c -3.5449,5.12837 -3.91151,5.24475 -8.00391,2.54492 -7.36811,-4.86088 -9.28711,-7.33638 -9.28711,-11.98437 0,-3.72779 3.28829,-5.33008 13.5,-6.58008 18.92599,-2.31677 25.60856,-9.69146 24.03125,-26.52344 -0.91283,-9.74146 -2.09858,-11.00308 -2.84375,-3.02343 -1.15109,12.32692 -6.73034,19.6981 -16.05273,21.21093 -3.44092,0.55835 -3.71255,0.40038 -4.82422,-2.79101 -5.99187,-17.20143 -18.74904,-32.67854 -32.81055,-39.81055 -12.38683,-6.28259 -18.23498,-7.57559 -34,-7.51172 -13.584,0.055 -15.01441,0.24886 -22.66406,3.07617 -10.92181,4.0368 -18.35214,8.62265 -25.83398,15.94336 -6.55964,6.41836 -11.92603,14.9849 -15.61133,24.92188 -1.22385,3.30002 -2.52647,6.35648 -2.89649,6.79101 -1.08525,1.27435 -10.17305,-1.17859 -14.21484,-3.83593 -4.78692,-3.14725 -6.51901,-6.61452 -7.97266,-15.96485 -1.3734,-8.834 -2.45797,-8.08421 -3.42968,2.3711 -1.45161,15.61878 5.66031,22.9854 24.23242,25.0957 8.63807,0.98154 11.13478,1.82421 13.36523,4.51172 2.28911,2.75818 -1.35682,8.92713 -7.80468,13.20703 l -5.52149,3.66406 -2.83789,-3.39844 -2.83789,-3.40039 1.59375,5.48047 c 0.87711,3.01357 3.84431,8.93182 6.5918,13.15235 5.59699,8.59767 5.54964,10.68667 -0.28516,12.7207 h -0.002 c -3.93347,1.37121 -4.4308,1.3494 -9.3711,-0.39844 -3.79275,-1.34181 -7.73106,-4.795 -8.75781,-7.67969 -0.99262,-2.78823 -1.65846,-0.0114 -0.75391,3.14258 0.52479,1.82941 0.71523,3.71191 0.42383,4.1836 -0.29151,0.47168 -3.09065,0.85787 -6.2207,0.85742 -6.81793,-9.5e-4 -17.10363,-4.40347 -21.51563,-9.20899 -19.50285,-21.2423 -26.09044,-46.91597 -20.14453,-78.5039 2.12247,-11.27562 2.00266,-11.16514 12.53711,-11.5 l 9.03907,-0.28711 -7.55079,-4.47266 c -6.31086,-3.73761 -7.45071,-4.80465 -6.94531,-6.5 0.64006,-2.14726 6.25377,-13.67876 7.07227,-14.52734 0.26524,-0.27504 6.63363,-0.72485 14.15039,-1 l 13.66601,-0.5 -9.42383,-5.52149 c -5.18311,-3.03696 -9.58024,-5.99094 -9.77148,-6.56445 -0.19117,-0.57354 2.04018,-3.67101 4.95898,-6.88281 l 5.30665,-5.83985 6.12695,4.18164 c 8.51951,5.81534 27.0382,14.37898 37.97461,17.56055 24.63401,7.16652 49.20274,8.48552 76.03515,4.08203 25.17079,-4.13076 46.5981,-12.25618 63.44141,-24.05859 4.00576,-2.80691 6.23415,-4.39036 8.12695,-4.55273 0.1521,-0.0131 0.30266,-0.0171 0.45118,-0.0117 z m 81.77343,35.60742 10,0.004 c 8.66892,0.004 10.65904,0.33634 14.94922,2.5 12.70632,6.40827 15.46421,21.20905 4.78321,25.67188 -4.11935,1.72116 -9.51299,0.67589 -14.38672,-2.78906 -5.05678,-3.59509 -15.77681,-1.67246 -22.20118,3.98047 -5.75852,5.06702 -7.66791,15.76838 -5.11132,28.65234 2.48012,12.49863 1.65318,22.63068 -2.54493,31.1582 -3.34681,6.79835 -12.06094,16.56914 -18.01562,20.19922 -1.90934,1.16391 -3.9391,2.11714 -4.50977,2.11914 -1.18488,0.004 -10.46289,-9.16283 -10.46289,-10.33789 0,-0.42508 1.97768,-4.92083 4.39453,-9.99023 7.28939,-15.28986 7.84483,-17.90233 8.17969,-38.48828 0.16392,-10.076 0.60472,-19.71222 0.97852,-21.41407 1.00717,-4.58562 5.99046,-14.83918 8.86328,-18.23632 l 2.51367,-2.97266 3.04102,2.91601 c 3.93558,3.77069 5.4886,2.52533 4.16992,-3.34375 -0.9391,-4.17966 -0.93161,-4.1933 2.91992,-6.1582 2.12341,-1.08329 4.06217,-1.9707 4.30859,-1.9707 0.24639,0 1.72608,2.02402 3.28907,4.49804 3.84272,6.08247 5.33494,5.86213 5.06054,-0.74804 z m -173.5,20.05859 c 10.93316,0.0501 13.41641,0.38991 19.80664,2.70899 16.7215,6.06825 27.86124,15.72319 35.59571,30.85546 4.8051,9.40101 5.42998,11.70182 3.34765,12.29883 -8.23903,2.36232 -10.90306,3.9597 -12.79687,7.67188 l -1.99219,3.9082 -36.23047,0.004 c -19.92631,0.003 -40.50546,0.28894 -45.73047,0.63476 l -9.5,0.62891 -1.88476,-4.27734 c -1.54772,-3.51077 -2.76647,-4.65019 -6.80274,-6.35547 -5.88854,-2.48788 -5.87962,-2.91126 0.36914,-15.45899 7.30103,-14.6606 19.07816,-24.49059 36.31836,-30.3125 5.93545,-2.00424 8.901,-2.35539 19.5,-2.30664 z m 43.54688,63.44141 1.94531,3.61328 c 1.0704,1.98762 4.12537,5.52141 6.78906,7.85156 l 4.84375,4.23633 -2.11914,4.0625 c -2.36541,4.53815 -1.59258,4.31274 -21.50586,6.29102 -14.53319,1.44378 -59.19731,1.97105 -71.97461,0.84961 -15.15341,-1.3301 -16.53289,-1.79785 -19.84179,-6.71876 l -2.81836,-4.1914 5.94922,-5.74805 c 3.27201,-3.16104 6.11539,-6.27658 6.31836,-6.92383 0.65348,-2.08531 22.11785,-3.31458 57.89062,-3.31836 z m -7.46875,1 c -1.05782,0 -3.24059,1.107 -4.84961,2.46094 -2.34418,1.97253 -3.63714,2.34599 -6.50391,1.88086 -2.95513,-0.47955 -4.02478,-0.13151 -6.15039,1.99414 -3.20772,3.20783 -3.24184,5.08628 -0.14648,8.18164 1.33512,1.33511 3.23332,3.79019 4.21679,5.45507 2.19164,3.71014 6.30971,4.07315 9.54102,0.8418 1.61873,-1.61885 3.19918,-2.12434 6.10352,-1.95312 5.21896,0.30795 8.71093,-2.02149 8.71093,-5.8125 0,-2.81492 -2.17544,-6.04883 -4.07031,-6.04883 -0.51069,0 -0.92969,-0.67501 -0.92969,-1.5 0,-2.12213 -3.63643,-5.5 -5.92187,-5.5 z m -73.62891,3.04883 c -0.83688,-3.7e-4 -1.85352,0.0694 -3.16015,0.17773 -4.55188,0.37746 -6.07147,0.98369 -7.95704,3.17578 -1.28182,1.49019 -2.33203,3.52243 -2.33203,4.51758 0,2.80906 3.7919,6.95594 7.31446,8 1.7529,0.5184 4.08555,0.75556 5.18554,0.52539 1.1,-0.23017 2.50273,-0.42408 3.11524,-0.43164 2.05776,-0.0252 6.38476,-5.26205 6.38476,-7.72656 0,-1.38611 -1.31451,-3.75592 -3.04297,-5.48438 -2.12037,-2.12048 -2.99717,-2.7528 -5.50781,-2.7539 z m 18.38672,1.03515 c -2.40931,0.0231 -3.51896,0.6214 -5.63086,2.39844 -4.00713,3.37175 -4.17782,6.89243 -0.51758,10.71289 2.27687,2.37653 3.49076,2.80469 7.94532,2.80469 6.78103,0 10.73037,-2.98245 10.58789,-7.99414 -0.13788,-4.84978 -3.05183,-7.24422 -9.45704,-7.77539 -1.17673,-0.0976 -2.12463,-0.15418 -2.92773,-0.14649 z m 55.14063,0.24024 c 1.29222,0.0138 2.10274,1.00649 1.83789,2.86328 -0.23524,1.64927 0.31267,2.35293 2.18554,2.80273 1.60936,0.38653 2.5,1.29622 2.5,2.55469 0,1.65453 -0.73448,1.97015 -4.77929,2.04688 -3.6533,0.0695 -5.42021,0.68772 -7.5,2.625 -3.3077,3.08098 -5.22071,2.60354 -5.22071,-1.30079 0,-2.44444 -0.40478,-2.91601 -2.5,-2.91601 -2.02367,0 -2.5,-0.49375 -2.5,-2.5918 0,-2.48394 0.2063,-2.57768 4.91797,-2.25 4.07804,0.28362 5.34608,-0.0638 7.44727,-2.03516 1.3095,-1.22856 2.60626,-1.8096 3.61133,-1.79882 z m -75.61329,2.67578 c 5.61479,0 8.40472,4.08943 5.06641,7.42773 -2.18982,2.18971 -8.69957,2.03575 -10.77344,-0.25586 -3.54829,-3.9208 -0.96198,-7.17187 5.70703,-7.17187 z m 23.15039,0.8789 c 1.95486,0.0442 3.7888,0.56615 4.91602,1.69336 2.05848,2.05845 1.98165,3.0164 -0.42969,5.42774 -3.48238,3.48238 -13,1.66377 -13,-2.48438 0,-2.6177 3.90352,-4.45585 7.66993,-4.62695 0.28243,-0.0128 0.56452,-0.0153 0.84374,-0.01 z m -177.90039,1.11914 c 5.07617,0 16.38868,3.3558 16.38868,4.86133 0,0.39421 -0.90001,2.48114 -2,4.63867 -1.1,2.15759 -1.98362,5.28975 -1.96094,6.96094 l 0.0391,3.03906 1.3418,-3.08398 c 1.82411,-4.18942 6.18301,-7.41602 10.01953,-7.41602 5.55674,0 14.31958,8.32757 20.78125,19.75 1.63347,2.88749 3.38076,4.99503 3.88477,4.6836 0.50394,-0.31151 5.25054,-5.03211 10.54687,-10.49024 l 9.62891,-9.92382 5.79687,6.32617 c 8.97611,9.79585 22.38342,14.84304 33.71875,12.69336 3.38971,-0.64127 6.10083,-0.64625 7.76953,-0.0117 1.40973,0.53597 4.49012,0.97461 6.84571,0.97461 h 4.2832 l 2.29101,9.25 c 2.865,11.56951 7.69479,27.25746 12.37305,40.18945 1.9776,5.46648 3.38673,10.1488 3.13086,10.4043 -0.58806,0.58809 -27.04058,-2.4391 -43.49219,-4.97656 -6.87503,-1.06039 -19.81247,-2.20515 -28.75,-2.54493 l -16.25,-0.61914 -0.0996,-8.10156 c -0.13836,-11.24474 -1.29557,-15.02246 -2.23046,-7.27734 -0.38665,3.20307 -1.38045,7.47806 -2.20704,9.5 -1.8472,4.51861 -9.13586,11.35501 -15.27343,14.32617 v -0.002 c -11.77788,5.70153 -22.47146,2.5161 -34.86329,-10.38868 -13.2049,-13.75162 -27.32421,-42.13208 -27.32421,-54.91992 0,-6.002 3.34721,-15.05599 4.88476,-13.21094 0.39829,0.47796 1.98183,2.58693 3.51953,4.68555 1.5377,2.09862 2.95329,3.65804 3.14453,3.4668 0.1914,-0.19136 -0.14216,-2.2747 -0.74023,-4.63086 -2.48995,-9.80969 4.3133,-18.15234 14.80273,-18.15235 z m 385.58008,0.0469 c 2.83566,0.0357 4.21289,0.62003 6.78516,2.32227 5.14053,3.40191 6.85133,8.54153 5.3125,15.96093 -0.58999,2.84478 -0.91459,5.34291 -0.7207,5.55078 0.19404,0.20803 1.78769,-1.92945 3.54101,-4.75 1.75336,-2.82051 3.49094,-5.1289 3.86133,-5.1289 0.37032,0 1.65409,1.96164 2.85156,4.35937 3.096,6.19911 2.84623,12.71787 -0.85937,22.42188 -10.2556,26.85672 -26.10215,48.1343 -39.61328,53.18945 -9.6872,3.62445 -17.52911,1.912 -27.72461,-6.05078 -6.06943,-4.74028 -8.80276,-9.68876 -10.17579,-18.41992 l -0.7871,-5 -0.84961,5 c -0.46753,2.74998 -0.59414,7.29519 -0.2793,10.10156 l 0.57227,5.10352 -19.30274,0.62304 c -12.03919,0.38843 -25.51398,1.53381 -35.80469,3.04492 -9.07498,1.33267 -16.76682,2.26131 -17.09375,2.0625 -0.327,-0.19863 0.67537,-5.50695 2.22657,-11.79492 2.94791,-11.9498 7.86718,-38.98166 7.86718,-43.22656 0,-3.54864 3.75245,-4.72761 10.91016,-3.42969 11.57053,2.09813 24.71473,-2.66195 33.75781,-12.22461 l 5.16602,-5.46289 9.81445,9.85157 c 5.39811,5.41844 10.15087,9.85156 10.5625,9.85156 0.41167,0 1.68844,-1.84057 2.83594,-4.08985 5.65863,-11.09189 15.52938,-20.91015 21.02148,-20.91015 3.06936,0 8.63998,4.14788 9.96289,7.41797 0.69154,1.70978 0.8541,1.43626 0.90625,-1.53321 0.0382,-2.1809 -0.73096,-4.62432 -1.9375,-6.1582 -1.09999,-1.39842 -1.99809,-2.92156 -1.99609,-3.38476 0.007,-1.6328 9.57224,-4.76797 15.76953,-5.16993 1.36758,-0.0887 2.4747,-0.13885 3.41992,-0.12695 z m -3.58008,18.9668 c -2.44302,-0.0586 -5.91035,2.98857 -7.54492,7.30273 -1.43108,3.77703 -1.35445,10.99901 0.13281,12.48633 0.65999,0.66002 1.70705,1.19922 2.32618,1.19922 1.3542,0 4.77115,-3.62207 6.40625,-6.79102 1.33323,-2.58387 1.7805,-11.24445 0.67383,-13.03515 -0.48078,-0.77792 -1.1798,-1.14258 -1.99415,-1.16211 z m -381.33398,0.26172 c -0.6439,0.0483 -1.26284,0.2981 -1.82617,0.76562 -3.27115,2.7148 -0.25222,16.23836 4.20312,18.82813 2.65384,1.54257 3.11341,1.41467 4.9336,-1.36329 1.91395,-2.921 1.32107,-7.79872 -1.65625,-13.63476 -1.56572,-3.06907 -3.72261,-4.74074 -5.6543,-4.5957 z m 380.82422,1.93554 c 1.6104,0.26578 1.00399,6.9395 -1.19141,11.47461 v 0.002 c -2.77107,5.72293 -4.91211,5.70774 -4.91211,-0.0371 0,-4.38206 3.10218,-10.5349 5.75,-11.4043 0.12725,-0.0418 0.24616,-0.0529 0.35352,-0.0352 z m -380.45117,0.83985 c 1.64268,-0.0739 5.43878,8.19579 5.13086,11.375 -0.68395,7.06125 -6.18947,1.48476 -6.24805,-6.32813 -0.0189,-2.52809 0.41485,-4.7835 0.96484,-5.01367 0.0483,-0.0202 0.0994,-0.0308 0.15235,-0.0332 z m 355.67968,0.95117 c -4.10759,0 -6.63553,11.45144 -3.83203,17.35937 1.37329,2.89399 2.29699,3.64063 4.49414,3.64063 2.76129,0 3.6992,-1.30931 5.47071,-7.63477 1.44997,-5.17735 -2.30744,-13.36523 -6.13282,-13.36523 z m -332.08984,0.23633 c -1.50427,-0.0688 -3.01194,0.96436 -4.08984,3.33007 -1.67743,3.6816 -1.44129,12.57597 0.40429,15.21094 0.90119,1.28659 2.60881,2.22266 4.05274,2.22266 3.42017,0 5.77663,-5.64497 5.13672,-12.30469 -0.49666,-5.16888 -2.99679,-8.3444 -5.50391,-8.45898 z m 332.01758,1.36328 1.86914,2.31054 c 2.13131,2.63207 2.47397,8.67357 0.71094,12.54297 -1.33055,2.92029 -2.10185,3.14011 -3.80664,1.08594 -2.1453,-2.58493 -2.40423,-8.92031 -0.51368,-12.57617 z m -332.57031,0.69726 c 0.3986,-0.0159 0.84068,0.37586 1.6289,1.16407 1.92431,1.9243 2.32966,10.46041 0.64649,13.60546 -0.56935,1.06383 -1.45355,1.9336 -1.96485,1.9336 -2.88907,0 -4.19563,-11.98184 -1.68164,-15.41992 0.61737,-0.84435 0.97249,-1.26729 1.3711,-1.28321 z m 222.18164,2.33008 c 1.64955,-0.0749 2.4057,0.19949 3.07031,0.78711 0.85757,0.75825 3.35861,2.21726 5.55859,3.24219 3.67503,1.71182 3.97601,2.14726 3.69141,5.35351 -1.01386,11.42121 -9.09399,50.59767 -11.10742,53.85547 -0.46443,0.75145 -4.45906,1.66272 -9.6875,2.21094 -10.9906,1.15249 -71.8958,1.9833 -79.32227,1.08203 l -5.42773,-0.6582 -2.88282,-7 c -7.79152,-18.92232 -17.88228,-54.78174 -15.95703,-56.70703 0.63965,-0.63969 2.84051,-0.61126 6.33789,0.0801 26.23525,5.18544 67.3448,4.7889 97.29688,-0.9375 4.23717,-0.81003 6.78013,-1.23373 8.42969,-1.30859 z m 150.16211,1.37305 c -4.53865,0 -9.63904,12.65033 -7.42578,18.41797 1.22039,3.18047 5.16757,1.82672 7.77734,-2.66797 4.51086,-7.76882 4.3321,-15.75 -0.35156,-15.75 z m -411.40235,0.041 c -1.07899,0.07 -2.05855,0.80568 -2.78515,2.40039 -1.37364,3.01486 1.18276,11.82354 4.45507,15.34961 3.13369,3.37671 6.1198,2.55847 6.53321,-1.79101 0.75688,-7.96338 -4.34958,-16.20892 -8.20313,-15.95899 z m 0.38672,1.95899 c 1.2141,0 5.98242,10.07208 5.98242,12.63672 0,3.38804 -1.59644,3.69101 -3.91601,0.74218 -3.58163,-4.55331 -4.94493,-13.3789 -2.06641,-13.3789 z m 410.96875,0 c 1.72698,0 1.11877,6.87693 -0.9707,10.97265 -2.35325,4.61273 -3.80488,5.73647 -4.63086,3.58399 -1.33478,-3.47834 2.92807,-14.55664 5.60156,-14.55664 z m -27.16406,20.95898 c -7.59557,0.0854 -15.75259,9.85046 -15.79883,20.70899 -0.0286,6.73572 0.65065,8.29109 4.29688,9.82422 7.79459,3.27738 17.67958,-5.90708 19.33203,-17.96289 0.69241,-5.05187 -0.92233,-10.06967 -3.72266,-11.56836 -1.31292,-0.70266 -2.70083,-1.01777 -4.10742,-1.00196 z m -355.96094,0.12696 c -3.92346,-0.13543 -7.32414,2.19306 -8.39062,7.04882 -1.8288,8.32645 6.29385,22.30188 14.02929,24.13672 10.23787,2.42846 13.64929,-11.15562 5.88867,-23.44922 -3.15731,-5.00156 -7.60388,-7.6009 -11.52734,-7.73632 z m -0.85547,1.9121 c 0.17414,-0.005 0.34887,-0.002 0.52539,0.01 7.6258,0.51923 17.27492,17.11309 11.91211,24.76953 -3.89061,5.55462 -12.7531,0.35502 -16.50976,-9.68554 -2.24194,-5.99207 -1.99704,-10.88578 0.67773,-13.56055 1.01955,-1.01955 2.17558,-1.49471 3.39453,-1.53321 z m 356.99414,0.002 c 3.6443,0 5,2.30133 5,8.48437 0,6.96405 -4.18123,13.98018 -10.19922,17.11133 -3.39363,1.76587 -3.8558,1.75443 -6.57812,-0.15234 -2.83525,-1.98588 -3.00578,-9.12148 -0.35742,-14.95117 2.43477,-5.35945 8.37062,-10.49219 12.13476,-10.49219 z M 497.22656,735.6543 c 7.04487,-0.007 15.36784,0.26865 20.83789,0.83008 v 0.002 c 5.06404,0.51976 1.24534,0.76123 -13.80859,0.875 -13.65706,0.10325 -20.59703,-0.18744 -20.19141,-0.84375 0.35048,-0.56755 6.11725,-0.85631 13.16211,-0.86328 z m 255.28516,0.002 c 8.30137,0.006 15.20303,0.29551 15.55273,0.86133 0.40645,0.65764 -7.53113,0.94605 -23.18945,0.83984 -16.64769,-0.11304 -21.55464,-0.37436 -16.31055,-0.86914 5.94486,-0.56126 15.6459,-0.83845 23.94727,-0.83203 z"
           transform="scale(0.26458333)"
           sodipodi:nodetypes="csssscccccsccccssssssssssccsssssssssssssscscssssssssssssccscccsssssscccssssscsssssssssscccscccsccssssccccsssccccccccsssssccsssssscssccccsssssssscssssssscsccccscsssscsccccsssssssssssccsssssscssssssssscccsssssccsscscccssssssssssccssscssscsscsssscsscccsccscccssssscsssssscccsssssssssssssssssscccccsccsccsssscccsscccscccssssssccssssssscsssscccssssccscscccccccsscsscccccssscccccssssssscsssssssscscsssssssssssssscssssssssssscssssccssscccsssccscssccscsccsssccssssssssssssssssssccccccscsssscssssssssssssssssssssssssccsssscssscsssssssssssccssccsssssssscssscccscsssssssssssssssssssssssssssssssccsssccsssssssccscsscsscc" />
      </g>
    </g>
  </g>
</svg>
