<?xml version="1.0" encoding="UTF-8" standalone="no"?>
<svg
   width="123px"
   height="20px"
   viewBox="0 0 123 20"
   version="1.1"
   id="svg29665"
   sodipodi:docname="servers.svg"
   inkscape:version="1.1 (c68e22c387, 2021-05-23)"
   xmlns:inkscape="http://www.inkscape.org/namespaces/inkscape"
   xmlns:sodipodi="http://sodipodi.sourceforge.net/DTD/sodipodi-0.dtd"
   xmlns="http://www.w3.org/2000/svg"
   xmlns:svg="http://www.w3.org/2000/svg">
  <defs
     id="defs29669" />
  <sodipodi:namedview
     id="namedview29667"
     pagecolor="#ffffff"
     bordercolor="#666666"
     borderopacity="1.0"
     inkscape:pageshadow="2"
     inkscape:pageopacity="0.0"
     inkscape:pagecheckerboard="0"
     showgrid="false"
     inkscape:zoom="8.601626"
     inkscape:cx="61.5"
     inkscape:cy="10.056238"
     inkscape:window-width="1920"
     inkscape:window-height="1017"
     inkscape:window-x="-8"
     inkscape:window-y="-8"
     inkscape:window-maximized="1"
     inkscape:current-layer="surface1" />
  <g
     id="surface1">
    <path
       style=" stroke:none;fill-rule:nonzero;fill:rgb(13.72549%,15.294118%,16.470588%);fill-opacity:1;"
       d="M 4 0 L 20 0 L 20 20 L 4 20 C 1.332031 20 0 18.667969 0 16 L 0 4 C 0 1.332031 1.332031 0 4 0 Z M 4 0 "
       id="path29652" />
    <path
       style=" stroke:none;fill-rule:nonzero;fill:rgb(20.784314%,21.960784%,23.921569%);fill-opacity:1;"
       d="M 19 0 L 66 0 L 66 20 L 19 20 Z M 19 0 "
       id="path29654" />
    <path
       style="stroke:none;fill-rule:nonzero;fill:#808080;fill-opacity:1"
       d="M 65 0 L 119 0 C 121.667969 0 123 1.332031 123 4 L 123 16 C 123 18.667969 121.667969 20 119 20 L 65 20 Z M 65 0 "
       id="path29656" />
    <path
       style=" stroke:none;fill-rule:nonzero;fill:rgb(20.784314%,21.960784%,23.921569%);fill-opacity:1;"
       d="M 4 0 L 20 0 L 20 20 L 4 20 C 1.332031 20 0 18.667969 0 16 L 0 4 C 0 1.332031 1.332031 0 4 0 Z M 4 0 "
       id="path29658" />
    <path
       style=" stroke:none;fill-rule:nonzero;fill:rgb(78.823529%,78.823529%,78.823529%);fill-opacity:1;"
       d="M 18.261719 9.046875 C 18.21875 9.109375 18.175781 9.15625 18.136719 9.1875 C 18.09375 9.210938 18.035156 9.21875 17.964844 9.21875 C 17.902344 9.21875 17.828125 9.199219 17.746094 9.15625 C 17.660156 9.117188 17.5625 9.074219 17.449219 9.03125 C 17.34375 8.980469 17.222656 8.933594 17.089844 8.890625 C 16.953125 8.851562 16.785156 8.828125 16.589844 8.828125 C 16.296875 8.828125 16.066406 8.890625 15.902344 9.015625 C 15.746094 9.140625 15.667969 9.304688 15.667969 9.5 C 15.667969 9.636719 15.707031 9.75 15.792969 9.84375 C 15.875 9.929688 15.984375 10.007812 16.121094 10.078125 C 16.265625 10.140625 16.425781 10.199219 16.605469 10.25 C 16.792969 10.304688 16.980469 10.367188 17.167969 10.4375 C 17.355469 10.5 17.535156 10.574219 17.714844 10.65625 C 17.890625 10.730469 18.046875 10.835938 18.183594 10.96875 C 18.328125 11.09375 18.441406 11.246094 18.527344 11.421875 C 18.621094 11.589844 18.667969 11.796875 18.667969 12.046875 C 18.667969 12.351562 18.613281 12.625 18.511719 12.875 C 18.40625 13.125 18.25 13.34375 18.042969 13.53125 C 17.832031 13.710938 17.574219 13.851562 17.261719 13.953125 C 16.957031 14.046875 16.609375 14.09375 16.214844 14.09375 C 15.996094 14.09375 15.78125 14.070312 15.574219 14.03125 C 15.375 14 15.183594 13.953125 14.996094 13.890625 C 14.816406 13.820312 14.644531 13.734375 14.480469 13.640625 C 14.324219 13.546875 14.1875 13.449219 14.074219 13.34375 L 14.417969 12.78125 C 14.457031 12.710938 14.503906 12.65625 14.558594 12.625 C 14.621094 12.585938 14.699219 12.5625 14.792969 12.5625 C 14.886719 12.5625 14.972656 12.589844 15.058594 12.640625 C 15.140625 12.695312 15.234375 12.75 15.339844 12.8125 C 15.453125 12.875 15.582031 12.933594 15.730469 12.984375 C 15.875 13.039062 16.058594 13.0625 16.277344 13.0625 C 16.453125 13.0625 16.605469 13.042969 16.730469 13 C 16.855469 12.960938 16.957031 12.90625 17.042969 12.84375 C 17.125 12.773438 17.183594 12.6875 17.214844 12.59375 C 17.253906 12.5 17.277344 12.40625 17.277344 12.3125 C 17.277344 12.167969 17.234375 12.054688 17.152344 11.96875 C 17.066406 11.875 16.953125 11.796875 16.808594 11.734375 C 16.660156 11.664062 16.5 11.601562 16.324219 11.546875 C 16.144531 11.484375 15.957031 11.421875 15.761719 11.359375 C 15.574219 11.296875 15.386719 11.226562 15.199219 11.140625 C 15.019531 11.046875 14.859375 10.9375 14.714844 10.8125 C 14.578125 10.679688 14.464844 10.515625 14.371094 10.328125 C 14.285156 10.132812 14.246094 9.898438 14.246094 9.625 C 14.246094 9.375 14.296875 9.136719 14.402344 8.90625 C 14.503906 8.679688 14.652344 8.480469 14.839844 8.3125 C 15.035156 8.136719 15.277344 8 15.558594 7.90625 C 15.847656 7.804688 16.1875 7.75 16.574219 7.75 C 17 7.75 17.386719 7.824219 17.730469 7.96875 C 18.074219 8.105469 18.363281 8.289062 18.605469 8.515625 Z M 23.753906 10.21875 C 23.753906 10.023438 23.722656 9.839844 23.660156 9.671875 C 23.605469 9.507812 23.527344 9.359375 23.425781 9.234375 C 23.320312 9.101562 23.183594 8.996094 23.019531 8.921875 C 22.851562 8.851562 22.660156 8.8125 22.441406 8.8125 C 22.003906 8.8125 21.660156 8.9375 21.410156 9.1875 C 21.167969 9.429688 21.019531 9.773438 20.957031 10.21875 Z M 20.925781 11.109375 C 20.945312 11.421875 20.996094 11.695312 21.082031 11.921875 C 21.175781 12.152344 21.292969 12.34375 21.441406 12.5 C 21.585938 12.648438 21.757812 12.757812 21.957031 12.828125 C 22.152344 12.902344 22.371094 12.9375 22.613281 12.9375 C 22.851562 12.9375 23.054688 12.914062 23.222656 12.859375 C 23.398438 12.808594 23.550781 12.75 23.675781 12.6875 C 23.808594 12.617188 23.925781 12.554688 24.019531 12.5 C 24.121094 12.4375 24.222656 12.40625 24.316406 12.40625 C 24.441406 12.40625 24.527344 12.453125 24.582031 12.546875 L 25.019531 13.078125 C 24.851562 13.277344 24.664062 13.445312 24.457031 13.578125 C 24.257812 13.703125 24.042969 13.808594 23.816406 13.890625 C 23.597656 13.964844 23.371094 14.015625 23.144531 14.046875 C 22.914062 14.078125 22.691406 14.09375 22.472656 14.09375 C 22.042969 14.09375 21.648438 14.019531 21.285156 13.875 C 20.917969 13.730469 20.597656 13.523438 20.316406 13.25 C 20.042969 12.96875 19.832031 12.625 19.675781 12.21875 C 19.519531 11.804688 19.441406 11.328125 19.441406 10.796875 C 19.441406 10.371094 19.507812 9.976562 19.644531 9.609375 C 19.777344 9.234375 19.972656 8.914062 20.222656 8.640625 C 20.480469 8.371094 20.792969 8.15625 21.160156 8 C 21.523438 7.835938 21.941406 7.75 22.410156 7.75 C 22.792969 7.75 23.148438 7.8125 23.472656 7.9375 C 23.804688 8.0625 24.085938 8.246094 24.316406 8.484375 C 24.554688 8.714844 24.742188 9.007812 24.878906 9.359375 C 25.011719 9.703125 25.082031 10.09375 25.082031 10.53125 C 25.082031 10.761719 25.054688 10.917969 25.003906 11 C 24.960938 11.074219 24.871094 11.109375 24.738281 11.109375 Z M 27.585938 8.90625 C 27.78125 8.542969 28.011719 8.257812 28.273438 8.046875 C 28.53125 7.839844 28.84375 7.734375 29.210938 7.734375 C 29.492188 7.734375 29.71875 7.796875 29.898438 7.921875 L 29.804688 9.03125 C 29.78125 9.105469 29.75 9.15625 29.710938 9.1875 C 29.667969 9.210938 29.617188 9.21875 29.554688 9.21875 C 29.5 9.21875 29.414062 9.210938 29.289062 9.1875 C 29.171875 9.167969 29.058594 9.15625 28.945312 9.15625 C 28.777344 9.15625 28.632812 9.183594 28.507812 9.234375 C 28.382812 9.289062 28.265625 9.359375 28.164062 9.453125 C 28.058594 9.539062 27.964844 9.648438 27.882812 9.78125 C 27.808594 9.90625 27.742188 10.046875 27.679688 10.203125 L 27.679688 14 L 26.195312 14 L 26.195312 7.84375 L 27.070312 7.84375 C 27.214844 7.84375 27.320312 7.871094 27.382812 7.921875 C 27.445312 7.976562 27.484375 8.074219 27.507812 8.21875 Z M 36.21875 7.84375 L 33.78125 14 L 32.4375 14 L 29.984375 7.84375 L 31.21875 7.84375 C 31.332031 7.84375 31.425781 7.871094 31.5 7.921875 C 31.570312 7.976562 31.617188 8.042969 31.640625 8.125 L 32.828125 11.40625 C 32.890625 11.605469 32.941406 11.796875 32.984375 11.984375 C 33.035156 12.164062 33.082031 12.34375 33.125 12.53125 C 33.164062 12.34375 33.207031 12.164062 33.25 11.984375 C 33.300781 11.796875 33.359375 11.605469 33.421875 11.40625 L 34.640625 8.125 C 34.671875 8.042969 34.722656 7.976562 34.796875 7.921875 C 34.867188 7.871094 34.953125 7.84375 35.046875 7.84375 Z M 40.78125 10.21875 C 40.78125 10.023438 40.75 9.839844 40.6875 9.671875 C 40.632812 9.507812 40.554688 9.359375 40.453125 9.234375 C 40.347656 9.101562 40.210938 8.996094 40.046875 8.921875 C 39.878906 8.851562 39.6875 8.8125 39.46875 8.8125 C 39.03125 8.8125 38.6875 8.9375 38.4375 9.1875 C 38.195312 9.429688 38.046875 9.773438 37.984375 10.21875 Z M 37.953125 11.109375 C 37.972656 11.421875 38.023438 11.695312 38.109375 11.921875 C 38.203125 12.152344 38.320312 12.34375 38.46875 12.5 C 38.613281 12.648438 38.785156 12.757812 38.984375 12.828125 C 39.179688 12.902344 39.398438 12.9375 39.640625 12.9375 C 39.878906 12.9375 40.082031 12.914062 40.25 12.859375 C 40.425781 12.808594 40.578125 12.75 40.703125 12.6875 C 40.835938 12.617188 40.953125 12.554688 41.046875 12.5 C 41.148438 12.4375 41.25 12.40625 41.34375 12.40625 C 41.46875 12.40625 41.554688 12.453125 41.609375 12.546875 L 42.046875 13.078125 C 41.878906 13.277344 41.691406 13.445312 41.484375 13.578125 C 41.285156 13.703125 41.070312 13.808594 40.84375 13.890625 C 40.625 13.964844 40.398438 14.015625 40.171875 14.046875 C 39.941406 14.078125 39.71875 14.09375 39.5 14.09375 C 39.070312 14.09375 38.675781 14.019531 38.3125 13.875 C 37.945312 13.730469 37.625 13.523438 37.34375 13.25 C 37.070312 12.96875 36.859375 12.625 36.703125 12.21875 C 36.546875 11.804688 36.46875 11.328125 36.46875 10.796875 C 36.46875 10.371094 36.535156 9.976562 36.671875 9.609375 C 36.804688 9.234375 37 8.914062 37.25 8.640625 C 37.507812 8.371094 37.820312 8.15625 38.1875 8 C 38.550781 7.835938 38.96875 7.75 39.4375 7.75 C 39.820312 7.75 40.175781 7.8125 40.5 7.9375 C 40.832031 8.0625 41.113281 8.246094 41.34375 8.484375 C 41.582031 8.714844 41.769531 9.007812 41.90625 9.359375 C 42.039062 9.703125 42.109375 10.09375 42.109375 10.53125 C 42.109375 10.761719 42.082031 10.917969 42.03125 11 C 41.988281 11.074219 41.898438 11.109375 41.765625 11.109375 Z M 44.613281 8.90625 C 44.808594 8.542969 45.039062 8.257812 45.300781 8.046875 C 45.558594 7.839844 45.871094 7.734375 46.238281 7.734375 C 46.519531 7.734375 46.746094 7.796875 46.925781 7.921875 L 46.832031 9.03125 C 46.808594 9.105469 46.777344 9.15625 46.738281 9.1875 C 46.695312 9.210938 46.644531 9.21875 46.582031 9.21875 C 46.527344 9.21875 46.441406 9.210938 46.316406 9.1875 C 46.199219 9.167969 46.085938 9.15625 45.972656 9.15625 C 45.804688 9.15625 45.660156 9.183594 45.535156 9.234375 C 45.410156 9.289062 45.292969 9.359375 45.191406 9.453125 C 45.085938 9.539062 44.992188 9.648438 44.910156 9.78125 C 44.835938 9.90625 44.769531 10.046875 44.707031 10.203125 L 44.707031 14 L 43.222656 14 L 43.222656 7.84375 L 44.097656 7.84375 C 44.242188 7.84375 44.347656 7.871094 44.410156 7.921875 C 44.472656 7.976562 44.511719 8.074219 44.535156 8.21875 Z M 51.429688 9.046875 C 51.386719 9.109375 51.34375 9.15625 51.304688 9.1875 C 51.261719 9.210938 51.203125 9.21875 51.132812 9.21875 C 51.070312 9.21875 50.996094 9.199219 50.914062 9.15625 C 50.828125 9.117188 50.730469 9.074219 50.617188 9.03125 C 50.511719 8.980469 50.390625 8.933594 50.257812 8.890625 C 50.121094 8.851562 49.953125 8.828125 49.757812 8.828125 C 49.464844 8.828125 49.234375 8.890625 49.070312 9.015625 C 48.914062 9.140625 48.835938 9.304688 48.835938 9.5 C 48.835938 9.636719 48.875 9.75 48.960938 9.84375 C 49.042969 9.929688 49.152344 10.007812 49.289062 10.078125 C 49.433594 10.140625 49.59375 10.199219 49.773438 10.25 C 49.960938 10.304688 50.148438 10.367188 50.335938 10.4375 C 50.523438 10.5 50.703125 10.574219 50.882812 10.65625 C 51.058594 10.730469 51.214844 10.835938 51.351562 10.96875 C 51.496094 11.09375 51.609375 11.246094 51.695312 11.421875 C 51.789062 11.589844 51.835938 11.796875 51.835938 12.046875 C 51.835938 12.351562 51.78125 12.625 51.679688 12.875 C 51.574219 13.125 51.417969 13.34375 51.210938 13.53125 C 51 13.710938 50.742188 13.851562 50.429688 13.953125 C 50.125 14.046875 49.777344 14.09375 49.382812 14.09375 C 49.164062 14.09375 48.949219 14.070312 48.742188 14.03125 C 48.542969 14 48.351562 13.953125 48.164062 13.890625 C 47.984375 13.820312 47.8125 13.734375 47.648438 13.640625 C 47.492188 13.546875 47.355469 13.449219 47.242188 13.34375 L 47.585938 12.78125 C 47.625 12.710938 47.671875 12.65625 47.726562 12.625 C 47.789062 12.585938 47.867188 12.5625 47.960938 12.5625 C 48.054688 12.5625 48.140625 12.589844 48.226562 12.640625 C 48.308594 12.695312 48.402344 12.75 48.507812 12.8125 C 48.621094 12.875 48.75 12.933594 48.898438 12.984375 C 49.042969 13.039062 49.226562 13.0625 49.445312 13.0625 C 49.621094 13.0625 49.773438 13.042969 49.898438 13 C 50.023438 12.960938 50.125 12.90625 50.210938 12.84375 C 50.292969 12.773438 50.351562 12.6875 50.382812 12.59375 C 50.421875 12.5 50.445312 12.40625 50.445312 12.3125 C 50.445312 12.167969 50.402344 12.054688 50.320312 11.96875 C 50.234375 11.875 50.121094 11.796875 49.976562 11.734375 C 49.828125 11.664062 49.667969 11.601562 49.492188 11.546875 C 49.3125 11.484375 49.125 11.421875 48.929688 11.359375 C 48.742188 11.296875 48.554688 11.226562 48.367188 11.140625 C 48.1875 11.046875 48.027344 10.9375 47.882812 10.8125 C 47.746094 10.679688 47.632812 10.515625 47.539062 10.328125 C 47.453125 10.132812 47.414062 9.898438 47.414062 9.625 C 47.414062 9.375 47.464844 9.136719 47.570312 8.90625 C 47.671875 8.679688 47.820312 8.480469 48.007812 8.3125 C 48.203125 8.136719 48.445312 8 48.726562 7.90625 C 49.015625 7.804688 49.355469 7.75 49.742188 7.75 C 50.167969 7.75 50.554688 7.824219 50.898438 7.96875 C 51.242188 8.105469 51.53125 8.289062 51.773438 8.515625 Z M 13.777344 2.15625 "
       id="path29660" />
    <text
       xml:space="preserve"
       style="font-style:normal;font-variant:normal;font-weight:normal;font-stretch:normal;font-size:13.3333px;line-height:1.25;font-family:Bahnschrift;-inkscape-font-specification:'Bahnschrift, Normal';font-variant-ligatures:normal;font-variant-caps:normal;font-variant-numeric:normal;font-variant-east-asian:normal;fill:#c7c7c7;fill-opacity:1;stroke:none"
       x="71.24334"
       y="13.930122"
       id="text12752"><tspan
         id="tspan12750"
         x="71.24334"
         y="13.930122"
         style="font-style:normal;font-variant:normal;font-weight:normal;font-stretch:normal;font-size:13.3333px;font-family:Bahnschrift;-inkscape-font-specification:'Bahnschrift, Normal';font-variant-ligatures:normal;font-variant-caps:normal;font-variant-numeric:normal;font-variant-east-asian:normal;fill:#c7c7c7;fill-opacity:1"
         sodipodi:role="line">unkown</tspan></text>
  </g>
</svg>
