<?xml version="1.0" encoding="UTF-8" standalone="no"?>
<svg
   width="123px"
   height="20px"
   viewBox="0 0 123 20"
   version="1.1"
   id="svg17"
   sodipodi:docname="serverCount.svg"
   inkscape:version="1.1 (c68e22c387, 2021-05-23)"
   xmlns:inkscape="http://www.inkscape.org/namespaces/inkscape"
   xmlns:sodipodi="http://sodipodi.sourceforge.net/DTD/sodipodi-0.dtd"
   xmlns="http://www.w3.org/2000/svg"
   xmlns:svg="http://www.w3.org/2000/svg">
  <defs
     id="defs21" />
  <sodipodi:namedview
     id="namedview19"
     pagecolor="#ffffff"
     bordercolor="#666666"
     borderopacity="1.0"
     inkscape:pageshadow="2"
     inkscape:pageopacity="0.0"
     inkscape:pagecheckerboard="0"
     showgrid="false"
     inkscape:zoom="7.847"
     inkscape:cx="94.430992"
     inkscape:cy="7.9648273"
     inkscape:window-width="1920"
     inkscape:window-height="1017"
     inkscape:window-x="-8"
     inkscape:window-y="-8"
     inkscape:window-maximized="1"
     inkscape:current-layer="surface1" />
  <g
     id="surface1">
    <path
       style=" stroke:none;fill-rule:nonzero;fill:rgb(13.72549%,15.294118%,16.470588%);fill-opacity:1;"
       d="M 4 0 L 20 0 L 20 20 L 4 20 C 1.332031 20 0 18.667969 0 16 L 0 4 C 0 1.332031 1.332031 0 4 0 Z M 4 0 "
       id="path2" />
    <path
       style=" stroke:none;fill-rule:nonzero;fill:rgb(20.784314%,21.960784%,23.921569%);fill-opacity:1;"
       d="M 19 0 L 66 0 L 66 20 L 19 20 Z M 19 0 "
       id="path4" />
    <path
       style=" stroke:none;fill-rule:nonzero;fill:rgb(22.745098%,24.313725%,25.882353%);fill-opacity:1;"
       d="M 65 0 L 119 0 C 121.667969 0 123 1.332031 123 4 L 123 16 C 123 18.667969 121.667969 20 119 20 L 65 20 Z M 65 0 "
       id="path6" />
    <path
       style=" stroke:none;fill-rule:nonzero;fill:rgb(20.784314%,21.960784%,23.921569%);fill-opacity:1;"
       d="M 4 0 L 20 0 L 20 20 L 4 20 C 1.332031 20 0 18.667969 0 16 L 0 4 C 0 1.332031 1.332031 0 4 0 Z M 4 0 "
       id="path8" />
    <path
       style=" stroke:none;fill-rule:nonzero;fill:rgb(78.823529%,78.823529%,78.823529%);fill-opacity:1;"
       d="M 21.359375 9.046875 C 21.316406 9.109375 21.273438 9.15625 21.234375 9.1875 C 21.191406 9.210938 21.132812 9.21875 21.0625 9.21875 C 21 9.21875 20.925781 9.199219 20.84375 9.15625 C 20.757812 9.117188 20.660156 9.074219 20.546875 9.03125 C 20.441406 8.980469 20.320312 8.933594 20.1875 8.890625 C 20.050781 8.851562 19.882812 8.828125 19.6875 8.828125 C 19.394531 8.828125 19.164062 8.890625 19 9.015625 C 18.84375 9.140625 18.765625 9.304688 18.765625 9.5 C 18.765625 9.636719 18.804688 9.75 18.890625 9.84375 C 18.972656 9.929688 19.082031 10.007812 19.21875 10.078125 C 19.363281 10.140625 19.523438 10.199219 19.703125 10.25 C 19.890625 10.304688 20.078125 10.367188 20.265625 10.4375 C 20.453125 10.5 20.632812 10.574219 20.8125 10.65625 C 20.988281 10.730469 21.144531 10.835938 21.28125 10.96875 C 21.425781 11.09375 21.539062 11.246094 21.625 11.421875 C 21.71875 11.589844 21.765625 11.796875 21.765625 12.046875 C 21.765625 12.351562 21.710938 12.625 21.609375 12.875 C 21.503906 13.125 21.347656 13.34375 21.140625 13.53125 C 20.929688 13.710938 20.671875 13.851562 20.359375 13.953125 C 20.054688 14.046875 19.707031 14.09375 19.3125 14.09375 C 19.09375 14.09375 18.878906 14.070312 18.671875 14.03125 C 18.472656 14 18.28125 13.953125 18.09375 13.890625 C 17.914062 13.820312 17.742188 13.734375 17.578125 13.640625 C 17.421875 13.546875 17.285156 13.449219 17.171875 13.34375 L 17.515625 12.78125 C 17.554688 12.710938 17.601562 12.65625 17.65625 12.625 C 17.71875 12.585938 17.796875 12.5625 17.890625 12.5625 C 17.984375 12.5625 18.070312 12.589844 18.15625 12.640625 C 18.238281 12.695312 18.332031 12.75 18.4375 12.8125 C 18.550781 12.875 18.679688 12.933594 18.828125 12.984375 C 18.972656 13.039062 19.15625 13.0625 19.375 13.0625 C 19.550781 13.0625 19.703125 13.042969 19.828125 13 C 19.953125 12.960938 20.054688 12.90625 20.140625 12.84375 C 20.222656 12.773438 20.28125 12.6875 20.3125 12.59375 C 20.351562 12.5 20.375 12.40625 20.375 12.3125 C 20.375 12.167969 20.332031 12.054688 20.25 11.96875 C 20.164062 11.875 20.050781 11.796875 19.90625 11.734375 C 19.757812 11.664062 19.597656 11.601562 19.421875 11.546875 C 19.242188 11.484375 19.054688 11.421875 18.859375 11.359375 C 18.671875 11.296875 18.484375 11.226562 18.296875 11.140625 C 18.117188 11.046875 17.957031 10.9375 17.8125 10.8125 C 17.675781 10.679688 17.5625 10.515625 17.46875 10.328125 C 17.382812 10.132812 17.34375 9.898438 17.34375 9.625 C 17.34375 9.375 17.394531 9.136719 17.5 8.90625 C 17.601562 8.679688 17.75 8.480469 17.9375 8.3125 C 18.132812 8.136719 18.375 8 18.65625 7.90625 C 18.945312 7.804688 19.285156 7.75 19.671875 7.75 C 20.097656 7.75 20.484375 7.824219 20.828125 7.96875 C 21.171875 8.105469 21.460938 8.289062 21.703125 8.515625 Z M 24.929688 14.09375 C 24.398438 14.09375 23.984375 13.945312 23.695312 13.640625 C 23.414062 13.339844 23.273438 12.921875 23.273438 12.390625 L 23.273438 8.953125 L 22.632812 8.953125 C 22.558594 8.953125 22.492188 8.929688 22.429688 8.875 C 22.375 8.824219 22.351562 8.746094 22.351562 8.640625 L 22.351562 8.046875 L 23.335938 7.890625 L 23.648438 6.21875 C 23.667969 6.136719 23.703125 6.074219 23.757812 6.03125 C 23.820312 5.980469 23.898438 5.953125 23.992188 5.953125 L 24.757812 5.953125 L 24.757812 7.890625 L 26.398438 7.890625 L 26.398438 8.953125 L 24.757812 8.953125 L 24.757812 12.296875 C 24.757812 12.484375 24.804688 12.636719 24.898438 12.75 C 24.992188 12.855469 25.117188 12.90625 25.273438 12.90625 C 25.367188 12.90625 25.445312 12.898438 25.507812 12.875 C 25.570312 12.855469 25.621094 12.835938 25.664062 12.8125 C 25.714844 12.78125 25.757812 12.757812 25.789062 12.734375 C 25.828125 12.714844 25.867188 12.703125 25.898438 12.703125 C 25.949219 12.703125 25.984375 12.714844 26.007812 12.734375 C 26.039062 12.757812 26.070312 12.789062 26.101562 12.828125 L 26.539062 13.546875 C 26.328125 13.726562 26.085938 13.859375 25.804688 13.953125 C 25.523438 14.046875 25.230469 14.09375 24.929688 14.09375 Z M 30.597656 11.375 C 30.167969 11.398438 29.808594 11.433594 29.519531 11.484375 C 29.226562 11.539062 28.992188 11.605469 28.816406 11.6875 C 28.636719 11.773438 28.507812 11.871094 28.425781 11.984375 C 28.351562 12.101562 28.316406 12.21875 28.316406 12.34375 C 28.316406 12.605469 28.394531 12.792969 28.550781 12.90625 C 28.707031 13.023438 28.910156 13.078125 29.160156 13.078125 C 29.460938 13.078125 29.722656 13.027344 29.941406 12.921875 C 30.167969 12.808594 30.386719 12.636719 30.597656 12.40625 Z M 27.207031 8.703125 C 27.914062 8.058594 28.761719 7.734375 29.753906 7.734375 C 30.117188 7.734375 30.441406 7.792969 30.722656 7.90625 C 31.003906 8.023438 31.242188 8.1875 31.441406 8.40625 C 31.636719 8.617188 31.789062 8.867188 31.894531 9.15625 C 31.996094 9.449219 32.050781 9.765625 32.050781 10.109375 L 32.050781 14 L 31.378906 14 C 31.230469 14 31.117188 13.980469 31.035156 13.9375 C 30.960938 13.898438 30.902344 13.8125 30.863281 13.6875 L 30.738281 13.234375 C 30.582031 13.382812 30.425781 13.507812 30.269531 13.609375 C 30.121094 13.714844 29.972656 13.804688 29.816406 13.875 C 29.660156 13.949219 29.488281 14 29.300781 14.03125 C 29.121094 14.070312 28.925781 14.09375 28.707031 14.09375 C 28.445312 14.09375 28.199219 14.0625 27.972656 14 C 27.753906 13.929688 27.566406 13.824219 27.410156 13.6875 C 27.253906 13.542969 27.128906 13.367188 27.035156 13.15625 C 26.949219 12.949219 26.910156 12.703125 26.910156 12.421875 C 26.910156 12.265625 26.933594 12.117188 26.988281 11.96875 C 27.039062 11.8125 27.121094 11.667969 27.238281 11.53125 C 27.351562 11.386719 27.503906 11.25 27.691406 11.125 C 27.886719 11 28.121094 10.890625 28.394531 10.796875 C 28.664062 10.703125 28.980469 10.632812 29.347656 10.578125 C 29.710938 10.515625 30.128906 10.480469 30.597656 10.46875 L 30.597656 10.109375 C 30.597656 9.703125 30.507812 9.402344 30.332031 9.203125 C 30.152344 9.007812 29.898438 8.90625 29.566406 8.90625 C 29.324219 8.90625 29.128906 8.933594 28.972656 8.984375 C 28.816406 9.039062 28.675781 9.101562 28.550781 9.171875 C 28.433594 9.246094 28.324219 9.3125 28.222656 9.375 C 28.128906 9.429688 28.023438 9.453125 27.910156 9.453125 C 27.804688 9.453125 27.714844 9.429688 27.644531 9.375 C 27.570312 9.3125 27.511719 9.246094 27.472656 9.171875 Z M 35.398438 14.09375 C 34.867188 14.09375 34.453125 13.945312 34.164062 13.640625 C 33.882812 13.339844 33.742188 12.921875 33.742188 12.390625 L 33.742188 8.953125 L 33.101562 8.953125 C 33.027344 8.953125 32.960938 8.929688 32.898438 8.875 C 32.84375 8.824219 32.820312 8.746094 32.820312 8.640625 L 32.820312 8.046875 L 33.804688 7.890625 L 34.117188 6.21875 C 34.136719 6.136719 34.171875 6.074219 34.226562 6.03125 C 34.289062 5.980469 34.367188 5.953125 34.460938 5.953125 L 35.226562 5.953125 L 35.226562 7.890625 L 36.867188 7.890625 L 36.867188 8.953125 L 35.226562 8.953125 L 35.226562 12.296875 C 35.226562 12.484375 35.273438 12.636719 35.367188 12.75 C 35.460938 12.855469 35.585938 12.90625 35.742188 12.90625 C 35.835938 12.90625 35.914062 12.898438 35.976562 12.875 C 36.039062 12.855469 36.089844 12.835938 36.132812 12.8125 C 36.183594 12.78125 36.226562 12.757812 36.257812 12.734375 C 36.296875 12.714844 36.335938 12.703125 36.367188 12.703125 C 36.417969 12.703125 36.453125 12.714844 36.476562 12.734375 C 36.507812 12.757812 36.539062 12.789062 36.570312 12.828125 L 37.007812 13.546875 C 36.796875 13.726562 36.554688 13.859375 36.273438 13.953125 C 35.992188 14.046875 35.699219 14.09375 35.398438 14.09375 Z M 43.113281 7.84375 L 43.113281 14 L 42.207031 14 C 42.019531 14 41.898438 13.914062 41.847656 13.734375 L 41.738281 13.234375 C 41.488281 13.496094 41.207031 13.703125 40.894531 13.859375 C 40.589844 14.015625 40.238281 14.09375 39.832031 14.09375 C 39.496094 14.09375 39.199219 14.035156 38.941406 13.921875 C 38.679688 13.808594 38.460938 13.648438 38.285156 13.4375 C 38.105469 13.230469 37.972656 12.984375 37.878906 12.703125 C 37.792969 12.414062 37.753906 12.09375 37.753906 11.75 L 37.753906 7.84375 L 39.238281 7.84375 L 39.238281 11.75 C 39.238281 12.125 39.320312 12.417969 39.488281 12.625 C 39.664062 12.835938 39.929688 12.9375 40.285156 12.9375 C 40.535156 12.9375 40.769531 12.882812 40.988281 12.765625 C 41.214844 12.652344 41.429688 12.496094 41.628906 12.296875 L 41.628906 7.84375 Z M 48.335938 9.046875 C 48.292969 9.109375 48.25 9.15625 48.210938 9.1875 C 48.167969 9.210938 48.109375 9.21875 48.039062 9.21875 C 47.976562 9.21875 47.902344 9.199219 47.820312 9.15625 C 47.734375 9.117188 47.636719 9.074219 47.523438 9.03125 C 47.417969 8.980469 47.296875 8.933594 47.164062 8.890625 C 47.027344 8.851562 46.859375 8.828125 46.664062 8.828125 C 46.371094 8.828125 46.140625 8.890625 45.976562 9.015625 C 45.820312 9.140625 45.742188 9.304688 45.742188 9.5 C 45.742188 9.636719 45.78125 9.75 45.867188 9.84375 C 45.949219 9.929688 46.058594 10.007812 46.195312 10.078125 C 46.339844 10.140625 46.5 10.199219 46.679688 10.25 C 46.867188 10.304688 47.054688 10.367188 47.242188 10.4375 C 47.429688 10.5 47.609375 10.574219 47.789062 10.65625 C 47.964844 10.730469 48.121094 10.835938 48.257812 10.96875 C 48.402344 11.09375 48.515625 11.246094 48.601562 11.421875 C 48.695312 11.589844 48.742188 11.796875 48.742188 12.046875 C 48.742188 12.351562 48.6875 12.625 48.585938 12.875 C 48.480469 13.125 48.324219 13.34375 48.117188 13.53125 C 47.90625 13.710938 47.648438 13.851562 47.335938 13.953125 C 47.03125 14.046875 46.683594 14.09375 46.289062 14.09375 C 46.070312 14.09375 45.855469 14.070312 45.648438 14.03125 C 45.449219 14 45.257812 13.953125 45.070312 13.890625 C 44.890625 13.820312 44.71875 13.734375 44.554688 13.640625 C 44.398438 13.546875 44.261719 13.449219 44.148438 13.34375 L 44.492188 12.78125 C 44.53125 12.710938 44.578125 12.65625 44.632812 12.625 C 44.695312 12.585938 44.773438 12.5625 44.867188 12.5625 C 44.960938 12.5625 45.046875 12.589844 45.132812 12.640625 C 45.214844 12.695312 45.308594 12.75 45.414062 12.8125 C 45.527344 12.875 45.65625 12.933594 45.804688 12.984375 C 45.949219 13.039062 46.132812 13.0625 46.351562 13.0625 C 46.527344 13.0625 46.679688 13.042969 46.804688 13 C 46.929688 12.960938 47.03125 12.90625 47.117188 12.84375 C 47.199219 12.773438 47.257812 12.6875 47.289062 12.59375 C 47.328125 12.5 47.351562 12.40625 47.351562 12.3125 C 47.351562 12.167969 47.308594 12.054688 47.226562 11.96875 C 47.140625 11.875 47.027344 11.796875 46.882812 11.734375 C 46.734375 11.664062 46.574219 11.601562 46.398438 11.546875 C 46.21875 11.484375 46.03125 11.421875 45.835938 11.359375 C 45.648438 11.296875 45.460938 11.226562 45.273438 11.140625 C 45.09375 11.046875 44.933594 10.9375 44.789062 10.8125 C 44.652344 10.679688 44.539062 10.515625 44.445312 10.328125 C 44.359375 10.132812 44.320312 9.898438 44.320312 9.625 C 44.320312 9.375 44.371094 9.136719 44.476562 8.90625 C 44.578125 8.679688 44.726562 8.480469 44.914062 8.3125 C 45.109375 8.136719 45.351562 8 45.632812 7.90625 C 45.921875 7.804688 46.261719 7.75 46.648438 7.75 C 47.074219 7.75 47.460938 7.824219 47.804688 7.96875 C 48.148438 8.105469 48.4375 8.289062 48.679688 8.515625 Z M 16.875 2.15625 "
       id="path10" />
    <path
       style="stroke:none;fill-rule:nonzero;fill:#808080;fill-opacity:1"
       d="M 66 0 L 119 0 C 121.667969 0 123 1.332031 123 4 L 123 16 C 123 18.667969 121.667969 20 119 20 L 66 20 Z M 66 0 "
       id="path12" />
    <text
       xml:space="preserve"
       style="font-style:normal;font-variant:normal;font-weight:normal;font-stretch:normal;font-size:13.3333px;line-height:1.25;font-family:Bahnschrift;-inkscape-font-specification:'Bahnschrift, Normal';font-variant-ligatures:normal;font-variant-caps:normal;font-variant-numeric:normal;font-variant-east-asian:normal;fill:#c7c7c7;fill-opacity:1;stroke:none"
       x="71.243141"
       y="13.930327"
       id="text12752"><tspan
         id="tspan12750"
         x="71.243141"
         y="13.930327"
         style="font-style:normal;font-variant:normal;font-weight:normal;font-stretch:normal;font-size:13.33329964px;font-family:Bahnschrift;-inkscape-font-specification:'Bahnschrift, Normal';font-variant-ligatures:normal;font-variant-caps:normal;font-variant-numeric:normal;font-variant-east-asian:normal;fill:#c7c7c7;fill-opacity:1"
         sodipodi:role="line">unkown</tspan></text>
  </g>
</svg>
