<svg id="visual" viewBox="0 0 3000 300" width="3000" height="300" xmlns="http://www.w3.org/2000/svg" xmlns:xlink="http://www.w3.org/1999/xlink" version="1.1"><path d="M0 75L25 95C50 115 100 155 150 172.5C200 190 250 185 300 188.5C350 192 400 204 450 209C500 214 550 212 600 203.3C650 194.7 700 179.3 750 161.7C800 144 850 124 900 120C950 116 1000 128 1050 147.8C1100 167.7 1150 195.3 1200 208C1250 220.7 1300 218.3 1350 205.7C1400 193 1450 170 1500 164C1550 158 1600 169 1650 177.8C1700 186.7 1750 193.3 1800 184C1850 174.7 1900 149.3 1950 146.8C2000 144.3 2050 164.7 2100 160.3C2150 156 2200 127 2250 126.7C2300 126.3 2350 154.7 2400 173.5C2450 192.3 2500 201.7 2550 187C2600 172.3 2650 133.7 2700 133C2750 132.3 2800 169.7 2850 190.3C2900 211 2950 215 2975 217L3000 219L3000 301L2975 301C2950 301 2900 301 2850 301C2800 301 2750 301 2700 301C2650 301 2600 301 2550 301C2500 301 2450 301 2400 301C2350 301 2300 301 2250 301C2200 301 2150 301 2100 301C2050 301 2000 301 1950 301C1900 301 1850 301 1800 301C1750 301 1700 301 1650 301C1600 301 1550 301 1500 301C1450 301 1400 301 1350 301C1300 301 1250 301 1200 301C1150 301 1100 301 1050 301C1000 301 950 301 900 301C850 301 800 301 750 301C700 301 650 301 600 301C550 301 500 301 450 301C400 301 350 301 300 301C250 301 200 301 150 301C100 301 50 301 25 301L0 301Z" fill="#13C0E8" stroke-linecap="round" stroke-linejoin="miter"></path></svg>