<?xml version="1.0" encoding="UTF-8" standalone="no"?>
<svg
   xmlns:dc="http://purl.org/dc/elements/1.1/"
   xmlns:cc="http://creativecommons.org/ns#"
   xmlns:rdf="http://www.w3.org/1999/02/22-rdf-syntax-ns#"
   xmlns:svg="http://www.w3.org/2000/svg"
   xmlns="http://www.w3.org/2000/svg"
   xmlns:sodipodi="http://sodipodi.sourceforge.net/DTD/sodipodi-0.dtd"
   xmlns:inkscape="http://www.inkscape.org/namespaces/inkscape"
   version="1.1"
   id="svg110"
   width="250.18837"
   height="249.4108"
   viewBox="0 0 250.18837 249.4108"
   sodipodi:docname="PFP.svg"
   inkscape:version="1.0.2 (e86c870879, 2021-01-15, custom)">
  <metadata
     id="metadata116">
    <rdf:RDF>
      <cc:Work
         rdf:about="">
        <dc:format>image/svg+xml</dc:format>
        <dc:type
           rdf:resource="http://purl.org/dc/dcmitype/StillImage" />
        <dc:title></dc:title>
      </cc:Work>
    </rdf:RDF>
  </metadata>
  <defs
     id="defs114" />
  <sodipodi:namedview
     pagecolor="#ffffff"
     bordercolor="#666666"
     borderopacity="1"
     objecttolerance="10"
     gridtolerance="10"
     guidetolerance="10"
     inkscape:pageopacity="0"
     inkscape:pageshadow="2"
     inkscape:window-width="2516"
     inkscape:window-height="1376"
     id="namedview112"
     showgrid="false"
     inkscape:zoom="2"
     inkscape:cx="145.53303"
     inkscape:cy="116.52615"
     inkscape:window-x="20"
     inkscape:window-y="40"
     inkscape:window-maximized="0"
     inkscape:current-layer="layer2"
     inkscape:document-rotation="0" />
  <g
     inkscape:groupmode="layer"
     id="layer2"
     inkscape:label="Image 2">
    <ellipse
       style="fill:#ffffff;stroke-width:1.56706"
       id="path82"
       cx="125.18214"
       cy="124.75815"
       rx="125.01148"
       ry="124.639" />
  </g>
  <g
     inkscape:groupmode="layer"
     inkscape:label="Image"
     id="g118"
     transform="translate(-11.405818,-11.294599)">
    <path
       style="fill:#000000"
       d="M 121.20956,252.09132 C 104.73019,249.86574 85.32247,242.34359 70.37433,232.38832 61.62464,226.56113 47.76554,212.94446 41.37472,203.896 24.16024,179.52278 16.74026,148.42277 21.1541,119.14353 26.41394,84.252367 46.49792,54.200869 76.77412,35.91973 c 29.02187,-17.523758 65.16256,-21.444458 97.43544,-10.570222 7.47089,2.517292 22.15338,9.775595 28.22541,13.953265 21.11737,14.529128 38.08228,37.37162 45.56032,61.344907 4.48678,14.38383 5.16427,19.23805 5.09425,36.50001 -0.0586,14.45601 -0.38796,17.70419 -2.65843,26.22073 -5.95113,22.32272 -16.2055,40.40119 -31.52286,55.57482 -16.7947,16.63711 -35.91797,26.97509 -58.52621,31.6391 -9.67903,1.99675 -29.81679,2.77249 -39.17248,1.50898 z m 38.98442,-6.02123 c 9.3075,-2.00566 17.51558,-4.73232 17.51558,-5.81854 0,-1.83291 -9.21963,-9.75166 -13.81404,-11.86488 -6.85735,-3.15409 -6.10002,-3.92705 1.1792,-1.20355 3.42077,1.27988 7.80662,4.09676 11.18257,7.18219 l 5.55441,5.07642 4.94893,-2.31796 c 2.72191,-1.27488 4.94892,-2.57853 4.9489,-2.89702 -6e-5,-1.19962 -7.21614,-6.27122 -12.22456,-8.59166 -2.86244,-1.32618 -8.4829,-2.94012 -12.48992,-3.58652 l -7.28549,-1.17528 v -7.3628 c 0,-5.98832 -0.28978,-7.3628 -1.55231,-7.3628 -1.26557,0 -1.52278,1.24689 -1.39241,6.75 0.32765,13.83052 0.60691,13.05748 -5.77222,15.97795 -4.89573,2.24134 -7.02716,2.60672 -14.83804,2.5436 -7.76565,-0.0627 -9.88818,-0.46242 -14.28305,-2.68947 -2.83908,-1.43868 -5.20597,-3.17069 -5.25975,-3.84893 -0.0538,-0.67823 -0.10804,-5.17065 -0.12057,-9.98315 -0.0176,-6.76019 -0.33648,-8.75 -1.40222,-8.75 -1.04895,0 -1.37943,1.78216 -1.37943,7.43873 v 7.43872 l -4.75,0.65264 c -7.06001,0.97003 -12.262568,2.4361 -16.74438,4.71854 -5.80425,2.95593 -10.58229,6.8183 -9.86683,7.97594 0.34062,0.55113 2.61565,1.88514 5.05562,2.96445 l 4.43631,1.96239 4.746592,-4.43988 c 5.195268,-4.85957 7.236568,-6.13479 13.172998,-8.22928 5.37207,-1.89538 5.01725,-0.42429 -0.43876,1.81912 -4.23596,1.74174 -10.824728,7.39404 -12.719638,10.91177 -0.79864,1.48261 0.18944,2.05017 7.342628,4.21768 7.34326,2.2251 14.53396,3.60402 25.76546,4.94092 6.23967,0.74271 21.27889,-0.46565 30.48442,-2.44934 z m -32.06222,-18.26454 c -0.54053,-1.40861 -9.4222,-3.91113 -9.4222,-2.65483 0,0.76481 6.63779,3.73385 8.71862,3.89979 0.67023,0.0534 0.98685,-0.50678 0.70358,-1.24496 z m 24.17239,-0.69382 c 1.47553,-0.561 2.40828,-1.2945 2.07277,-1.63001 -0.88872,-0.88872 -9.66736,1.74862 -9.66736,2.90434 0,1.0054 2.86117,0.52531 7.59459,-1.27433 z m -23.16236,-3.85439 c 0.30265,-0.48969 -1.13329,-1.18869 -3.19098,-1.55332 -2.05769,-0.36463 -4.52875,-0.8943 -5.49125,-1.17704 -0.9625,-0.28273 -1.75,-0.0466 -1.75,0.52473 0,1.90566 9.39058,3.89106 10.43223,2.20563 z m 24.56777,-1.17057 c 1.19784,-0.70134 1.07193,-0.88439 -0.625,-0.90867 -3.69085,-0.0528 -8.375,1.18094 -8.375,2.20588 0,1.09117 6.52776,0.1503 9,-1.29721 z m -28.5,-4.50921 c -6.33492,-1.76274 -7.49333,-1.7394 -5.05887,0.10193 1.06762,0.80751 3.76762,1.42796 6,1.37878 l 4.05887,-0.0894 -5,-1.3913 z m 27.47104,0.60919 c 2.67735,-1.69321 0.45563,-2.03731 -4.04256,-0.62612 l -4.42848,1.38932 3.5,0.0836 c 1.925,0.046 4.16197,-0.33509 4.97104,-0.84676 z m -23.97104,-2.93048 c 0,-1.09602 -8.03223,-4.40968 -8.80815,-3.63376 -0.91383,0.91383 1.07622,2.30314 4.80815,3.35671 1.925,0.54345 3.6125,1.02868 3.75,1.07828 0.1375,0.0496 0.25,-0.31095 0.25,-0.80123 z m 25,-2.35499 c 0,-0.43543 -1.0125,-0.53811 -2.25,-0.22819 -1.2375,0.30993 -3.2625,0.63927 -4.5,0.73186 -1.2375,0.0926 -2.25,0.6651 -2.25,1.27223 0,0.79632 1.25381,0.81299 4.5,0.0598 2.475,-0.57423 4.5,-1.40031 4.5,-1.83574 z m -25.53342,-2.69952 c 0.32154,-0.52026 -1.1144,-1.41775 -3.19098,-1.99442 -7.03931,-1.95484 -8.45346,-0.78645 -1.95383,1.61427 4.05158,1.49651 4.43725,1.525 5.14481,0.38015 z m 23.28342,-0.76999 c 1.7875,-0.30017 3.25,-0.97264 3.25,-1.49438 0,-0.53774 -1.40767,-0.66529 -3.25,-0.2945 -5.51025,1.10902 -6.75,1.6011 -6.75,2.67918 0,0.58707 0.76176,0.73835 1.75,0.34753 0.9625,-0.38063 3.2125,-0.93766 5,-1.23783 z m 43.16258,-10.60675 c 2.81438,-1.86299 4.92893,-4.32546 6.21936,-7.2427 1.84982,-4.18183 1.93937,-6.53684 1.66162,-43.70114 l -0.29356,-39.28113 -3.19736,-6.47618 c -1.75854,-3.561904 -3.88018,-7.376186 -4.71474,-8.476186 -1.49856,-1.975181 -1.54575,-1.966935 -3.80265,0.66445 -3.23552,3.772399 -7.98672,5.857696 -12.98559,5.699366 -2.58438,-0.08185 -3.30233,-0.303553 -1.79966,-0.555732 5.50563,-0.923959 8.79531,-2.501685 11.90417,-5.709216 3.09938,-3.197742 3.42478,-4.292579 6.60446,-22.221284 1.83945,-10.371804 3.24836,-18.953926 3.13091,-19.071381 -0.44894,-0.448936 -31.24978,17.931775 -33.36052,19.908225 -2.16532,2.027558 -3.73783,5.724956 -4.5871,10.785572 -0.31054,1.850399 -0.44354,1.590559 -0.51185,-1 -0.0507,-1.925 0.55619,-5.3 1.34877,-7.5 0.79257,-2.2 1.44782,-4.067617 1.4561,-4.150259 0.008,-0.08264 -2.34744,-0.71854 -5.23494,-1.413105 -2.8875,-0.694565 -4.79357,-1.416591 -4.23572,-1.604502 0.55786,-0.187911 3.03286,0.247505 5.5,0.967591 4.45502,1.300286 4.52798,1.281495 10.6599,-2.745239 3.39579,-2.229967 6.05889,-4.504486 5.918,-5.054486 -0.36331,-1.418203 -14.86795,-6.193394 -22.59218,-7.437753 -8.1382,-1.311049 -20.41401,-1.32419 -29.35649,-0.03142 -6.73108,0.973074 -21.38717,5.364034 -22.925568,6.868492 -1.11549,1.09088 10.381888,9.486124 12.769448,9.324093 1.23321,-0.08369 1.53415,0.145244 0.79304,0.603278 -0.9143,0.56507 -0.86302,1.668474 0.21871,4.705734 0.77719,2.182169 1.37963,5.542581 1.33875,7.467581 -0.0701,3.301754 -0.1293,3.236944 -1.04496,-1.144203 -0.53385,-2.554312 -2.16815,-6.051811 -3.63178,-7.77222 -2.10527,-2.474605 -33.07875,-21.502003 -33.8083,-20.768858 -0.1014,0.101905 1.32303,8.683223 3.16541,19.069596 3.18016,17.928148 3.51402,19.053775 6.59366,22.231163 3.09419,3.192386 6.38783,4.76955 11.888082,5.692606 1.74397,0.292676 1.35625,0.460735 -1.28212,0.555737 C 91.84049,100.17667 86.12284,97.916354 82.60552,94.547395 l -2.60403,-2.494198 -1.50143,2.297246 c -7.95781,12.175707 -8.9824,19.399667 -8.26846,58.297247 0.6996,38.11594 0.72017,38.30107 4.77186,42.93587 5.75063,6.57824 5.33463,6.53691 63.2803,6.2879 l 52.07421,-0.22377 z m -111.3535,-10.7596 c -1.96928,-1.72905 -3.95775,-4.69251 -4.52922,-6.75 -0.58429,-2.10365 -1.02109,-16.15815 -1.02429,-32.95757 -0.005,-26.84334 0.15353,-29.59974 1.89926,-32.99999 1.04765,-2.04059 3.35219,-4.55533 5.1212,-5.5883 3.04052,-1.77545 5.90248,-1.86823 52.34384,-1.69683 54.6995,0.20188 52.98646,-0.0112 56.76703,7.05937 1.70196,3.18302 1.8631,6.15386 1.8631,34.34886 0,34.29359 -0.24626,35.8017 -6.4745,39.65097 -3.15529,1.95008 -4.87765,2.01576 -52.85874,2.01576 H 86.77915 Z m 104.85203,-4.99446 2.58889,-3.07672 v -29.87622 c 0,-19.11088 -0.38597,-30.72334 -1.07116,-32.22717 -2.17786,-4.77987 -2.14557,-4.77681 -52.70232,-5.00218 -52.25996,-0.23296 -51.12006,-0.35373 -53.20866,5.63764 -1.48315,4.25454 -1.354,60.12174 0.14548,62.93712 2.49809,4.69034 1.68454,4.61892 52.99777,4.65246 l 48.6611,0.0318 z M 86.74474,181.21343 C 86.096,180.00125 85.70956,167.88176 85.70956,148.74862 v -30.53056 l 2.25,-1.27401 c 2.72684,-1.54402 88.99516,-2.17128 94.89718,-0.69 2.00594,0.50345 3.91844,1.62227 4.25,2.48628 0.33155,0.86402 0.60282,15.00199 0.60282,31.41772 0,25.80011 -0.21306,30.05984 -1.57143,31.41821 -1.38527,1.38528 -7.30416,1.57143 -49.96481,1.57143 -46.82168,0 -48.42702,-0.0628 -49.42858,-1.93426 z m 27.72396,-24.06034 c 4.64819,-2.83404 7.34448,-7.6418 7.01326,-12.5054 l -0.2724,-4 h -13 -12.999998 l -0.31804,3.87864 c -0.43425,5.29605 1.43188,9.28686 5.698228,12.18592 4.38405,2.97904 9.45196,3.14001 13.87895,0.44084 z m 56.95779,0.32464 c 4.87348,-2.31262 7.39429,-6.71821 7.05508,-12.33004 l -0.27201,-4.5 h -13 -13 l -0.31071,3.75582 c -0.60702,7.33751 5.82755,14.51563 13.15958,14.68023 1.56688,0.0352 4.43251,-0.68753 6.36806,-1.60601 z M 70.83718,197.32692 c -3.93398,-5.52477 -4.3202,-10.21518 -3.93643,-47.80538 0.3649,-35.74102 0.37594,-35.90062 2.98132,-43.10658 1.43828,-3.978 4.24661,-9.503727 6.24072,-12.279394 2.70983,-3.771872 3.39749,-5.481295 2.72235,-6.767274 -0.49683,-0.946335 -1.22014,-3.633108 -1.60735,-5.970608 -0.38722,-2.3375 -1.12355,-4.25 -1.6363,-4.25 -1.48842,0 -9.80591,13.492491 -12.18598,19.767872 -2.1055,5.551434 -2.17453,7.056114 -2.18999,47.732134 l -0.016,42 2.74929,4.67686 c 2.33786,3.97696 6.98109,8.82314 8.45366,8.82314 0.23828,0 -0.47062,-1.26935 -1.57533,-2.82077 z m 138.61852,-5.99458 2.75386,-4.68465 0.29539,-38.49718 c 0.32571,-42.44929 -0.1365,-47.16904 -5.69528,-58.155894 -2.92633,-5.783856 -8.04194,-12.84685 -9.3048,-12.846903 -0.38757,-1.6e-5 -0.97872,1.687471 -1.31366,3.749971 -0.33494,2.0625 -1.03285,4.789215 -1.55092,6.059366 -0.74771,1.833148 -0.43608,2.972592 1.51119,5.525598 4.78062,6.267721 8.54537,15.968292 9.62607,24.803392 0.58834,4.80982 0.90247,22.50261 0.72647,40.9178 -0.31785,33.25833 -0.41592,34.12182 -4.53437,39.92314 l -1.76009,2.47929 3.24614,-2.29463 c 1.78538,-1.26206 4.48538,-4.40274 6,-6.9793 z M 58.70956,166.34386 c 0,-0.44211 -1.61194,-2.35461 -3.58208,-4.25 -1.97014,-1.89539 -4.06617,-4.34617 -4.65783,-5.44617 -0.59166,-1.1 0.66965,-0.3125 2.80292,1.75 2.13327,2.0625 4.22929,3.75 4.65783,3.75 0.42854,0 0.77916,-6.975 0.77916,-15.5 0,-9.29414 -0.38645,-15.5 -0.96521,-15.5 -0.53086,0 -2.65246,1.4625 -4.71467,3.25 l -3.74947,3.25 2.31156,-3.29042 c 1.27135,-1.80974 3.39295,-3.99899 4.71467,-4.86501 1.42562,-0.93411 2.40312,-2.54471 2.40312,-3.95958 0,-3.08639 -0.84227,-3.00627 -5.74693,0.54664 -7.22515,5.23388 -11.25307,12.40637 -11.25307,20.03828 0,5.38288 4.72992,13.93683 9.82774,17.77322 4.14974,3.12292 7.17226,4.15667 7.17226,2.45304 z m 163.17226,-2.45304 c 5.01711,-3.77565 9.82774,-12.36945 9.82774,-17.55643 0,-6.46444 -2.24346,-11.49676 -7.46987,-16.75567 -5.84623,-5.88259 -9.53015,-7.46261 -9.5301,-4.08741 2e-5,1.26508 1.44412,3.30862 3.49381,4.94407 1.92158,1.53324 4.21836,4.18887 5.10395,5.90141 1.50101,2.90264 1.34246,2.8323 -2.33898,-1.03769 -2.17202,-2.28328 -4.46881,-4.15141 -5.10397,-4.15141 -0.82364,0 -1.15484,4.46227 -1.15484,15.55902 0,12.16613 0.27258,15.40136 1.25,14.83603 0.6875,-0.39764 2.6,-1.62101 4.25,-2.71861 2.47691,-1.64766 2.25895,-1.22015 -1.25,2.45182 -2.3375,2.44609 -4.25,4.76791 -4.25,5.15959 0,1.61626 3.10883,0.51324 7.17226,-2.54472 z"
       id="path122" />
  </g>
</svg>
