<?xml version="1.0" encoding="UTF-8" standalone="no"?>
<svg
   xmlns:dc="http://purl.org/dc/elements/1.1/"
   xmlns:cc="http://creativecommons.org/ns#"
   xmlns:rdf="http://www.w3.org/1999/02/22-rdf-syntax-ns#"
   xmlns:svg="http://www.w3.org/2000/svg"
   xmlns="http://www.w3.org/2000/svg"
   xmlns:sodipodi="http://sodipodi.sourceforge.net/DTD/sodipodi-0.dtd"
   xmlns:inkscape="http://www.inkscape.org/namespaces/inkscape"
   width="612.7251"
   height="449.47501"
   viewBox="0 0 162.11685 118.9236"
   version="1.1"
   id="svg8"
   inkscape:version="1.0.2 (e86c870879, 2021-01-15, custom)"
   sodipodi:docname="frodo.svg">
  <defs
     id="defs2" />
  <sodipodi:namedview
     id="base"
     pagecolor="#ffffff"
     bordercolor="#666666"
     borderopacity="1.0"
     inkscape:pageopacity="0.0"
     inkscape:pageshadow="2"
     inkscape:zoom="0.70710678"
     inkscape:cx="688.52464"
     inkscape:cy="746.24078"
     inkscape:document-units="mm"
     inkscape:current-layer="layer2"
     inkscape:document-rotation="0"
     showgrid="false"
     inkscape:window-width="2516"
     inkscape:window-height="1412"
     inkscape:window-x="44"
     inkscape:window-y="0"
     inkscape:window-maximized="1"
     units="px"
     showguides="false" />
  <metadata
     id="metadata5">
    <rdf:RDF>
      <cc:Work
         rdf:about="">
        <dc:format>image/svg+xml</dc:format>
        <dc:type
           rdf:resource="http://purl.org/dc/dcmitype/StillImage" />
        <dc:title />
      </cc:Work>
    </rdf:RDF>
  </metadata>
  <g
     inkscape:groupmode="layer"
     id="layer2"
     inkscape:label="Layer 2"
     style="display:inline"
     transform="translate(-79.570321,-78.14333)">
    <rect
       style="fill:#000000;fill-opacity:1;stroke-width:0.264583"
       id="rect2027"
       width="11.443774"
       height="1.6745025"
       x="218.7563"
       y="195.37032"
       ry="0.098836139"
       rx="4.5850234" />
    <path
       style="fill:#58b4f0;fill-opacity:1;stroke-width:0.707107"
       d="m 319.41149,7.0822106 c -3.67826,0.5900884 -3.76479,5.6764124 -5.38478,8.2946934 -1.77509,4.142203 -3.19154,9.263066 -5.18315,12.791452 -1.50233,-6.113824 -0.22108,-12.782343 -2.33953,-18.6955168 -2.7337,-2.116084 -6.60169,0.5465288 -9.65022,0.6847008 -9.14649,1.900887 -18.03707,5.751201 -27.5412,4.384881 -32.25828,-1.247941 -65.01705,0.07982 -96.15026,9.345016 -8.07929,2.689202 -17.49516,4.425074 -23.4482,10.998433 -2.68146,4.566981 -1.33349,10.407619 -0.79688,15.407194 4.5176,15.755653 15.89474,28.31529 26.26286,40.566657 5.82482,6.602518 11.91906,12.959049 17.93546,19.385499 -1.48832,8.02641 -3.25223,16.26941 -3.05078,24.38276 12.72716,0.62947 25.7547,-0.94441 38.47103,0.38531 -12.123,4.31804 -25.21997,5.79539 -37.13968,10.753 -1.59263,3.79816 0.75838,8.28545 0.90046,12.22797 2.56351,1.45208 6.44197,-0.56323 9.48793,-0.26931 6.52876,-0.45068 13.06183,-0.83087 19.61807,-0.77754 -8.2345,3.8241 -17.71475,5.20074 -25.22658,10.42016 -1.70599,2.85966 1.8437,5.95924 2.61436,8.67311 6.57326,13.70447 16.28481,25.71369 28.19543,35.1395 21.89404,16.99146 48.84163,27.51444 76.40243,30.22354 22.61854,0.94508 45.61359,-0.37551 67.25453,-7.51918 17.96915,-5.49307 35.22999,-14.33525 48.33679,-28.04042 1.69192,-2.91186 8.44399,-5.31064 6.92167,-8.68663 -5.99761,-5.92187 -12.28883,-11.52613 -17.88873,-17.83539 8.18104,1.98605 15.41252,7.03854 23.26548,9.51555 2.63356,-3.29407 4.40007,-7.66445 5.16795,-11.80122 -4.53407,-4.97374 -11.1052,-7.90135 -16.50348,-11.92035 -5.19718,-3.59907 -11.63863,-7.15376 -16.12977,-10.83413 12.31253,2.32567 24.22522,6.92522 36.29308,10.37597 2.14477,-2.69149 1.10474,-7.14483 2.00071,-10.45455 0.62989,-1.17856 -0.24258,-5.43501 1.60802,-4.58114 6.28223,3.98269 12.71391,8.16208 20.34313,8.86231 5.19813,0.54012 12.79413,2.48794 16.20683,-2.81047 2.7094,-7.33936 -0.67851,-15.25442 -2.24561,-22.50588 -9.53904,-32.88576 -32.01302,-60.910317 -59.15253,-81.208177 -2.07581,-1.587574 -2.39118,1.682506 -3.49548,2.336767 -5.60593,-2.779624 -10.16974,-7.679893 -16.4057,-9.423027 -3.8921,-1.724153 -8.94649,-2.242945 -12.40752,-4.002334 2.53367,-2.162486 6.00011,-2.688137 8.8927,-3.779983 0.39708,-2.745274 -3.82843,-3.561404 -5.42031,-5.17855 -4.20739,-2.221866 -8.09195,-5.865074 -12.54739,-7.09362 -5.96448,5.010349 -11.65422,10.39037 -18.00636,14.915534 1.63399,-6.857123 5.40421,-13.404665 6.50069,-20.158068 -4.34784,-3.481661 -10.11129,-5.085629 -15.48039,-6.082223 -3.50459,1.756274 -4.41828,6.603233 -6.925,9.458245 -4.129,6.538449 -7.97373,13.286986 -12.56049,19.519322 1.02564,-11.438994 3.14576,-22.983131 3.27313,-34.3954965 -4.85889,-0.6820636 -9.92826,-0.9852308 -14.87272,-0.9943689 z m -54.3464,13.7609604 c 4.71849,0.338529 10.92253,0.503551 13.75543,4.868265 0.10725,1.867529 -3.63102,0.771141 -4.84202,1.347922 -7.82695,0.576121 -16.04055,-0.185965 -23.34972,3.38776 -1.09792,-0.01501 -3.64913,1.99802 -4.28407,0.875597 3.32541,-6.671233 11.22939,-10.978621 18.72038,-10.479544 z m -50.32888,10.132896 c 5.74293,0.409067 12.50447,-0.506311 17.39731,2.988631 -7.97117,11.12305 -18.67207,20.374976 -26.70709,31.605739 -3.65167,4.666804 -6.68049,9.955723 -8.51428,15.514919 -5.45467,0.653911 -9.35849,-4.655149 -13.31714,-7.587098 -7.24024,-7.172407 -16.3431,-14.518044 -18.12702,-25.137308 -0.7615,-5.268185 3.1128,-9.922198 8.06406,-11.234988 13.18407,-4.44822 27.31321,-5.894628 41.20416,-6.149895 z m 43.19704,44.108547 c 13.25211,0.683455 24.78381,11.236189 27.95144,23.932525 0.43618,1.749071 1.80977,4.769431 1.34239,5.801871 -7.9927,-6.367083 -16.63701,-13.67576 -27.48739,-13.527565 -9.03832,-0.707297 -17.69642,3.384468 -23.8197,9.890445 -1.94046,2.18556 -3.42942,2.78686 -2.38605,-0.76691 0.99717,-12.755136 10.86198,-25.292695 24.39931,-25.330366 z m 183.69723,9.906397 c 4.66849,1.303403 7.09467,6.433045 10.11494,9.913312 9.17166,13.510607 15.49431,29.119617 18.06713,45.283827 0.21046,2.41983 0.79257,8.14893 -3.2317,7.25476 -8.03193,-2.63428 -15.42806,-6.90072 -23.15637,-10.2862 -0.33108,-15.43289 0.0278,-31.02398 -3.63022,-46.137833 0.0959,-2.209518 -2.39323,-6.805832 1.83622,-6.027866 z m -60.62336,7.943906 c 11.90526,-0.50486 21.44973,10.253523 22.5777,21.543283 0.27208,3.50762 0.63216,8.0989 -0.54414,11.21841 -6.82098,-9.12088 -16.6066,-18.77103 -28.94028,-17.74672 -8.33465,0.23533 -15.80957,4.82927 -23.40772,7.1705 3.75823,-10.08941 12.8871,-18.200926 23.27928,-21.21458 2.2905,-0.624 4.65986,-0.966587 7.03516,-0.970893 z m -69.79088,23.851043 c 7.38875,0.41736 16.08051,1.11452 21.29606,6.99373 1.84569,2.91646 0.50939,6.15035 -2.20971,7.89142 -3.29277,3.56207 -8.40148,3.90317 -11.98214,6.72995 -0.42579,3.21249 -1.63909,6.81808 -0.78583,9.88429 10.22746,4.93111 22.35615,9.95365 33.60691,5.18592 2.22744,-1.5955 7.56686,-0.8552 5.80187,2.79113 -4.10103,4.58664 -6.68369,10.34249 -11.41228,14.45772 -8.24823,8.02062 -16.42302,17.95182 -28.17742,20.58688 -8.06648,1.32939 -17.61662,1.97225 -23.8911,-4.40008 -11.01787,-9.80405 -16.11007,-24.13825 -20.40113,-37.77497 -1.253,-4.17993 -6.16667,-8.2851 -3.8228,-12.83426 2.71301,-1.21782 5.06482,0.53792 6.01455,3.17093 5.97405,8.68518 17.83206,7.71464 27.08343,7.54244 3.52692,0.14221 9.11372,-0.54756 8.67657,-5.32445 0.81231,-3.51704 -1.36642,-6.47408 -4.46223,-7.9218 -4.00844,-2.73652 -9.43156,-7.9982 -6.06704,-13.13119 2.07027,-3.69593 6.87367,-3.85835 10.73229,-3.84766 z"
       id="path2029"
       transform="matrix(0.26458333,0,0,0.26458333,79.570321,78.14333)" />
    <path
       style="fill:#49adef;fill-opacity:1;stroke-width:0.707107"
       d="m 132.71182,346.97822 c -8.39261,-0.33689 -16.29388,7.74074 -14.64412,16.24586 -0.052,1.76353 0.78517,4.81836 0.67186,5.65511 -2.46477,-2.25959 -3.71207,-6.12961 -6.71061,-7.56549 -3.03051,2.40972 -3.3595,7.11722 -4.30065,10.69776 -0.91161,11.88691 5.09583,22.94758 10.06523,33.35417 7.68278,13.80409 17.06994,27.96523 31.3309,35.65641 10.02333,5.2716 22.00727,0.77094 29.70816,-6.52002 6.51189,-4.85504 8.18484,-13.05772 9.76415,-20.51024 0.83375,5.93004 0.15868,12.11366 1.13523,17.92764 19.63238,1.54351 39.38101,2.32879 58.88104,5.433 9.73748,1.00298 19.52491,2.8479 29.2891,2.9266 1.11757,-2.79517 -1.55228,-6.11918 -1.89078,-9.03531 -5.4518,-16.73221 -11.01009,-33.44089 -14.92786,-50.61853 -9.30141,-2.76665 -19.6966,-1.04793 -29.36703,-2.00531 -12.10857,-0.69227 -21.09956,-10.01361 -29.17506,-18.09337 -3.57687,0.9021 -5.99416,5.67224 -9.1272,8.00251 -3.92155,3.89525 -7.80373,7.83622 -11.88713,11.56307 -6.75582,-8.92323 -12.19208,-21.07414 -23.93943,-24.25983 -5.33117,-0.18399 -9.25065,4.58383 -11.28747,9.04185 0.0357,-4.6437 2.89219,-8.68277 3.27037,-13.1671 -3.16943,-3.27854 -8.59871,-3.35922 -12.84117,-4.46085 -1.32932,-0.19229 -2.6723,-0.33874 -4.01753,-0.26793 z m 1.66695,20.15669 c 4.69383,0.54253 5.88062,6.58622 7.15393,10.20056 0.76969,3.10209 0.6162,8.35992 -3.13364,9.24073 -6.02601,-3.49722 -7.95562,-11.93263 -6.35015,-18.32815 0.3761,-0.93399 1.39801,-1.25352 2.32986,-1.11314 z m 23.73365,3.63635 c 6.0146,2.62792 5.50613,11.00739 4.10454,16.33113 -0.75525,3.08137 -4.64597,5.36927 -6.83491,2.17794 -2.89814,-4.78968 -2.57422,-11.3711 -0.37289,-16.3919 0.66122,-1.06826 1.83189,-2.0116 3.10326,-2.11717 z m -39.05107,6.1637 c 5.26131,1.22589 6.06516,8.01066 7.03654,12.34813 0.87931,2.44995 -0.33223,7.88739 -3.91671,5.46489 -4.84295,-3.67132 -7.46303,-10.96384 -5.52289,-16.74683 0.47439,-0.84773 1.46737,-1.23421 2.40306,-1.06619 z m 27.16975,22.78486 c 9.59092,0.68634 15.2919,11.19848 15.37404,19.99648 0.86113,4.6143 -1.73996,10.666 -7.10145,10.51407 -8.24754,-0.83367 -13.18424,-9.53144 -15.28566,-16.76754 -1.53023,-5.29539 -0.10478,-13.73921 7.01307,-13.74301 z"
       id="path2033"
       transform="matrix(0.26458333,0,0,0.26458333,79.570321,78.14333)" />
    <path
       style="fill:#49adef;fill-opacity:1;stroke-width:0.707107"
       d="m 517.77842,346.99341 c -6.06585,0.48158 -12.86699,1.14212 -17.83235,4.90832 -0.73803,2.98179 3.06661,5.2506 2.99554,8.38446 0.24904,1.18895 0.76381,4.65235 -0.44885,1.97631 -3.18092,-3.78409 -8.83281,-8.8091 -13.84935,-5.05195 -8.51484,5.72526 -13.85733,14.75458 -19.63879,22.94506 -7.14273,-5.06842 -13.34797,-12.38262 -19.9661,-18.42206 -2.88526,0.29588 -4.6537,4.2556 -7.10283,6.01731 -8.02915,7.70575 -19.28636,12.57196 -30.56441,10.95601 -4.03585,0.24553 -10.74403,-1.87175 -12.61053,3.15712 -2.79159,17.95204 -6.49703,35.81334 -10.17295,53.61582 -0.26771,3.5636 4.60746,1.90515 6.61545,1.88733 18.51632,-2.68185 37.09078,-4.22519 55.78437,-4.68423 3.19102,-0.59 7.50253,0.47798 9.95985,-1.42088 0.12318,-5.53797 -0.0745,-11.28385 0.54414,-16.70954 0.96258,8.77146 5.04046,17.42823 12.72931,22.20067 6.8554,5.16338 15.99945,8.70199 24.40623,5.19419 15.33025,-6.1416 24.91274,-20.86211 32.6664,-34.70761 5.28143,-10.96082 12.12178,-22.33568 11.50016,-34.91892 -0.58426,-3.902 -1.83517,-8.25472 -4.72188,-11.0085 -3.26301,1.07372 -4.72308,6.50446 -6.89705,8.01848 0.90804,-6.796 1.96074,-15.7235 -5.02157,-19.78656 -2.44333,-1.74153 -5.34788,-2.78043 -8.37479,-2.55083 z m -2.13651,19.33771 c 2.6722,2.32958 1.48357,6.8332 1.45703,10.11633 -0.54463,4.22344 -3.17904,9.49892 -7.6525,10.18261 -2.93778,-3.39177 -1.84205,-8.82267 -0.93637,-12.91022 1.06529,-3.24164 3.70076,-6.62371 7.13184,-7.38872 z m -25.31912,4.44014 c 4.31018,1.31052 5.86416,6.98885 5.70381,11.04854 -0.6059,3.38204 -1.78819,9.80748 -6.45373,8.8416 -5.03614,-3.65311 -4.19501,-11.29645 -2.5757,-16.58801 0.57922,-1.38199 1.56046,-3.29411 3.32562,-3.30213 z m 39.92253,6.06427 c 3.97827,0.77559 2.49619,6.44563 1.9335,9.104 -1.21308,3.82398 -3.40586,9.97614 -8.24222,9.82491 -2.8593,-3.02164 -1.01306,-7.99236 -0.11187,-11.54572 1.17948,-2.87848 2.63047,-7.36508 6.42059,-7.38319 z m -27.33686,22.84148 c 6.0758,-0.0575 8.24895,7.57224 6.9012,12.4669 -1.26309,8.27802 -7.36298,18.27385 -16.91809,17.5589 -6.46592,-0.87837 -6.07054,-8.74227 -5.14033,-13.57314 0.95043,-7.0077 5.93732,-13.57447 12.4959,-16.18888 0.91058,-0.16425 1.71618,-0.2697 2.66132,-0.26378 z"
       id="path2035"
       transform="matrix(0.26458333,0,0,0.26458333,79.570321,78.14333)" />
    <path
       style="fill:#71c0f3;fill-opacity:1;stroke-width:0.707107"
       d="m 501.24704,253.2258 c -0.66991,3.21636 0.4585,7.14471 -0.70021,10.13842 -3.28638,-2.13404 -4.68271,-6.60401 -7.97152,-8.39965 -3.05,1.35904 -8.56957,2.82994 -7.1926,7.36938 -0.0166,1.66354 1.60068,5.10624 -0.37565,5.85987 -2.8117,-0.50443 -4.29324,-4.55981 -6.91501,-4.27993 -5.08822,6.48885 -9.50346,14.01469 -11.05821,22.18685 -1.88437,14.90229 -0.17533,30.17969 -3.58663,44.84328 -2.3695,8.34268 -7.29894,15.84509 -9.70062,24.0803 3.05939,3.9196 6.60253,8.02201 10.75851,10.67566 10.74915,-5.26374 18.98385,-15.13115 23.92701,-25.90884 5.88366,-13.46901 -0.0755,-28.05195 0.39774,-41.90436 0.46232,-8.14763 5.04937,-16.51892 13.43061,-18.73205 6.12088,-2.44839 12.88926,-0.8001 18.48587,2.37744 6.16429,3.12127 14.94961,0.6743 16.78827,-6.46616 2.04306,-10.00289 -7.21943,-18.94139 -16.31042,-21.14691 -6.56637,-0.81724 -13.47685,-1.02015 -19.97714,-0.6933 z"
       id="path2037"
       transform="matrix(0.26458333,0,0,0.26458333,79.570321,78.14333)" />
    <path
       style="fill:#ffffff;fill-opacity:1;stroke-width:0.707107"
       d="m 370.16573,375.86464 c -32.87602,5.42111 -66.65046,5.90793 -99.54875,0.40189 -2.2755,-0.71802 -4.36077,1.11805 -3.56316,3.47614 3.54423,18.12977 9.48445,35.75096 15.75661,53.10345 1.50469,3.62953 2.80324,9.2805 7.89418,8.71592 27.27331,0.59757 54.62906,0.75041 81.85236,-1.22799 3.41806,-0.61453 9.16765,0.0406 9.62406,-4.72165 4.2312,-16.45548 7.84907,-33.16764 9.72134,-50.0651 1.76275,-5.01578 -2.46409,-6.91971 -6.28364,-8.66229 -3.5807,-3.25553 -7.9087,-2.65721 -12.23212,-1.55522 -1.07362,0.17828 -2.14725,0.35656 -3.22088,0.53485 z"
       id="path2041"
       transform="matrix(0.26458333,0,0,0.26458333,79.570321,78.14333)" />
    <path
       style="fill:#ffffff;fill-opacity:1;stroke-width:0.707107"
       d="m 323.46769,273.6076 c -14.77279,-0.57864 -28.69541,6.89876 -39.6767,16.20684 -7.63613,7.26002 -13.09069,16.7658 -16.57834,26.64494 -1.34907,4.68068 4.83519,5.19512 7.40252,7.47848 3.23696,2.04169 3.51215,6.49813 6.04908,8.88579 30.22999,-1.60359 60.59453,-0.74922 90.88118,-1.05928 2.08836,-2.94016 3.38064,-7.19495 7.21193,-8.7463 2.8384,-2.05884 7.82616,-1.88349 9.35535,-5.33644 -2.97525,-8.57294 -7.80589,-16.63297 -13.47093,-23.73228 -8.32267,-9.59138 -20.04072,-15.91763 -32.13746,-19.35014 -6.25475,-1.26829 -12.69438,-0.93549 -19.03663,-0.99161 z"
       id="path2043"
       transform="matrix(0.26458333,0,0,0.26458333,79.570321,78.14333)" />
    <path
       style="fill:#f38fb1;fill-opacity:1;stroke-width:0.5"
       d="m 215.37004,34.457703 c -13.85046,0.333529 -28.139,1.333778 -41.0332,6.799804 -3.63309,1.410775 -7.35881,5.388188 -5.16895,9.460938 4.1126,7.8296 11.18264,13.556331 17.19239,19.877929 2.27544,1.827741 4.31645,4.761139 7.25683,5.362305 4.57655,-5.048794 7.68469,-11.373544 12.16509,-16.569215 5.95135,-7.927488 13.25185,-14.73886 19.23726,-22.624144 0.11707,-2.578832 -3.69374,-1.97962 -5.38049,-2.262492 -1.42204,-0.05789 -2.84601,-0.05506 -4.26893,-0.04512 z"
       id="path2059"
       transform="matrix(0.26458333,0,0,0.26458333,79.570321,78.14333)" />
    <path
       style="fill:#f38fb1;fill-opacity:1;stroke-width:0.5"
       d="m 446.16398,95.613952 c -1.26006,2.11692 0.19211,5.015038 0.12208,7.396488 0.97107,10.23323 1.04428,20.54435 1.36425,30.83984 3.62053,2.83512 8.41807,4.38622 12.57238,6.58838 1.76664,0.32721 4.17896,2.98403 5.7704,1.26611 0.55006,-3.96714 -1.70207,-7.85229 -2.48466,-11.69384 -3.43787,-12.22712 -8.45266,-24.1985 -16.33859,-34.241704 -0.26938,-0.233768 -0.66973,-0.333492 -1.00586,-0.155274 z"
       id="path2061"
       transform="matrix(0.26458333,0,0,0.26458333,79.570321,78.14333)" />
    <path
       style="fill:#f38fb1;fill-opacity:1;stroke-width:0.5"
       d="m 503.00871,400.7536 c -5.97484,0.9176 -10.38432,6.19403 -12.92676,11.35254 -1.48827,4.07366 -2.46012,9.0064 -0.63964,13.1084 1.36187,2.4833 4.5042,4.27064 7.13867,2.48437 9.08086,-3.95993 14.43901,-15.89268 10.24804,-25.07812 -0.80961,-1.27989 -2.32785,-1.95939 -3.82031,-1.86719 z"
       id="path2063"
       transform="matrix(0.26458333,0,0,0.26458333,79.570321,78.14333)" />
    <path
       style="fill:#f38fb1;fill-opacity:1;stroke-width:0.0625"
       d="m 489.97255,371.11744 c -0.70876,0.15575 -0.84724,0.96854 -1.1894,1.49957 -0.77846,1.6066 -1.73768,3.16293 -2.08349,4.93813 -0.60155,2.82562 -0.53991,5.84288 0.435,8.5789 0.51545,1.39932 1.43784,2.70366 2.72913,3.47912 0.75707,0.43411 1.72857,0.13883 2.23498,-0.53772 1.27019,-1.58239 1.88908,-3.58677 2.25403,-5.55517 0.21838,-1.56838 0.24917,-3.16954 0.0945,-4.74536 -0.29626,-1.94598 -0.80728,-3.96824 -2.14807,-5.47608 -0.58582,-0.68705 -1.10289,-1.453 -1.78134,-2.04995 -0.15146,-0.11192 -0.36578,-0.12094 -0.54532,-0.13144 z"
       id="path2065"
       transform="matrix(0.26458333,0,0,0.26458333,79.570321,78.14333)" />
    <path
       style="fill:#f38fb1;fill-opacity:1;stroke-width:0.0625"
       d="m 514.77199,367.62501 c -1.08588,0.11765 -1.94252,0.92641 -2.6582,1.68664 -1.84645,2.14048 -3.00817,4.80718 -3.67212,7.53627 -0.49555,2.11169 -0.53537,4.36087 0.0472,6.45836 0.26212,0.8662 1.04626,1.78017 2.04333,1.57202 1.08592,-0.26776 1.79315,-1.23834 2.42261,-2.09265 2.05066,-3.0868 3.21714,-6.72216 3.58362,-10.39771 0.0834,-1.30745 0.18574,-2.71797 -0.42896,-3.92065 -0.27233,-0.47292 -0.76752,-0.86616 -1.33752,-0.84228 z"
       id="path2067"
       transform="matrix(0.26458333,0,0,0.26458333,79.570321,78.14333)" />
    <path
       style="fill:#f38fb1;fill-opacity:1;stroke-width:0.0625"
       d="m 529.74233,377.42554 c -1.19636,0.0817 -2.01368,1.11957 -2.6717,2.0101 -1.68258,2.47849 -2.7326,5.33867 -3.43642,8.23556 -0.32518,1.21112 -0.42323,2.46429 -0.37824,3.7143 -0.0592,1.01719 0.26213,2.10011 1.0242,2.80262 0.66066,0.57221 1.66269,0.36285 2.24463,-0.21753 1.13916,-1.04428 1.87089,-2.44225 2.62353,-3.77112 1.49871,-2.72218 2.25808,-5.81634 2.41407,-8.90833 -0.002,-1.13005 0.0456,-2.40676 -0.68055,-3.34863 -0.27842,-0.3319 -0.70408,-0.53407 -1.13952,-0.51697 z"
       id="path2069"
       transform="matrix(0.26458333,0,0,0.26458333,79.570321,78.14333)" />
    <path
       style="fill:#f38fb1;fill-opacity:1;stroke-width:0.125"
       d="m 145.84734,400.45617 c -2.88846,0.0574 -5.11448,2.51915 -5.8955,5.14087 -0.60937,2.14608 -0.42789,4.44405 -0.10645,6.62476 1.26729,5.74127 4.1189,11.43547 9.04224,14.87036 1.62856,1.12029 3.55259,1.98961 5.57726,1.76511 2.71226,4.5e-4 4.73548,-2.40174 5.54334,-4.79099 1.19715,-3.91769 0.17129,-8.12863 -1.38134,-11.79712 -1.85901,-4.12754 -4.59188,-8.05587 -8.47413,-10.50171 -1.29603,-0.77493 -2.77409,-1.35055 -4.30542,-1.31128 z"
       id="path2071"
       transform="matrix(0.26458333,0,0,0.26458333,79.570321,78.14333)" />
    <path
       style="fill:#f38fb1;fill-opacity:1;stroke-width:0.125"
       d="m 157.52337,371.74157 c -1.14715,0.14244 -1.75427,1.34744 -2.31958,2.22168 -1.36963,2.61662 -0.96179,5.65438 -0.97668,8.49207 0.16667,2.17576 0.59409,4.43832 1.77478,6.30822 0.56928,0.9019 1.98016,1.61177 2.84179,0.67847 1.37525,-1.09257 2.13691,-2.7407 2.39185,-4.44922 0.54656,-3.37921 0.5034,-6.94738 -0.61231,-10.2102 -0.4872,-1.26243 -1.46929,-2.39093 -2.68701,-2.98389 -0.13331,-0.0411 -0.2733,-0.0613 -0.41284,-0.0571 z"
       id="path2073"
       transform="matrix(0.26458333,0,0,0.26458333,79.570321,78.14333)" />
    <path
       style="fill:#f38fb1;fill-opacity:1;stroke-width:0.125"
       d="m 133.9721,368.61755 c -1.24567,1.20641 -1.16671,3.11302 -1.31079,4.71484 -0.1189,3.46581 0.64992,7.12647 2.82568,9.89746 0.77371,1.0439 2.42411,1.83802 3.52735,0.81641 1.43532,-1.45455 1.47511,-3.76367 1.11084,-5.65381 -0.76032,-3.10745 -1.98955,-6.16574 -3.90064,-8.74927 -0.52698,-0.60038 -1.40783,-1.54232 -2.25244,-1.02563 z"
       id="path2075"
       transform="matrix(0.26458333,0,0,0.26458333,79.570321,78.14333)" />
    <path
       style="fill:#f38fb1;fill-opacity:1;stroke-width:0.125"
       d="m 118.74993,377.47057 c -1.43117,0.086 -2.07638,1.64326 -2.14782,2.8897 -0.2116,2.60998 0.5605,5.20558 1.48913,7.61787 1.0012,2.28579 2.2931,4.66529 4.46362,6.02906 1.01248,0.64105 2.38762,0.0352 2.69141,-1.09693 0.78602,-2.15615 -0.13227,-4.3929 -0.8919,-6.41028 -1.20063,-2.87719 -2.45038,-5.79669 -4.32636,-8.30749 -0.31778,-0.38515 -0.74664,-0.75173 -1.27808,-0.72193 z"
       id="path2077"
       transform="matrix(0.26458333,0,0,0.26458333,79.570321,78.14333)" />
    <path
       style="fill:#f38fb1;fill-opacity:1;stroke-width:0.125"
       d="m 307.03618,164.45487 c -4.80748,0.17728 -9.46854,1.87816 -13.60962,4.25757 -1.98294,1.23558 -4.07321,2.65979 -5.10937,4.82959 -0.68381,1.66027 0.66678,3.16178 1.64544,4.35473 2.90497,3.25723 6.21194,6.19993 9.91657,8.51978 4.46086,2.46728 9.84091,2.77565 14.76664,1.78665 4.33843,-0.79543 8.40776,-2.79481 11.84505,-5.53294 1.26237,-0.96861 2.13468,-2.64599 1.56922,-4.23344 -1.99234,-5.91958 -7.18535,-10.28732 -12.90015,-12.46656 -2.58891,-0.96474 -5.35279,-1.55514 -8.12378,-1.51538 z"
       id="path2079"
       transform="matrix(0.26458333,0,0,0.26458333,79.570321,78.14333)" />
    <path
       style="fill:#ffffff;fill-opacity:1;stroke-width:0.353553"
       d="m 285.37806,153.08576 c -1.33743,-0.28468 -2.76595,0.94546 -1.74222,2.22697 1.64118,2.64681 3.19648,5.85452 6.09258,7.28582 1.92398,-0.38564 2.27562,-2.96898 3.05699,-4.49123 0.83903,-1.64111 0.28822,-3.88808 -1.73531,-4.23366 -1.8229,-0.58066 -3.76552,-0.78157 -5.67204,-0.7879 z"
       id="path2081"
       transform="matrix(0.26458333,0,0,0.26458333,79.570321,78.14333)" />
    <path
       style="fill:#ffffff;fill-opacity:1;stroke-width:0.353553"
       d="m 334.68356,161.82377 c -1.30961,-0.17397 -3.32297,0.31238 -2.8153,2.0571 0.46466,2.21468 0.48282,5.13383 2.48868,6.54903 2.33523,-0.086 3.94863,-2.39963 5.65409,-3.76479 0.88107,-0.93287 3.06762,-2.80373 1.25125,-3.87252 -2.06762,-0.81419 -4.38176,-0.90351 -6.57872,-0.96882 z"
       id="path2083"
       transform="matrix(0.26458333,0,0,0.26458333,79.570321,78.14333)" />
    <path
       style="fill:#ffffff;fill-opacity:1;stroke-width:0.353553"
       d="m 311.21231,118.73929 c -2.11152,0.32625 -4.57324,1.65741 -5.20179,3.81727 0.0865,2.59153 3.32514,3.41297 5.44755,2.93364 2.09127,0.13876 4.96088,-1.50936 4.60732,-3.85205 -0.8861,-1.58645 -3.02878,-2.83945 -4.85308,-2.89886 z"
       id="path2085"
       transform="matrix(0.26458333,0,0,0.26458333,79.570321,78.14333)" />
    <path
       style="fill:#808080;fill-opacity:1;stroke-width:0.176777"
       d="m 347.60264,336.47353 c -18.0834,0.0645 -36.18284,-0.0444 -54.24591,0.93701 -4.44853,0.34772 -8.97043,0.52189 -13.30281,1.66181 -1.7264,0.58261 -2.46071,2.43241 -3.79278,3.53841 -3.2729,3.48136 -6.79467,6.75621 -10.04965,10.23055 -0.42103,1.0953 0.9635,1.95455 1.37197,2.90098 1.79481,2.51821 3.39464,5.58987 6.5077,6.67322 4.18921,1.58772 8.75135,1.66062 13.15294,2.1776 9.15047,0.79601 18.34811,0.76728 27.52571,0.83261 18.22546,-0.25609 36.50592,-0.20423 54.63817,-2.31208 3.64823,-0.50758 7.47761,-0.52562 10.90836,-2.00082 2.32928,-1.3396 3.12181,-4.13251 4.41901,-6.31658 0.37365,-0.79192 1.31413,-1.90944 0.32669,-2.6324 -4.15682,-3.90186 -8.90052,-7.50766 -11.59372,-12.5874 -0.70548,-0.99471 -0.9444,-2.48201 -2.03094,-3.08303 -7.94064,-0.0505 -15.89076,-0.006 -23.83474,-0.0199 z m 16.71299,2.49801 c 2.05339,0.53757 3.78839,2.20417 4.67596,4.11247 0.15179,1.08481 0.42135,2.71094 1.81334,2.76835 2.31272,0.89486 3.50447,3.67899 3.20649,6.04942 -0.32768,2.60205 -2.9691,4.19184 -5.42828,4.2751 -2.74236,0.2488 -5.87881,-0.32826 -8.1704,1.58719 -1.73555,1.51147 -3.91023,3.28226 -6.37398,2.49145 -2.37109,-0.73355 -3.32932,-3.30779 -4.7885,-5.07819 -1.34134,-1.92695 -3.30934,-3.42056 -4.35486,-5.53843 -0.68268,-2.09971 1.16914,-3.79296 2.53116,-5.09061 0.92121,-0.99313 2.20202,-1.63267 3.58763,-1.42834 2.25772,0.0502 4.78221,0.72892 6.76969,-0.74063 2.06945,-1.24401 3.93927,-3.4144 6.53175,-3.40778 z m -74.23136,3.00658 c 1.7659,-0.16724 3.44593,0.61291 4.59307,1.93559 1.55388,1.61364 3.43193,3.48105 3.35808,5.88333 -0.73487,2.5416 -2.49051,4.80144 -4.66973,6.27902 -2.19024,0.80122 -4.59805,0.81397 -6.88532,0.80896 -3.62963,-0.38373 -6.74689,-2.92583 -8.4801,-6.03975 -1.10389,-2.20914 0.53648,-4.49893 1.95836,-6.11019 1.96719,-2.33722 5.22803,-2.43764 8.03257,-2.67051 0.69665,-0.0482 1.39464,-0.0829 2.09307,-0.0865 z m 19.47133,1.14145 c 3.20278,0.0836 6.95921,0.17559 9.29045,2.71207 1.68102,1.9493 1.70441,4.84152 1.01059,7.19192 -1.40123,3.22426 -5.31393,4.26082 -8.49736,4.41562 -2.60634,0.0588 -5.59286,0.20513 -7.56411,-1.82543 -1.8149,-1.70427 -3.89614,-4.29573 -2.91164,-6.98199 0.92195,-2.14296 2.76195,-3.73774 4.72014,-4.95907 1.19455,-0.89024 2.57109,-0.46596 3.95193,-0.55312 z"
       id="path2087"
       transform="matrix(0.26458333,0,0,0.26458333,79.570321,78.14333)" />
    <path
       style="fill:#02daff;fill-opacity:1;stroke-width:0.176777"
       d="m 363.62419,341.84896 c -3.03979,0.16153 -4.54844,3.61489 -7.58448,3.7679 -2.55302,0.34983 -5.186,-0.55639 -7.68841,0.15882 -1.57182,0.69483 -1.28005,2.7603 -1.08794,4.14908 0.29659,1.77267 2.33426,1.97463 3.78275,2.04639 1.18886,-0.0999 0.90264,1.35895 1.04681,2.10168 0.12091,1.52188 0.3855,3.75621 2.26326,4.03579 1.83627,0.0634 3.19207,-1.53739 4.55442,-2.54807 1.58955,-1.50476 3.87929,-1.96172 6.03785,-2.00386 1.82154,-0.25402 3.96968,0.0806 5.49096,-1.14566 1.20311,-1.47201 0.33508,-3.81621 -1.36208,-4.48917 -0.78061,-0.57053 -2.1371,-0.39036 -2.60538,-1.31512 -0.21571,-1.49827 0.25048,-3.59995 -1.40627,-4.44289 -0.43718,-0.24206 -0.94448,-0.34166 -1.44149,-0.31489 z"
       id="path2103"
       transform="matrix(0.26458333,0,0,0.26458333,79.570321,78.14333)" />
    <path
       style="fill:#02daff;fill-opacity:1;stroke-width:0.176777"
       d="m 310.33948,345.50879 c -2.83313,-0.0533 -5.95843,0.9753 -7.62799,3.37844 -1.2952,1.9872 0.0749,4.55698 2.05469,5.45384 2.88979,1.51997 6.47274,1.74025 9.53075,0.61803 1.80146,-1.00667 3.67119,-2.53338 4.11178,-4.64764 -0.14119,-2.21754 -2.25252,-3.71866 -4.13837,-4.5085 -1.25259,-0.45609 -2.62788,-0.24392 -3.93086,-0.29417 z"
       id="path2105"
       transform="matrix(0.26458333,0,0,0.26458333,79.570321,78.14333)" />
    <path
       style="fill:#02daff;fill-opacity:1;stroke-width:0.176777"
       d="m 287.40132,344.62595 c -2.57564,-0.0565 -5.65201,0.57177 -6.90707,3.09566 -0.99189,2.35661 0.84937,4.84587 2.79943,6.04114 2.49824,1.35603 5.52244,1.15352 8.21286,0.57866 2.75307,-0.7308 4.76622,-4.06886 3.34046,-6.73236 -1.26085,-2.18096 -3.9375,-3.1529 -6.36707,-2.98552 -0.35956,-0.003 -0.71906,-0.001 -1.07861,0.002 z"
       id="path2107"
       transform="matrix(0.26458333,0,0,0.26458333,79.570321,78.14333)" />
    <path
       style="fill:#49adef;fill-opacity:1;stroke-width:0.707107"
       d="m 419.31136,217.81403 c -7.94181,2.65873 -14.15863,8.77476 -21.83726,12.12126 -19.63209,9.93625 -41.45861,16.06587 -63.30932,17.6177 -20.2777,0.48321 -40.8798,1.37585 -60.37792,-4.96951 -16.26931,-4.89729 -31.70933,-12.37225 -45.75755,-21.97003 -3.17897,0.68545 -4.97962,4.85078 -7.48953,7.05312 -1.78475,1.94514 -5.43175,5.74406 -1.88378,7.90523 4.65607,3.41758 10.69734,6.19059 14.84234,9.44512 -8.11384,1.14758 -16.6521,-0.41326 -24.51395,2.11166 -4.90929,3.51324 -5.58539,10.35205 -8.53915,15.28289 1.52055,3.53081 6.25622,4.99575 9.36364,7.25337 1.87019,1.13784 6.3373,3.18321 1.28163,2.5826 -4.90102,0.46662 -11.65234,-1.07021 -15.01773,3.47753 -3.63015,11.65236 -4.90299,24.12489 -4.24526,36.31351 1.41887,19.99633 10.07106,39.8247 24.93366,53.43795 7.18857,5.45633 16.79591,8.50889 25.66024,6.29905 0.71702,-1.36098 -0.96191,-8.09709 0.41985,-6.39987 3.08028,5.16555 9.61674,8.46774 15.57016,7.95219 3.36573,-0.78106 8.53946,-3.16804 6.56973,-7.50887 -3.18274,-7.48723 -9.02596,-14.63722 -10.6425,-22.27524 2.15083,3.28096 5.12424,6.14717 8.27397,2.00393 4.47375,-3.43441 10.62039,-7.65476 10.25029,-13.94602 -2.34088,-5.45475 -9.71975,-4.99152 -14.59396,-6.16685 -8.78588,-1.12263 -19.84638,-3.88205 -22.60787,-13.61005 -1.64746,-5.61927 -0.80985,-12.29124 0.22512,-17.47741 2.14391,7.57867 2.45855,17.61209 10.69361,21.37617 3.92972,1.53292 8.23612,4.23883 12.54009,3.51343 4.39737,-5.19853 5.54929,-12.4583 9.2794,-18.13618 8.57164,-16.03958 24.73515,-27.16801 42.18545,-31.68607 12.14595,-0.69133 24.63673,-1.78595 36.61507,0.97561 18.17408,5.00497 33.05712,18.24574 41.40263,34.97537 2.77669,4.12866 3.44894,9.51675 6.80953,13.15864 4.16209,0.65662 8.48298,-1.86021 11.91999,-4.05757 5.74088,-5.44324 7.11374,-13.6804 8.37341,-21.1262 1.63586,8.58877 2.86189,19.70464 -4.76744,25.91574 -8.33462,6.81643 -20.246,4.88482 -29.44851,9.76691 -4.70881,3.72491 -0.51327,10.32067 3.14745,13.13948 2.64439,1.93175 6.03174,5.71433 9.59842,4.20397 1.39945,-0.74291 3.02772,-4.03829 3.59354,-3.70264 -1.3478,9.55124 -9.21795,16.64081 -11.89928,25.65195 1.49748,4.80524 8.2923,5.54124 12.489,4.1584 4.80021,-1.61273 8.51369,-5.27977 11.92137,-8.86922 0.28794,2.72399 -3.2144,8.41313 0.45651,9.06178 7.01958,0.21919 14.10436,-0.87313 20.07445,-4.80257 9.57222,-5.5115 15.3992,-15.61626 20.49402,-25.06746 10.50615,-21.01688 10.14755,-45.75644 4.0227,-68.00132 -5.45395,-2.51319 -12.18101,-1.8441 -18.19419,-2.65441 4.19503,-3.19531 10.24939,-4.7621 13.09252,-9.39817 -0.631,-5.31037 -3.95785,-10.02799 -5.80876,-14.99978 -8.20283,-2.36669 -17.29425,-1.70243 -25.8721,-2.47096 -3.02228,-0.36093 5.07019,-3.47301 6.73878,-5.03376 2.7297,-2.38852 7.57596,-3.51692 8.74492,-7.24094 -1.07326,-5.0013 -6.21539,-8.00953 -9.22139,-11.85509 -1.56504,-1.42492 -3.27211,-3.3076 -5.55604,-3.32837 z"
       id="path2133"
       transform="matrix(0.26458333,0,0,0.26458333,79.570321,78.14333)" />
  </g>
  <g
     inkscape:label="Layer 1"
     inkscape:groupmode="layer"
     id="layer1"
     style="display:inline"
     transform="translate(-79.570321,-78.14333)">
    <path
       id="path833"
       style="fill:#000000;stroke-width:0.999999"
       transform="scale(0.26458333)"
       d="m 622.0625,295.3457 c -11.72035,-0.0447 -23.23795,1.71753 -36.74609,5.6211 -7.75597,2.24129 -9.15311,2.33654 -23.25196,1.61132 -15.82873,-0.81417 -41.9175,0.14133 -54.5,1.9961 -13.7091,2.02084 -30.78396,5.95595 -43.52539,10.0293 -14.59234,4.66507 -19.30433,8.02921 -21.89648,15.63671 -1.98047,5.81549 -1.98106,8.92882 -0.004,16.56055 3.58927,13.8514 14.31121,29.79696 34.26367,50.95313 l 9.1836,9.73632 -0.75977,5.76368 c -0.41813,3.16981 -0.72745,12.28868 -0.68555,20.26367 0.0612,11.65372 0.51797,16.1685 2.32032,23 4.85945,18.4193 12.96417,32.72871 26.50195,46.79101 l 8.38281,8.70899 -4.82422,5.46094 c -8.91703,10.09201 -19.66468,30.07887 -24.75586,46.03906 -8.94612,28.045 -8.34019,54.10345 1.75977,75.65625 2.2218,4.74111 4.03906,9.13369 4.03906,9.75976 0,0.62616 -3.14818,4.26364 -6.99804,8.08399 -6.67964,6.6285 -7.06518,6.85535 -8.39844,4.97265 -7.84607,-11.07938 -11.68209,-14.17234 -25.37891,-20.45898 -16.55569,-7.59878 -26.95707,-8.47492 -35.6914,-3.00977 -5.16167,3.22969 -15.48628,14.64792 -17.80664,19.69336 -3.46916,7.54334 -3.01689,18.45639 1.19336,28.80274 8.04497,19.77003 17.09113,34.45696 27.86914,45.24219 3.37583,3.3781 4.82246,5.4666 4,5.77539 -0.70863,0.26619 -26.71409,0.59522 -57.78907,0.73242 l -56.5,0.25 v 2.5 2.5 l 65.5,0.5 c 57.93398,0.44224 304.68555,0.35602 442.95899,0.0195 0.63055,-0.45546 1.28459,-0.88157 1.93945,-1.30078 0.13504,-0.27069 0.23182,-0.45853 0.4668,-0.94531 0.92502,-1.86353 0.96774,-1.91381 2.16797,-3.83594 -11.41562,-0.14851 -19.05103,-0.32001 -19.4668,-0.47656 -1.01877,-0.38351 0.30642,-2.33348 4.58594,-6.75 9.11803,-9.40997 14.9895,-17.98142 21.3789,-31.21094 7.90439,-16.36645 9.27415,-20.67938 9.36524,-29.50586 0.0644,-6.23822 -0.38046,-8.43361 -2.63086,-13 -2.57832,-5.23177 -12.20465,-15.67318 -17.7793,-19.28516 -6.69513,-4.33799 -19.51937,-4.17456 -29.89062,0.38086 -2.42249,1.06405 -4.52769,1.81216 -4.67774,1.66211 -0.15005,-0.15005 0.579,-2.74259 1.6211,-5.76172 2.34829,-6.80353 2.57622,-21.10943 0.46093,-28.99023 -3.02865,-11.28355 -0.63047,-20.79367 5.93555,-23.53711 4.90545,-2.04964 7.65505,-1.83684 13.37695,1.03711 9.6861,4.86504 19.82192,2.96984 25.56446,-4.78125 3.16664,-4.27423 3.51618,-15.2398 0.67382,-21.11133 -2.88268,-5.95483 -8.48405,-10.84966 -15.66992,-13.69141 -8.5101,-3.36548 -25.87379,-3.41136 -35.79883,-0.0937 -11.12719,3.71921 -22.32694,12.85249 -26.14453,21.31836 -0.95735,2.12308 -2.01102,3.85314 -2.33984,3.8418 -0.32897,-0.01 -1.68468,-3.49735 -3.01367,-7.75 -2.65618,-8.49944 -10.67561,-24.75387 -16.71485,-33.88086 -2.12844,-3.21664 -6.99703,-9.14447 -10.81836,-13.17383 -5.06464,-5.34032 -6.69097,-7.68715 -6,-8.65429 0.52131,-0.72972 2.59726,-3.28203 4.61133,-5.67383 7.46827,-8.86889 17.83789,-31.39502 17.83789,-38.74805 0,-2.52782 1.35812,-2.61744 7.125,-0.47656 2.79421,1.03733 7.86841,1.66987 14.04102,1.75 10.52417,0.13667 12.79614,-0.75407 17.27148,-6.76953 3.9512,-5.311 1.64384,-22.02131 -5.67578,-41.10547 -13.45504,-35.08075 -40.09803,-63.64246 -86.5039,-92.73242 -16.79626,-10.5289 -29.06611,-16.10345 -46.75782,-21.2461 -14.63814,-4.25507 -16.93699,-4.65481 -27.00195,-4.69336 z m -0.23242,7.38086 c 1.27148,-4.5e-4 2.93002,0.10774 5.11523,0.3125 l 7.61914,0.71289 -0.008,3.13282 c -0.01,3.47168 -2.67929,27.41361 -3.58203,32.13281 -0.33736,1.76371 3.39796,-3.59348 9.06445,-13 5.30109,-8.79999 9.9833,-16.34689 10.4043,-16.77149 1.09115,-1.10037 16.12109,4.386 16.12109,5.88477 0,0.68466 -1.7653,5.77762 -3.92383,11.31641 -2.15847,5.53878 -3.68914,10.07031 -3.40039,10.07031 0.28868,0 4.76263,-3.64449 9.94141,-8.09961 l 9.41602,-8.10156 8.95507,5.35156 c 8.84176,5.2823 10.53928,6.84961 7.41407,6.84961 -1.99351,0 -8.40235,2.98532 -8.40235,3.91406 0,0.37727 2.78483,1.26009 6.1875,1.96289 7.20654,1.48849 14.32627,4.8787 19.15821,9.12109 4.06378,3.56807 4.48435,3.63729 5.49609,0.90235 0.72718,-1.96577 1.25656,-1.7189 8.29102,3.87109 29.59615,23.51898 50.83695,57.62891 55.67773,89.41016 1.7139,11.25237 -2.20879,14.20253 -15.88867,11.94336 -7.78715,-1.28602 -12.77475,-3.3157 -18.06445,-7.34766 -2.00414,-1.52757 -3.85105,-2.77734 -4.10352,-2.77734 -0.25266,0 -0.74893,3.41326 -1.10156,7.58594 -0.35275,4.17271 -0.85527,7.93351 -1.11719,8.35742 -0.26204,0.42395 -6.00159,-1.23348 -12.75391,-3.6836 -11.19764,-4.06314 -27.19838,-8.09913 -25.13476,-6.33984 0.46949,0.40021 7.60352,5.08573 15.85351,10.41211 20.58996,13.29324 18.93064,11.70102 17.00391,16.31836 -0.8835,2.11721 -2.24029,4.82045 -3.01563,6.00586 l -1.41015,2.15429 -6.46875,-3.43554 c -6.668,-3.5407 -17.60938,-7.70445 -17.60938,-6.70117 0,0.31173 4.3875,4.75888 9.75,9.88086 l 9.75,9.3125 -8.5,8.36132 c -9.47505,9.32164 -14.69085,13.09209 -25.88086,18.70118 -14.70156,7.36932 -34.37224,13.05742 -51.87304,15.00195 h -0.002 c -34.73106,3.85897 -60.86154,-0.25327 -88.74414,-13.9668 -18.587,-9.14162 -31.98324,-19.80918 -42.48633,-33.83398 -4.65481,-6.2157 -13.01367,-21.67577 -13.01367,-24.06836 0,-1.35466 5.74769,-3.90445 18.23438,-8.08789 5.06506,-1.69693 9.44606,-3.34866 9.73633,-3.66992 0.61315,-0.67798 -21.72008,0.39999 -27.11524,1.30859 l -3.64258,0.61328 -1.10742,-5.16211 c -1.48686,-6.93309 -1.47934,-6.97282 1.48438,-8.09961 4.64984,-1.76787 32.48969,-8.96484 34.67773,-8.96484 1.706,0 1.8816,-0.24979 0.88086,-1.25 -0.91895,-0.9185 -5.41357,-1.17764 -16.94922,-0.97656 -8.63463,0.15038 -17.04919,0.37565 -18.69922,0.5 l -3,0.22656 0.3418,-6 c 0.18867,-3.29998 0.93946,-8.89781 1.66797,-12.43946 l 1.32422,-6.43945 -5.16797,-5.11133 c -7.5905,-7.50689 -19.65557,-21.14388 -24.78125,-28.00976 -11.24852,-15.06762 -15.38477,-24.12445 -15.38477,-33.6836 0,-5.96655 0.30224,-7.00084 2.81446,-9.62304 4.90238,-5.11699 30.92893,-12.69641 56.01171,-16.31055 16.99503,-2.44879 47.65664,-3.50174 60.17969,-2.06836 8.58157,0.98226 9.47733,0.8919 19,-1.89062 5.49661,-1.60611 12.30369,-3.20061 15.12696,-3.54493 l 5.13281,-0.62695 0.72461,10.125 c 0.39851,5.56815 1.08985,10.12305 1.53515,10.12305 0.44531,0 2.25077,-4.38749 4.01172,-9.75 1.761,-5.36251 3.76837,-10.35527 4.46289,-11.0957 0.60371,-0.64371 1.64649,-0.94456 3.76563,-0.94532 z m -56.17774,12.89258 c -2.38734,0.006 -4.81368,0.28703 -7.0625,0.89258 -4.67758,1.25956 -12.02539,7.53507 -12.02539,10.27148 0,1.21467 1.19371,1.00014 6.25,-1.1289 5.44332,-2.2921 7.64098,-2.63277 17.02539,-2.63477 8.67803,-0.002 10.72148,-0.27377 10.5,-1.39648 -0.70435,-3.56814 -7.52548,-6.0216 -14.6875,-6.00391 z m -49.01367,10.08594 c -14.08504,-0.0524 -33.39003,2.55017 -44.35742,6.96289 -4.26837,1.71734 -6.7168,5.49773 -6.7168,10.37109 0,7.04572 8.97751,18.64783 23.5,30.3711 6.32659,5.10712 9.0506,5.32674 9.90039,0.79687 1.08099,-5.76208 10.57599,-18.68817 23.23438,-31.625 8.95687,-9.1539 11.96897,-12.83788 11.22656,-13.73242 -1.76483,-2.12651 -8.33608,-3.11309 -16.78711,-3.14453 z m -0.18164,4.37109 c 5.42291,-0.006 9.10742,0.52223 9.10742,1.68945 0,0.55416 -4.19186,5.37577 -9.3164,10.71485 -5.12459,5.33907 -11.64046,13.2699 -14.48047,17.62305 -2.84001,4.35314 -5.77529,8.78659 -6.52149,9.85351 -1.27971,1.82975 -1.87681,1.43901 -10.51953,-6.89258 -9.40535,-9.06678 -15.16211,-16.5316 -15.16211,-19.66211 0,-4.01034 4.21809,-6.76547 14.31446,-9.34961 9.67573,-2.47648 23.53993,-3.96688 32.57812,-3.97656 z m 41.37695,39.82617 c -11.5889,0.36973 -22.35372,10.94861 -23.95898,24.75 l -0.625,5.36524 4.55859,-4.17969 c 7.53419,-6.9075 12.01726,-8.76273 21.25586,-8.79297 9.45906,-0.0321 15.81404,2.56951 24,9.82813 2.74999,2.43843 5.17066,4.27428 5.37891,4.07812 0.67835,-0.63938 -1.92532,-9.60826 -3.93164,-13.54101 -4.38323,-8.59181 -12.38966,-14.87619 -21.6836,-17.02149 -1.66476,-0.38428 -3.33858,-0.53914 -4.99414,-0.48633 z m 184.62305,9.7793 c -0.24709,-0.0112 -0.50069,7.9e-4 -0.76562,0.0312 -3.1327,0.36321 -3.13895,0.7118 -0.25196,13.80469 1.59614,7.23885 2.09999,13.01265 2.11133,24.25976 l 0.0137,14.76172 11.25,5.40039 h 0.002 c 12.0418,5.78189 13.68242,6.24532 15.54882,4.37891 1.82264,-1.82264 1.45491,-6.36729 -1.34179,-16.57031 -4.70257,-17.15611 -11.05879,-30.02298 -20.26953,-41.03516 -3.13314,-3.74594 -4.56721,-4.95267 -6.29688,-5.03125 z m -61.19531,8.10742 c -7.52759,0.147 -15.54842,3.52886 -21.85547,9.81055 -4.15495,4.13824 -8.8418,11.3919 -8.8418,13.68555 0,0.46647 3.54419,-0.91209 7.875,-3.06446 8.84051,-4.39358 17.61072,-5.74145 24.75977,-3.80664 5.51248,1.49193 14.15865,8.03927 17.86523,13.5293 l 3,4.44336 0.86133,-3.47852 c 2.07935,-8.41375 -2.5891,-21.4119 -9.61328,-26.76953 -3.98064,-3.03618 -8.90033,-4.45019 -14.05078,-4.34961 z m 65.68359,3.07227 c 1.09028,0.093 8.38929,11.86333 11.06641,17.92773 2.61906,5.93292 8.55273,24.91557 8.55273,27.35938 0,1.87544 -0.3697,1.76685 -9.75,-2.83008 l -8.25,-4.04297 v -13.19531 c 0,-7.25753 -0.48053,-15.7967 -1.06836,-18.97656 -0.58775,-3.17983 -0.87407,-5.97516 -0.63671,-6.2129 0.0219,-0.0219 0.0508,-0.0323 0.0859,-0.0293 z m -135.87695,20.56055 c -1.89436,3.2e-4 -3.59313,0.15187 -4.90234,0.48046 -3.43238,0.86147 -6.60157,4.44198 -6.60157,7.45899 0,3.29246 3.91623,8.25739 8.42774,10.68555 3.46461,1.86473 3.64531,2.20957 3.36719,6.4121 -0.27478,4.14936 -0.52503,4.50163 -3.79493,5.35157 -1.92499,0.50128 -7.54999,0.7228 -12.5,0.49414 -11.05769,-0.51107 -16.87796,-3.05663 -19.08789,-8.34571 -1.09874,-2.62972 -2.0328,-3.4414 -3.95703,-3.4414 -4.4598,0 -4.51393,5.36892 -0.10742,10.67383 1.38463,1.66688 2.61447,4.81891 2.99609,7.68164 0.35603,2.67038 2.89924,9.52088 5.65039,15.22461 5.77255,11.96772 13.02333,20.16237 20.16407,22.78711 2.89096,1.06284 6.61044,1.47966 11.1289,1.24609 10.58699,-0.54773 17.82688,-4.69185 30.96289,-17.72461 6.51425,-6.46303 10.75,-11.45251 10.75,-12.66211 0,-1.09784 1.12501,-2.73389 2.5,-3.63476 5.15891,-3.38023 1.67232,-8.76633 -3.83203,-5.91993 -7.04277,3.64199 -18.23817,2.69565 -28.46289,-2.40429 l -5.29687,-2.64063 0.29687,-4.96289 c 0.29488,-4.94808 0.30866,-4.96725 4.79492,-6.27734 5.21511,-1.52296 11,-6.38653 11,-9.24805 0,-3.69706 -1.24557,-5.22988 -6.375,-7.8418 -3.9926,-2.03303 -11.43802,-3.39369 -17.12109,-3.39257 z m 0.97266,3.18554 c 0.93287,-0.0292 1.82273,0.40905 3.04492,1.30274 1.61718,1.18253 1.70237,1.63362 0.56836,3 -1.64693,1.98451 -6.433,2.10184 -8.01368,0.19726 -0.92816,-1.11844 -0.70125,-1.73858 1.09961,-3 1.39259,-0.97546 2.36791,-1.47083 3.30079,-1.5 z m -26.84375,34.42188 c 0.76616,-0.0232 2.36407,0.0705 4.11718,0.2539 4.55777,0.47653 5.05078,1.38368 3.08985,5.6875 -0.63829,1.40085 -1.46731,2.54688 -1.84375,2.54688 -1.41959,0 -6.75409,-7.7147 -5.82617,-8.42578 0.0455,-0.0349 0.2075,-0.0548 0.46289,-0.0625 z m 50.9375,8.70312 c 2.39588,0.0647 5.54832,0.56982 6.20117,1.22266 0.33263,0.33263 -0.94343,1.92673 -2.83399,3.54297 -1.89055,1.61624 -3.76143,2.95584 -4.1582,2.97851 -0.93063,0.0524 -2.63646,-6.18847 -2.00195,-7.32422 0.18989,-0.3399 1.35543,-0.45874 2.79297,-0.41992 z m -28.16016,2.79102 c 7.80801,0.0141 15.84192,4.70998 19.21484,11.23242 2.00062,3.8688 1.45742,4.93748 -4.18164,8.24219 -6.33237,3.711 -15.20661,4.41752 -21.04492,1.67578 -4.21051,-1.9773 -12.39844,-9.68359 -12.39844,-11.66992 0,-3.78728 11.0815,-9.49559 18.41016,-9.48047 z m 112.31641,52.88672 c 2.22773,0.081 4.13583,2.24914 8.25586,6.84375 8.21883,9.16558 8.41167,8.26587 -3.24024,15.17968 l -10.24219,6.07813 5.59571,0.002 c 3.07797,0.002 9.68234,0.29392 14.67578,0.64844 l 9.08008,0.64453 3.47851,7.60352 c 1.91422,4.18197 3.26703,7.94877 3.00586,8.37109 -0.26101,0.42229 -3.80851,2.71934 -7.88477,5.10547 l -7.4121,4.33984 9.57226,0.57032 c 5.26469,0.31406 9.74292,0.74096 9.95117,0.94921 0.99171,0.99171 3.45276,13.25736 4.36914,21.77539 2.40926,22.39469 -3.66529,44.06901 -17.13867,61.1504 -5.57476,7.06755 -7.19524,8.41732 -14.29297,11.90039 -4.46392,2.19053 -7.43005,2.94474 -11.58398,2.94531 -3.07087,4.5e-4 -5.83051,-0.24886 -6.13477,-0.55274 -0.30406,-0.3041 0.0706,-2.62747 0.83399,-5.16406 0.76327,-2.53659 1.22778,-4.77417 1.03125,-4.9707 -0.19665,-0.19661 -1.43509,1.23928 -2.75196,3.1914 -1.43013,2.12009 -4.53036,4.60353 -7.69726,6.16602 -4.78738,2.36194 -5.6822,2.50117 -9.23242,1.4375 -6.55835,-1.96494 -6.85028,-4.15105 -1.59375,-11.92773 5.34115,-7.9019 8.57718,-14.72579 8.60742,-18.15235 l 0.0215,-2.47265 -1.70898,2.47265 c -3.5449,5.12837 -3.91151,5.24475 -8.00391,2.54492 -7.36811,-4.86088 -9.28711,-7.33638 -9.28711,-11.98437 0,-3.72779 3.28829,-5.33008 13.5,-6.58008 18.92599,-2.31677 25.60856,-9.69146 24.03125,-26.52344 -0.91283,-9.74146 -2.09858,-11.00308 -2.84375,-3.02343 -1.15109,12.32692 -6.73034,19.6981 -16.05273,21.21093 -3.44092,0.55835 -3.71255,0.40038 -4.82422,-2.79101 -5.99187,-17.20143 -18.74904,-32.67854 -32.81055,-39.81055 -12.38683,-6.28259 -18.23498,-7.57559 -34,-7.51172 -13.584,0.055 -15.01441,0.24886 -22.66406,3.07617 -10.92181,4.0368 -18.35214,8.62265 -25.83398,15.94336 -6.55964,6.41836 -11.92603,14.9849 -15.61133,24.92188 -1.22385,3.30002 -2.52647,6.35648 -2.89649,6.79101 -1.08525,1.27435 -10.17305,-1.17859 -14.21484,-3.83593 -4.78692,-3.14725 -6.51901,-6.61452 -7.97266,-15.96485 -1.3734,-8.834 -2.45797,-8.08421 -3.42968,2.3711 -1.45161,15.61878 5.66031,22.9854 24.23242,25.0957 8.63807,0.98154 11.13478,1.82421 13.36523,4.51172 2.28911,2.75818 -1.35682,8.92713 -7.80468,13.20703 l -5.52149,3.66406 -2.83789,-3.39844 -2.83789,-3.40039 1.59375,5.48047 c 0.87711,3.01357 3.84431,8.93182 6.5918,13.15235 5.59699,8.59767 5.54964,10.68667 -0.28516,12.7207 h -0.002 c -3.93347,1.37121 -4.4308,1.3494 -9.3711,-0.39844 -3.79275,-1.34181 -7.73106,-4.795 -8.75781,-7.67969 -0.99262,-2.78823 -1.65846,-0.0114 -0.75391,3.14258 0.52479,1.82941 0.71523,3.71191 0.42383,4.1836 -0.29151,0.47168 -3.09065,0.85787 -6.2207,0.85742 -6.81793,-9.5e-4 -17.10363,-4.40347 -21.51563,-9.20899 -19.50285,-21.2423 -26.09044,-46.91597 -20.14453,-78.5039 2.12247,-11.27562 2.00266,-11.16514 12.53711,-11.5 l 9.03907,-0.28711 -7.55079,-4.47266 c -6.31086,-3.73761 -7.45071,-4.80465 -6.94531,-6.5 0.64006,-2.14726 6.25377,-13.67876 7.07227,-14.52734 0.26524,-0.27504 6.63363,-0.72485 14.15039,-1 l 13.66601,-0.5 -9.42383,-5.52149 c -5.18311,-3.03696 -9.58024,-5.99094 -9.77148,-6.56445 -0.19117,-0.57354 2.04018,-3.67101 4.95898,-6.88281 l 5.30665,-5.83985 6.12695,4.18164 c 8.51951,5.81534 27.0382,14.37898 37.97461,17.56055 24.63401,7.16652 49.20274,8.48552 76.03515,4.08203 25.17079,-4.13076 46.5981,-12.25618 63.44141,-24.05859 4.00576,-2.80691 6.23415,-4.39036 8.12695,-4.55273 0.1521,-0.0131 0.30266,-0.0171 0.45118,-0.0117 z m 81.77343,35.60742 10,0.004 c 8.66892,0.004 10.65904,0.33634 14.94922,2.5 12.70632,6.40827 15.46421,21.20905 4.78321,25.67188 -4.11935,1.72116 -9.51299,0.67589 -14.38672,-2.78906 -5.05678,-3.59509 -15.77681,-1.67246 -22.20118,3.98047 -5.75852,5.06702 -7.66791,15.76838 -5.11132,28.65234 2.48012,12.49863 1.65318,22.63068 -2.54493,31.1582 -3.34681,6.79835 -12.06094,16.56914 -18.01562,20.19922 -1.90934,1.16391 -3.9391,2.11714 -4.50977,2.11914 -1.18488,0.004 -10.46289,-9.16283 -10.46289,-10.33789 0,-0.42508 1.97768,-4.92083 4.39453,-9.99023 7.28939,-15.28986 7.84483,-17.90233 8.17969,-38.48828 0.16392,-10.076 0.60472,-19.71222 0.97852,-21.41407 1.00717,-4.58562 5.99046,-14.83918 8.86328,-18.23632 l 2.51367,-2.97266 3.04102,2.91601 c 3.93558,3.77069 5.4886,2.52533 4.16992,-3.34375 -0.9391,-4.17966 -0.93161,-4.1933 2.91992,-6.1582 2.12341,-1.08329 4.06217,-1.9707 4.30859,-1.9707 0.24639,0 1.72608,2.02402 3.28907,4.49804 3.84272,6.08247 5.33494,5.86213 5.06054,-0.74804 z m -173.5,20.05859 c 10.93316,0.0501 13.41641,0.38991 19.80664,2.70899 16.7215,6.06825 27.86124,15.72319 35.59571,30.85546 4.8051,9.40101 5.42998,11.70182 3.34765,12.29883 -8.23903,2.36232 -10.90306,3.9597 -12.79687,7.67188 l -1.99219,3.9082 -36.23047,0.004 c -19.92631,0.003 -40.50546,0.28894 -45.73047,0.63476 l -9.5,0.62891 -1.88476,-4.27734 c -1.54772,-3.51077 -2.76647,-4.65019 -6.80274,-6.35547 -5.88854,-2.48788 -5.87962,-2.91126 0.36914,-15.45899 7.30103,-14.6606 19.07816,-24.49059 36.31836,-30.3125 5.93545,-2.00424 8.901,-2.35539 19.5,-2.30664 z m -317.16992,38.85156 c -0.8816,0.0762 -1.81545,1.24925 -2.91015,3.53125 -0.92289,1.92371 -2.90134,3.85158 -4.75,4.62891 -4.08734,1.71867 -4.00434,3.06469 0.32031,5.12695 1.91939,0.91533 3.77495,2.59415 4.12304,3.73243 0.34791,1.13828 1.08282,2.63281 1.63282,3.32031 h -0.002 c 1.61156,2.0143 2.63598,1.47355 4.17383,-2.20703 0.98434,-2.35582 2.5805,-3.9334 5.01172,-4.94922 4.5013,-1.88017 4.51064,-3.17485 0.0352,-5.04492 -2.44638,-1.02214 -4.0008,-2.58782 -5.04297,-5.08203 -0.88214,-2.11125 -1.7102,-3.1328 -2.5918,-3.05665 z m 360.7168,24.58985 1.94531,3.61328 c 1.0704,1.98762 4.12537,5.52141 6.78906,7.85156 l 4.84375,4.23633 -2.11914,4.0625 c -2.36541,4.53815 -1.59258,4.31274 -21.50586,6.29102 -14.53319,1.44378 -59.19731,1.97105 -71.97461,0.84961 -15.15341,-1.3301 -16.53289,-1.79785 -19.84179,-6.71876 l -2.81836,-4.1914 5.94922,-5.74805 c 3.27201,-3.16104 6.11539,-6.27658 6.31836,-6.92383 0.65348,-2.08531 22.11785,-3.31458 57.89062,-3.31836 z m -7.46875,1 c -1.05782,0 -3.24059,1.107 -4.84961,2.46094 -2.34418,1.97253 -3.63714,2.34599 -6.50391,1.88086 -2.95513,-0.47955 -4.02478,-0.13151 -6.15039,1.99414 -3.20772,3.20783 -3.24184,5.08628 -0.14648,8.18164 1.33512,1.33511 3.23332,3.79019 4.21679,5.45507 2.19164,3.71014 6.30971,4.07315 9.54102,0.8418 1.61873,-1.61885 3.19918,-2.12434 6.10352,-1.95312 5.21896,0.30795 8.71093,-2.02149 8.71093,-5.8125 0,-2.81492 -2.17544,-6.04883 -4.07031,-6.04883 -0.51069,0 -0.92969,-0.67501 -0.92969,-1.5 0,-2.12213 -3.63643,-5.5 -5.92187,-5.5 z m -73.62891,3.04883 c -0.83688,-3.7e-4 -1.85352,0.0694 -3.16015,0.17773 -4.55188,0.37746 -6.07147,0.98369 -7.95704,3.17578 -1.28182,1.49019 -2.33203,3.52243 -2.33203,4.51758 0,2.80906 3.7919,6.95594 7.31446,8 1.7529,0.5184 4.08555,0.75556 5.18554,0.52539 1.1,-0.23017 2.50273,-0.42408 3.11524,-0.43164 2.05776,-0.0252 6.38476,-5.26205 6.38476,-7.72656 0,-1.38611 -1.31451,-3.75592 -3.04297,-5.48438 -2.12037,-2.12048 -2.99717,-2.7528 -5.50781,-2.7539 z m 18.38672,1.03515 c -2.40931,0.0231 -3.51896,0.6214 -5.63086,2.39844 -4.00713,3.37175 -4.17782,6.89243 -0.51758,10.71289 2.27687,2.37653 3.49076,2.80469 7.94532,2.80469 6.78103,0 10.73037,-2.98245 10.58789,-7.99414 -0.13788,-4.84978 -3.05183,-7.24422 -9.45704,-7.77539 -1.17673,-0.0976 -2.12463,-0.15418 -2.92773,-0.14649 z m 55.14063,0.24024 c 1.29222,0.0138 2.10274,1.00649 1.83789,2.86328 -0.23524,1.64927 0.31267,2.35293 2.18554,2.80273 1.60936,0.38653 2.5,1.29622 2.5,2.55469 0,1.65453 -0.73448,1.97015 -4.77929,2.04688 -3.6533,0.0695 -5.42021,0.68772 -7.5,2.625 -3.3077,3.08098 -5.22071,2.60354 -5.22071,-1.30079 0,-2.44444 -0.40478,-2.91601 -2.5,-2.91601 -2.02367,0 -2.5,-0.49375 -2.5,-2.5918 0,-2.48394 0.2063,-2.57768 4.91797,-2.25 4.07804,0.28362 5.34608,-0.0638 7.44727,-2.03516 1.3095,-1.22856 2.60626,-1.8096 3.61133,-1.79882 z m -75.61329,2.67578 c 5.61479,0 8.40472,4.08943 5.06641,7.42773 -2.18982,2.18971 -8.69957,2.03575 -10.77344,-0.25586 -3.54829,-3.9208 -0.96198,-7.17187 5.70703,-7.17187 z m 23.15039,0.8789 c 1.95486,0.0442 3.7888,0.56615 4.91602,1.69336 2.05848,2.05845 1.98165,3.0164 -0.42969,5.42774 -3.48238,3.48238 -13,1.66377 -13,-2.48438 0,-2.6177 3.90352,-4.45585 7.66993,-4.62695 0.28243,-0.0128 0.56452,-0.0153 0.84374,-0.01 z m -177.90039,1.11914 c 5.07617,0 16.38868,3.3558 16.38868,4.86133 0,0.39421 -0.90001,2.48114 -2,4.63867 -1.1,2.15759 -1.98362,5.28975 -1.96094,6.96094 l 0.0391,3.03906 1.3418,-3.08398 c 1.82411,-4.18942 6.18301,-7.41602 10.01953,-7.41602 5.55674,0 14.31958,8.32757 20.78125,19.75 1.63347,2.88749 3.38076,4.99503 3.88477,4.6836 0.50394,-0.31151 5.25054,-5.03211 10.54687,-10.49024 l 9.62891,-9.92382 5.79687,6.32617 c 8.97611,9.79585 22.38342,14.84304 33.71875,12.69336 3.38971,-0.64127 6.10083,-0.64625 7.76953,-0.0117 1.40973,0.53597 4.49012,0.97461 6.84571,0.97461 h 4.2832 l 2.29101,9.25 c 2.865,11.56951 7.69479,27.25746 12.37305,40.18945 1.9776,5.46648 3.38673,10.1488 3.13086,10.4043 -0.58806,0.58809 -27.04058,-2.4391 -43.49219,-4.97656 -6.87503,-1.06039 -19.81247,-2.20515 -28.75,-2.54493 l -16.25,-0.61914 -0.0996,-8.10156 c -0.13836,-11.24474 -1.29557,-15.02246 -2.23046,-7.27734 -0.38665,3.20307 -1.38045,7.47806 -2.20704,9.5 -1.8472,4.51861 -9.13586,11.35501 -15.27343,14.32617 v -0.002 c -11.77788,5.70153 -22.47146,2.5161 -34.86329,-10.38868 -13.2049,-13.75162 -27.32421,-42.13208 -27.32421,-54.91992 0,-6.002 3.34721,-15.05599 4.88476,-13.21094 0.39829,0.47796 1.98183,2.58693 3.51953,4.68555 1.5377,2.09862 2.95329,3.65804 3.14453,3.4668 0.1914,-0.19136 -0.14216,-2.2747 -0.74023,-4.63086 -2.48995,-9.80969 4.3133,-18.15234 14.80273,-18.15235 z m 385.58008,0.0469 c 2.83566,0.0357 4.21289,0.62003 6.78516,2.32227 5.14053,3.40191 6.85133,8.54153 5.3125,15.96093 -0.58999,2.84478 -0.91459,5.34291 -0.7207,5.55078 0.19404,0.20803 1.78769,-1.92945 3.54101,-4.75 1.75336,-2.82051 3.49094,-5.1289 3.86133,-5.1289 0.37032,0 1.65409,1.96164 2.85156,4.35937 3.096,6.19911 2.84623,12.71787 -0.85937,22.42188 -10.2556,26.85672 -26.10215,48.1343 -39.61328,53.18945 -9.6872,3.62445 -17.52911,1.912 -27.72461,-6.05078 -6.06943,-4.74028 -8.80276,-9.68876 -10.17579,-18.41992 l -0.7871,-5 -0.84961,5 c -0.46753,2.74998 -0.59414,7.29519 -0.2793,10.10156 l 0.57227,5.10352 -19.30274,0.62304 c -12.03919,0.38843 -25.51398,1.53381 -35.80469,3.04492 -9.07498,1.33267 -16.76682,2.26131 -17.09375,2.0625 -0.327,-0.19863 0.67537,-5.50695 2.22657,-11.79492 2.94791,-11.9498 7.86718,-38.98166 7.86718,-43.22656 0,-3.54864 3.75245,-4.72761 10.91016,-3.42969 11.57053,2.09813 24.71473,-2.66195 33.75781,-12.22461 l 5.16602,-5.46289 9.81445,9.85157 c 5.39811,5.41844 10.15087,9.85156 10.5625,9.85156 0.41167,0 1.68844,-1.84057 2.83594,-4.08985 5.65863,-11.09189 15.52938,-20.91015 21.02148,-20.91015 3.06936,0 8.63998,4.14788 9.96289,7.41797 0.69154,1.70978 0.8541,1.43626 0.90625,-1.53321 0.0382,-2.1809 -0.73096,-4.62432 -1.9375,-6.1582 -1.09999,-1.39842 -1.99809,-2.92156 -1.99609,-3.38476 0.007,-1.6328 9.57224,-4.76797 15.76953,-5.16993 1.36758,-0.0887 2.4747,-0.13885 3.41992,-0.12695 z m -3.58008,18.9668 c -2.44302,-0.0586 -5.91035,2.98857 -7.54492,7.30273 -1.43108,3.77703 -1.35445,10.99901 0.13281,12.48633 0.65999,0.66002 1.70705,1.19922 2.32618,1.19922 1.3542,0 4.77115,-3.62207 6.40625,-6.79102 1.33323,-2.58387 1.7805,-11.24445 0.67383,-13.03515 -0.48078,-0.77792 -1.1798,-1.14258 -1.99415,-1.16211 z m -381.33398,0.26172 c -0.6439,0.0483 -1.26284,0.2981 -1.82617,0.76562 -3.27115,2.7148 -0.25222,16.23836 4.20312,18.82813 2.65384,1.54257 3.11341,1.41467 4.9336,-1.36329 1.91395,-2.921 1.32107,-7.79872 -1.65625,-13.63476 -1.56572,-3.06907 -3.72261,-4.74074 -5.6543,-4.5957 z m 380.82422,1.93554 c 1.6104,0.26578 1.00399,6.9395 -1.19141,11.47461 v 0.002 c -2.77107,5.72293 -4.91211,5.70774 -4.91211,-0.0371 0,-4.38206 3.10218,-10.5349 5.75,-11.4043 0.12725,-0.0418 0.24616,-0.0529 0.35352,-0.0352 z m -380.45117,0.83985 c 1.64268,-0.0739 5.43878,8.19579 5.13086,11.375 -0.68395,7.06125 -6.18947,1.48476 -6.24805,-6.32813 -0.0189,-2.52809 0.41485,-4.7835 0.96484,-5.01367 0.0483,-0.0202 0.0994,-0.0308 0.15235,-0.0332 z m -97.22266,0.60547 c -0.60572,0.0496 -1.23331,0.22825 -1.86523,0.56054 -4.09202,2.15172 -4.71326,5.63632 -1.56446,8.78516 2.51755,2.51754 5.19276,2.54884 7.41993,0.0879 3.4457,-3.80752 0.24977,-9.78053 -3.99024,-9.43359 z m 452.90234,0.3457 c -4.10759,0 -6.63553,11.45144 -3.83203,17.35937 1.37329,2.89399 2.29699,3.64063 4.49414,3.64063 2.76129,0 3.6992,-1.30931 5.47071,-7.63477 1.44997,-5.17735 -2.30744,-13.36523 -6.13282,-13.36523 z m -332.08984,0.23633 c -1.50427,-0.0688 -3.01194,0.96436 -4.08984,3.33007 -1.67743,3.6816 -1.44129,12.57597 0.40429,15.21094 0.90119,1.28659 2.60881,2.22266 4.05274,2.22266 3.42017,0 5.77663,-5.64497 5.13672,-12.30469 -0.49666,-5.16888 -2.99679,-8.3444 -5.50391,-8.45898 z m 332.01758,1.36328 1.86914,2.31054 c 2.13131,2.63207 2.47397,8.67357 0.71094,12.54297 -1.33055,2.92029 -2.10185,3.14011 -3.80664,1.08594 -2.1453,-2.58493 -2.40423,-8.92031 -0.51368,-12.57617 z m -332.57031,0.69726 c 0.3986,-0.0159 0.84068,0.37586 1.6289,1.16407 1.92431,1.9243 2.32966,10.46041 0.64649,13.60546 -0.56935,1.06383 -1.45355,1.9336 -1.96485,1.9336 -2.88907,0 -4.19563,-11.98184 -1.68164,-15.41992 0.61737,-0.84435 0.97249,-1.26729 1.3711,-1.28321 z m 222.18164,2.33008 c 1.64955,-0.0749 2.4057,0.19949 3.07031,0.78711 0.85757,0.75825 3.35861,2.21726 5.55859,3.24219 3.67503,1.71182 3.97601,2.14726 3.69141,5.35351 -1.01386,11.42121 -9.09399,50.59767 -11.10742,53.85547 -0.46443,0.75145 -4.45906,1.66272 -9.6875,2.21094 -10.9906,1.15249 -71.8958,1.9833 -79.32227,1.08203 l -5.42773,-0.6582 -2.88282,-7 c -7.79152,-18.92232 -17.88228,-54.78174 -15.95703,-56.70703 0.63965,-0.63969 2.84051,-0.61126 6.33789,0.0801 26.23525,5.18544 67.3448,4.7889 97.29688,-0.9375 4.23717,-0.81003 6.78013,-1.23373 8.42969,-1.30859 z m 150.16211,1.37305 c -4.53865,0 -9.63904,12.65033 -7.42578,18.41797 1.22039,3.18047 5.16757,1.82672 7.77734,-2.66797 4.51086,-7.76882 4.3321,-15.75 -0.35156,-15.75 z m -411.40235,0.041 c -1.07899,0.07 -2.05855,0.80568 -2.78515,2.40039 -1.37364,3.01486 1.18276,11.82354 4.45507,15.34961 3.13369,3.37671 6.1198,2.55847 6.53321,-1.79101 0.75688,-7.96338 -4.34958,-16.20892 -8.20313,-15.95899 z m 0.38672,1.95899 c 1.2141,0 5.98242,10.07208 5.98242,12.63672 0,3.38804 -1.59644,3.69101 -3.91601,0.74218 -3.58163,-4.55331 -4.94493,-13.3789 -2.06641,-13.3789 z m 410.96875,0 c 1.72698,0 1.11877,6.87693 -0.9707,10.97265 -2.35325,4.61273 -3.80488,5.73647 -4.63086,3.58399 -1.33478,-3.47834 2.92807,-14.55664 5.60156,-14.55664 z m 75.32031,17.01562 c -2.1778,-0.0104 -3.68833,0.69129 -4.75,2.20703 -2.19379,3.1321 -1.93938,5.48445 0.89844,8.32227 3.1146,3.11463 5.97717,3.11463 9.0918,0 2.76208,-2.76208 2.9478,-3.73967 1.30469,-6.86133 -1.55796,-2.9599 -2.79178,-3.64907 -6.54493,-3.66797 z m -102.48437,3.94336 c -7.59557,0.0854 -15.75259,9.85046 -15.79883,20.70899 -0.0286,6.73572 0.65065,8.29109 4.29688,9.82422 7.79459,3.27738 17.67958,-5.90708 19.33203,-17.96289 0.69241,-5.05187 -0.92233,-10.06967 -3.72266,-11.56836 -1.31292,-0.70266 -2.70083,-1.01777 -4.10742,-1.00196 z m -355.96094,0.12696 c -3.92346,-0.13543 -7.32414,2.19306 -8.39062,7.04882 -1.8288,8.32645 6.29385,22.30188 14.02929,24.13672 10.23787,2.42846 13.64929,-11.15562 5.88867,-23.44922 -3.15731,-5.00156 -7.60388,-7.6009 -11.52734,-7.73632 z m -0.85547,1.9121 c 0.17414,-0.005 0.34887,-0.002 0.52539,0.01 7.6258,0.51923 17.27492,17.11309 11.91211,24.76953 -3.89061,5.55462 -12.7531,0.35502 -16.50976,-9.68554 -2.24194,-5.99207 -1.99704,-10.88578 0.67773,-13.56055 1.01955,-1.01955 2.17558,-1.49471 3.39453,-1.53321 z m 356.99414,0.002 c 3.6443,0 5,2.30133 5,8.48437 0,6.96405 -4.18123,13.98018 -10.19922,17.11133 -3.39363,1.76587 -3.8558,1.75443 -6.57812,-0.15234 -2.83525,-1.98588 -3.00578,-9.12148 -0.35742,-14.95117 2.43477,-5.35945 8.37062,-10.49219 12.13476,-10.49219 z M 497.22656,735.6543 c 7.04487,-0.007 15.36784,0.26865 20.83789,0.83008 v 0.002 c 5.06404,0.51976 1.24534,0.76123 -13.80859,0.875 -13.65706,0.10325 -20.59703,-0.18744 -20.19141,-0.84375 0.35048,-0.56755 6.11725,-0.85631 13.16211,-0.86328 z m 255.28516,0.002 c 8.30137,0.006 15.20303,0.29551 15.55273,0.86133 0.40645,0.65764 -7.53113,0.94605 -23.18945,0.83984 -16.64769,-0.11304 -21.55464,-0.37436 -16.31055,-0.86914 5.94486,-0.56126 15.6459,-0.83845 23.94727,-0.83203 z m 102.33984,2.99609 c -0.19678,2.45348 1.45893,3.26195 6.8125,0.79688 0.61941,-0.28522 1.28826,-0.51099 1.95313,-0.74219 -2.9571,-0.0181 -5.97206,-0.033 -8.76563,-0.0547 z m 10.79883,0.0684 c -0.219,0.3533 -0.43674,0.70723 -0.65625,1.06055 -0.49463,0.79627 -0.91598,1.64176 -1.48242,2.38867 -0.92758,1.22313 -1.39751,1.79306 -1.87305,2.27344 7.65635,-0.0246 16.78629,-0.0478 23.22071,-0.0742 1.30855,-1.44919 2.58564,-2.90001 3.60742,-4.13672 0.37608,-0.4552 0.73381,-0.92546 1.09765,-1.39062 l -16.5,-0.0742 c -2.61185,-0.0116 -4.88572,-0.0323 -7.41406,-0.0469 z" />
  </g>
</svg>
