<?xml version="1.0" encoding="UTF-8" standalone="no"?>
<svg
   viewBox="0 0 500 500"
   version="1.1"
   id="svg451"
   sodipodi:docname="nobg-icon.svg"
   width="500"
   height="500"
   inkscape:version="1.1 (c68e22c387, 2021-05-23)"
   inkscape:export-filename="S:\Documents\Programming\reactfrodowebsite\public\logo192.png"
   inkscape:export-xdpi="98.566841"
   inkscape:export-ydpi="98.566841"
   xmlns:inkscape="http://www.inkscape.org/namespaces/inkscape"
   xmlns:sodipodi="http://sodipodi.sourceforge.net/DTD/sodipodi-0.dtd"
   xmlns="http://www.w3.org/2000/svg"
   xmlns:svg="http://www.w3.org/2000/svg">
  <sodipodi:namedview
     id="namedview453"
     pagecolor="#ffffff"
     bordercolor="#999999"
     borderopacity="1"
     inkscape:pageshadow="0"
     inkscape:pageopacity="0"
     inkscape:pagecheckerboard="0"
     showgrid="false"
     width="431px"
     inkscape:zoom="0.5"
     inkscape:cx="65"
     inkscape:cy="213"
     inkscape:window-width="1920"
     inkscape:window-height="1017"
     inkscape:window-x="-8"
     inkscape:window-y="-8"
     inkscape:window-maximized="1"
     inkscape:current-layer="layer2" />
  <defs
     id="defs234">
    <style
       id="style232">.cls-1{isolation:isolate;}.cls-2,.cls-9{fill:none;}.cls-3{fill:#000029;}.cls-4{fill:#00ffef;}.cls-5{fill:#fff;}.cls-6{fill:#6c8cf9;}.cls-7{mix-blend-mode:multiply;}.cls-8{fill:#c5c7c9;}.cls-9{stroke:#000029;stroke-linecap:round;stroke-linejoin:round;stroke-width:3.54px;}.cls-10{fill:#c2c4c6;}.cls-11{fill:#b4b3c6;}.cls-12{fill:#fd1a17;}.cls-13{fill:#c0c2c4;}.cls-14{fill:#eb6e78;}.cls-15{fill:#f3aaa7;}.cls-16{fill:#fefefe;}</style>
  </defs>
  <g
     inkscape:groupmode="layer"
     id="layer4"
     inkscape:label="Layer 2"
     style="display:inline">
    <rect
       style="fill:#ffffff"
       id="rect2757"
       width="498"
       height="412"
       x="-672"
       y="-406" />
    <rect
       style="fill:#00ffef;fill-opacity:1;stroke-width:1.18696"
       id="rect2444"
       width="500.17679"
       height="500.12131"
       x="-3.5140559e-07"
       y="-1.4305115e-06"
       inkscape:export-filename="S:\Documents\Programming\reactfrodowebsite\public\static\img\logosNew\nobg-icon.png"
       inkscape:export-xdpi="24.576"
       inkscape:export-ydpi="24.576" />
  </g>
  <g
     inkscape:groupmode="layer"
     id="layer2"
     inkscape:label="Layer 1"
     style="display:inline">
    <g
       id="Layer_1"
       data-name="Layer 1"
       transform="matrix(2.3749956,0,0,2.3749956,-252,-48)"
       style="isolation:isolate"
       inkscape:export-filename="S:\Documents\Programming\reactfrodowebsite\public\static\img\logosNew\nobg-icon.png"
       inkscape:export-xdpi="24.576"
       inkscape:export-ydpi="24.576">
      <rect
         class="cls-2"
         width="432"
         height="288"
         id="rect236"
         x="0"
         y="0" />
      <circle
         class="cls-4"
         cx="209.69"
         cy="120.74"
         r="77.93"
         id="circle248"
         style="fill:#ffffff" />
      <path
         class="cls-5"
         d="M 197.62,120.74 A 77.93,77.93 0 0 0 55.16,77 77.23,77.23 0 1 1 163.39,185.27 77.82,77.82 0 0 0 197.62,120.74 Z"
         transform="translate(90)"
         id="path250"
         style="fill:#00ffef;fill-opacity:1" />
      <path
         class="cls-3"
         d="m 119.69,200.32 a 79.58,79.58 0 1 1 79.57,-79.58 79.66,79.66 0 0 1 -79.57,79.58 z m 0,-155.87 A 76.3,76.3 0 1 0 196,120.74 76.38,76.38 0 0 0 119.69,44.45 Z"
         transform="translate(90)"
         id="path252" />
      <path
         class="cls-6"
         d="m 156.44,168.6 c 0,0 10,2.08 14.77,-6.92 6.39,-12.08 2.47,-21.93 6,-30.05 3.53,-8.12 7.5,-12.48 16,-13.23 8.5,-0.75 17.83,7.79 17.86,17.14 0.03,9.35 -7.44,10.51 -10.56,9.25 -3.12,-1.26 -5.34,-8.57 -10.73,-8.2 -5.39,0.37 -4.16,8.29 -4.69,14.85 -0.53,6.56 -3.18,30.66 -27.76,29 -24.58,-1.66 -10.56,-18.39 -0.89,-11.84 z"
         transform="translate(90)"
         id="path254" />
      <path
         class="cls-5"
         d="m 193.2,118.4 a 22.47,22.47 0 0 0 -2.89,0.44 c -2.19,3.73 -3.84,9.63 -1,17.83 a 4.33,4.33 0 0 1 0.5,-0.08 c 5.39,-0.37 7.61,6.94 10.73,8.2 3.12,1.26 10.58,0.09 10.56,-9.25 -0.02,-9.34 -9.43,-17.88 -17.9,-17.14 z"
         transform="translate(90)"
         id="path256" />
      <path
         class="cls-3"
         d="m 159.65,182.32 c -0.8,0 -1.62,0 -2.45,-0.08 -14.12,-0.94 -15.45,-6.63 -15.37,-9 0.13,-4.2 4.69,-7.88 9.75,-7.88 a 10.41,10.41 0 0 1 5.51,1.59 13.41,13.41 0 0 0 1.91,0.05 11.45,11.45 0 0 0 10.7,-6.18 c 3.48,-6.6 3.73,-12.39 4,-18 0.18,-4.21 0.35,-8.2 2,-12 3.48,-8 7.78,-13.43 17.45,-14.28 q 0.6,-0.06 1.2,-0.06 c 9.53,0 18.56,9.21 18.59,19 0,3.7 -1,6.62 -3.08,8.68 a 9.69,9.69 0 0 1 -6.84,2.77 8.27,8.27 0 0 1 -3.07,-0.55 c -1.63,-0.65 -2.84,-2.21 -4.13,-3.86 -1.68,-2.15 -3.4,-4.38 -5.82,-4.21 -2.42,0.17 -2.71,2.76 -2.86,8.91 0,1.42 -0.07,2.89 -0.18,4.31 -1.73,19.88 -11.38,30.79 -27.31,30.79 z m -8.07,-13.46 c -3.36,0 -6.15,2.44 -6.21,4.46 -0.06,2.02 3,4.79 12.07,5.39 0.75,0 1.49,0.07 2.21,0.07 17.71,0 22.64,-14.95 23.66,-27.49 0.11,-1.32 0.15,-2.73 0.18,-4.1 0.14,-5.61 0.29,-12 6.16,-12.37 4.27,-0.28 6.83,3 8.85,5.57 0.95,1.21 1.92,2.46 2.67,2.76 a 4.73,4.73 0 0 0 1.74,0.29 6.2,6.2 0 0 0 4.33,-1.73 c 1.37,-1.37 2,-3.44 2,-6.17 0,-7.94 -8.24,-16 -15.94,-15.37 -7.06,0.62 -10.86,3.8 -14.51,12.17 -1.37,3.14 -1.52,6.64 -1.69,10.68 -0.24,5.71 -0.51,12.19 -4.37,19.49 a 15,15 0 0 1 -13.73,8.07 16,16 0 0 1 -2.87,-0.24 1.77,1.77 0 0 1 -0.63,-0.27 6.79,6.79 0 0 0 -3.92,-1.21 z"
         transform="translate(90)"
         id="path258" />
      <polygon
         class="cls-6"
         points="161.98,168.29 158.64,199.6 209.54,199.6 209.54,122.69 173.03,122.69 "
         id="polygon260" />
      <path
         class="cls-6"
         d="M 85,199.6 H 59.83 c -7.39,0 -15.92,-2.56 -17.77,-14.07 -1.85,-11.51 -2.42,-22.47 6.68,-23.46 9.1,-0.99 10.66,9.81 10.66,9.81 0,0 1,-3.27 9.24,-3.56 z"
         transform="translate(90)"
         id="path262" />
      <polygon
         class="cls-6"
         points="257.1,168.29 260.44,199.6 209.54,199.6 209.54,122.69 246.05,122.69 "
         id="polygon264" />
      <path
         class="cls-6"
         d="m 154.09,199.6 h 25.16 c 7.39,0 15.92,-2.56 17.77,-14.07 1.85,-11.51 2.42,-22.47 -6.68,-23.46 -9.1,-0.99 -10.66,9.81 -10.66,9.81 0,0 -1,-3.27 -9.24,-3.56 z"
         transform="translate(90)"
         id="path266" />
      <path
         class="cls-5"
         d="m 59.92,182.11 c -0.08,-3.15 -0.51,-8 -0.9,-11.88 -0.86,-3 -3.43,-8.91 -10.28,-8.16 -9.1,1 -8.53,11.94 -6.68,23.46 1.85,11.52 10.38,14.07 17.77,14.07 h 5.37 a 43.15,43.15 0 0 0 -3.68,-4.1 c -1.76,-1.75 -1.44,-7.33 -1.6,-13.39 z"
         transform="translate(90)"
         id="path268" />
      <path
         class="cls-5"
         d="m 179.16,182.11 c 0.08,-3.15 0.51,-8 0.9,-11.88 0.86,-3 3.43,-8.91 10.28,-8.16 9.1,1 8.53,11.94 6.68,23.46 -1.85,11.52 -10.38,14.07 -17.77,14.07 h -5.37 a 43.15,43.15 0 0 1 3.68,-4.1 c 1.76,-1.75 1.44,-7.33 1.6,-13.39 z"
         transform="translate(90)"
         id="path270" />
      <ellipse
         class="cls-5"
         cx="209.53999"
         cy="172.64999"
         rx="21.83"
         ry="27.139999"
         id="ellipse272" />
      <path
         class="cls-3"
         d="m 119.54,201 c -12.72,0 -23.06,-12.72 -23.06,-28.37 0,-15.65 10.34,-28.37 23.06,-28.37 12.72,0 23.06,12.74 23.06,28.39 0,15.65 -10.34,28.35 -23.06,28.35 z m 0,-54.28 c -11.36,0 -20.6,11.62 -20.6,25.91 0,14.29 9.24,25.91 20.6,25.91 11.36,0 20.6,-11.62 20.6,-25.91 0,-14.29 -9.24,-25.89 -20.6,-25.89 z"
         transform="translate(90)"
         id="path274" />
      <g
         class="cls-7"
         id="g278">
        <path
           class="cls-8"
           d="M 180.13,194.06 H 59 c -6.33,0 -13.47,-1.88 -16.68,-9.47 2.2,10.6 10.4,13 17.56,13 h 119.37 c 7.16,0 15.36,-2.42 17.56,-13 -3.21,7.59 -10.35,9.47 -16.68,9.47 z"
           transform="translate(90)"
           id="path276" />
      </g>
      <path
         class="cls-6"
         d="m 60.1,178.35 c 0,0 8.58,-8 19.77,-5.33 l -0.54,-3.14 a 21.88,21.88 0 0 0 -19.23,1 z"
         transform="translate(90)"
         id="path280" />
      <path
         class="cls-6"
         d="m 177.83,178.35 c 0,0 -2.69,-6.47 -16.41,-2.95 v 0 c 0,0 7.64,-8.21 17.56,-3.52 z"
         transform="translate(90)"
         id="path282" />
      <path
         class="cls-3"
         d="M 179.25,201.37 H 59.83 c -11.14,0 -17.89,-5.38 -19.52,-15.56 -1.37,-8.55 -2.14,-17.12 1.52,-21.91 a 9.3,9.3 0 0 1 6.72,-3.59 12.37,12.37 0 0 1 1.35,-0.08 c 5.85,0 9,4.42 10.44,8.25 1.6,-0.95 4.17,-1.79 8.24,-1.93 h 2 L 81.31,122.29 A 1.77,1.77 0 0 1 83,120.92 h 73 a 1.78,1.78 0 0 1 1.72,1.35 l 10.73,44.26 h 2 c 4.09,0.14 6.67,1 8.28,1.93 1.41,-3.83 4.59,-8.25 10.44,-8.25 a 12.37,12.37 0 0 1 1.35,0.08 9.34,9.34 0 0 1 6.72,3.59 c 3.66,4.79 2.89,13.36 1.52,21.91 -1.62,10.21 -8.37,15.58 -19.51,15.58 z M 49.9,163.77 a 8.27,8.27 0 0 0 -1,0.06 5.86,5.86 0 0 0 -4.25,2.17 c -2.86,3.75 -2,11.81 -0.84,19.21 1.34,8.35 6.73,12.58 16,12.58 h 119.44 c 9.29,0 14.68,-4.23 16,-12.59 1.19,-7.39 2,-15.45 -0.84,-19.2 a 5.88,5.88 0 0 0 -4.28,-2.21 8.27,8.27 0 0 0 -1,-0.06 c -6.42,0 -7.7,8 -7.75,8.37 a 1.86,1.86 0 0 1 -1.72,1.63 v 0 a 1.66,1.66 0 0 1 -1.71,-1.31 c -0.2,-0.33 -1.63,-2.16 -7.61,-2.37 h -3.3 a 1.77,1.77 0 0 1 -1.7,-1.36 L 154.61,124.45 H 84.43 L 73.7,168.7 a 1.77,1.77 0 0 1 -1.7,1.36 h -3.34 c -5.94,0.2 -7.37,2 -7.57,2.36 a 1.66,1.66 0 0 1 -1.71,1.31 v 0 a 1.86,1.86 0 0 1 -1.71,-1.64 c -0.07,-0.3 -1.35,-8.32 -7.77,-8.32 z"
         transform="translate(90)"
         id="path284" />
      <path
         class="cls-3"
         d="m 59.4,184.31 a 1.74,1.74 0 0 1 -0.45,-0.06 1.76,1.76 0 0 1 -1.26,-2.16 18.9,18.9 0 0 0 0,-9.66 1.77,1.77 0 0 1 3.36,-1.11 22.14,22.14 0 0 1 0,11.67 1.77,1.77 0 0 1 -1.65,1.32 z"
         transform="translate(90)"
         id="path286" />
      <path
         class="cls-9"
         d="M 83.14,172.36"
         transform="translate(90)"
         id="path288" />
      <path
         class="cls-3"
         d="M 179.68,184.31 A 1.77,1.77 0 0 1 178,183 a 22.14,22.14 0 0 1 0,-11.67 1.77,1.77 0 0 1 3.36,1.11 18.85,18.85 0 0 0 0,9.66 1.76,1.76 0 0 1 -1.26,2.16 1.74,1.74 0 0 1 -0.42,0.05 z"
         transform="translate(90)"
         id="path290" />
      <path
         class="cls-3"
         d="m 176.11,171 a 1.49,1.49 0 0 1 -0.47,-0.07 31.47,31.47 0 0 0 -9,-0.89 1.77,1.77 0 1 1 -0.2,-3.53 34.47,34.47 0 0 1 10.14,1 1.77,1.77 0 0 1 -0.48,3.48 z"
         transform="translate(90)"
         id="path292" />
      <g
         class="cls-7"
         id="g296">
        <path
           class="cls-10"
           d="m 175,169.64 a 35.08,35.08 0 0 1 -7.2,11.52 c -5.51,5.77 -12.34,8.47 -18.76,7.4 a 3.4,3.4 0 0 1 -1.84,-0.92 10,10 0 0 1 -5.2,1.86 5.52,5.52 0 0 1 -1.83,-0.33 11.79,11.79 0 0 1 -3.47,0.42 v 0 c -1.22,0 -2.45,-0.1 -3.44,-0.18 -0.48,0 -0.88,-0.08 -1.15,-0.08 H 132 a 7.34,7.34 0 0 1 -2.36,-0.39 l -0.2,-0.06 c -0.23,0 -0.93,0.22 -1.5,0.37 a 37.37,37.37 0 0 1 -7.16,1.29 4.21,4.21 0 0 1 -0.62,0.05 h -0.41 a 6.1,6.1 0 0 1 -1.08,0 37.25,37.25 0 0 1 -7.15,-1.29 c -0.57,-0.15 -1.28,-0.34 -1.51,-0.37 l -0.19,0.06 a 7.41,7.41 0 0 1 -2.37,0.39 h -0.14 c -0.25,0 -0.66,0 -1.14,0.08 -1,0.08 -2.21,0.18 -3.44,0.18 a 11.7,11.7 0 0 1 -3.58,-0.45 5.94,5.94 0 0 1 -1.32,-0.63 11.9,11.9 0 0 1 -1.13,0.55 5.33,5.33 0 0 1 -2.17,0.44 10,10 0 0 1 -5.26,-1.86 3.4,3.4 0 0 1 -1.83,0.92 c -6.42,1.08 -13.26,-1.63 -18.76,-7.4 a 34.89,34.89 0 0 1 -6.88,-10.7 l 3,-1 c 0,0 9,18.69 22,15 a 14.44,14.44 0 0 1 0.14,-3 l 3.55,3.11 c 0,0 3.26,1.67 4.78,0.8 1.52,-0.87 8.4,-1.81 8.4,-1.81 0,0 10.36,1.52 16,1.3 5.64,-0.22 11.88,-1.23 15.5,0 3.62,1.23 5.21,1.24 7.6,0.29 a 62.84,62.84 0 0 0 7.1,-3.91 l -0.18,3.8 c 0,0 10.61,0.69 15.61,-6.48 5,-7.17 6.51,-10 6.51,-10 z"
           transform="translate(90)"
           id="path294" />
      </g>
      <path
         class="cls-3"
         d="m 120.12,188.37 h -0.51 a 3.53,3.53 0 0 1 -0.8,0 34.8,34.8 0 0 1 -7,-1.25 15.52,15.52 0 0 0 -1.74,-0.4 H 110 a 1.76,1.76 0 0 0 -0.65,0.12 6.08,6.08 0 0 1 -1.93,0.32 h -0.11 c -0.31,0 -0.76,0 -1.29,0.09 -1,0.08 -2.15,0.18 -3.32,0.18 a 10.44,10.44 0 0 1 -3.13,-0.39 c -3.9,-1.24 -5,-8.11 -4.06,-12.29 1.21,-5.36 8.79,-6.69 9.65,-6.82 h 0.1 c 0.23,0 5.51,-0.62 7.93,-0.62 a 5.3,5.3 0 0 1 4.2,1.69 4.17,4.17 0 0 1 0.83,1.44 4.82,4.82 0 0 1 0.91,1 h 1.14 a 5,5 0 0 1 0.9,-1 4.19,4.19 0 0 1 0.84,-1.44 5.3,5.3 0 0 1 4.2,-1.69 c 2.41,0 7.7,0.6 7.92,0.62 h 0.11 c 0.86,0.13 8.43,1.46 9.65,6.82 1,4.18 -0.16,11.05 -4.06,12.29 a 10.47,10.47 0 0 1 -3.14,0.39 v 0 c -1.16,0 -2.35,-0.1 -3.31,-0.18 -0.54,0 -1,-0.09 -1.28,-0.09 H 132 a 6,6 0 0 1 -1.92,-0.32 1.8,1.8 0 0 0 -0.65,-0.12 h -0.13 a 15.52,15.52 0 0 0 -1.74,0.4 34.8,34.8 0 0 1 -7,1.25 2.28,2.28 0 0 1 -0.44,0 z m -0.43,-5.13 h 0.17 0.15 a 29.5,29.5 0 0 0 6.21,-1.1 14.79,14.79 0 0 1 2.81,-0.57 6.93,6.93 0 0 1 2.51,0.34 1.09,1.09 0 0 0 0.42,0.09 h 0.13 c 0.45,0 1,0 1.7,0.11 0.87,0.07 1.94,0.16 2.89,0.16 a 8,8 0 0 0 1.4,-0.1 9.32,9.32 0 0 0 0.81,-6.33 c -0.31,-1.35 -3.32,-2.54 -5.41,-2.89 -1.49,-0.17 -5.54,-0.58 -7.28,-0.58 H 126 a 2.57,2.57 0 0 1 -1.26,1.72 l -0.12,0.07 a 2.55,2.55 0 0 1 -2.55,2.37 h -4.77 a 2.55,2.55 0 0 1 -2.55,-2.37 l -0.12,-0.07 a 2.57,2.57 0 0 1 -1.26,-1.72 h -0.19 c -1.74,0 -5.79,0.41 -7.29,0.58 -2.08,0.35 -5.09,1.53 -5.4,2.89 a 9.26,9.26 0 0 0 0.81,6.33 8,8 0 0 0 1.39,0.1 c 1,0 2,-0.09 2.89,-0.16 0.89,-0.07 1.26,-0.11 1.7,-0.11 h 0.12 a 1.34,1.34 0 0 0 0.44,-0.09 6.86,6.86 0 0 1 2.51,-0.34 14.94,14.94 0 0 1 2.81,0.57 29.38,29.38 0 0 0 6.21,1.1 h 0.15 z"
         transform="translate(90)"
         id="path298" />
      <path
         class="cls-11"
         d="m 141.38,175.27 c -0.86,-3.82 -7.55,-4.86 -7.55,-4.86 0,0 -5.33,-0.61 -7.63,-0.61 -2.3,0 -2.78,1.39 -2.69,2 -1.65,0.91 -1.44,2.12 -1.44,2.12 h -4.77 c 0,0 0.22,-1.21 -1.43,-2.12 0.09,-0.65 -0.39,-2 -2.69,-2 -2.3,0 -7.64,0.61 -7.64,0.61 0,0 -6.68,1 -7.55,4.86 -0.87,3.86 0.44,8.67 2.35,9.28 1.91,0.61 5.83,0 7,0 1.17,0 1.42,-0.5 2.89,-0.43 1.47,0.07 4.85,1.49 9,1.67 v 0 h 0.87 v 0 c 4.18,-0.18 7.65,-1.61 9,-1.67 1.35,-0.06 1.72,0.45 2.89,0.43 1.17,-0.02 5.1,0.61 7,0 1.9,-0.61 3.26,-5.46 2.39,-9.28 z"
         transform="translate(90)"
         id="path300" />
      <path
         class="cls-3"
         d="m 133.53,178.78 c -5.85,0 -9.18,2.92 -13.41,3.07 h -0.87 c -4.23,-0.15 -7.55,-3.07 -13.4,-3.07 a 35.68,35.68 0 0 0 -7.9,1.53 c 0.4,2.15 1.29,3.89 2.39,4.24 1.9,0.61 5.83,0 7,0 1.17,0 1.42,-0.5 2.89,-0.43 1.47,0.07 4.85,1.49 9,1.67 v 0 h 0.87 v 0 c 4.18,-0.18 7.65,-1.61 9,-1.67 1.35,-0.06 1.72,0.45 2.89,0.43 1.17,-0.02 5.1,0.61 7,0 1.1,-0.35 2,-2.09 2.39,-4.24 a 35.68,35.68 0 0 0 -7.85,-1.53 z"
         transform="translate(90)"
         id="path302" />
      <path
         class="cls-3"
         d="m 120.12,185.94 h -1 v 0 a 32.43,32.43 0 0 1 -6.65,-1.18 13.14,13.14 0 0 0 -2.25,-0.48 4,4 0 0 0 -1.61,0.22 3.82,3.82 0 0 1 -1.21,0.21 h -0.13 c -0.33,0 -0.86,0 -1.47,0.09 -0.92,0.08 -2,0.18 -3.12,0.18 a 7.83,7.83 0 0 1 -2.39,-0.28 c -1.1,-0.34 -2,-2 -2.48,-4.34 v -0.11 h 0.11 a 35.34,35.34 0 0 1 7.94,-1.54 22.3,22.3 0 0 1 8,1.73 18.09,18.09 0 0 0 5.26,1.33 h 0.13 0.43 0.43 0.13 a 18.09,18.09 0 0 0 5.26,-1.33 22.3,22.3 0 0 1 8,-1.73 35.34,35.34 0 0 1 7.94,1.54 h 0.11 v 0.11 c -0.44,2.33 -1.39,4 -2.48,4.34 a 7.9,7.9 0 0 1 -2.4,0.28 v 0 c -1.06,0 -2.2,-0.1 -3.11,-0.18 -0.62,-0.05 -1.14,-0.09 -1.48,-0.09 H 132 a 3.88,3.88 0 0 1 -1.21,-0.21 4,4 0 0 0 -1.6,-0.22 13,13 0 0 0 -2.25,0.48 32.56,32.56 0 0 1 -6.65,1.18 v 0 z m -0.43,-0.27 h 0.43 a 31.46,31.46 0 0 0 6.72,-1.18 13.15,13.15 0 0 1 2.3,-0.49 4.55,4.55 0 0 1 1.69,0.23 3.25,3.25 0 0 0 1.13,0.21 h 0.13 c 0.35,0 0.88,0.05 1.5,0.1 0.91,0.08 2,0.17 3.09,0.17 a 8.08,8.08 0 0 0 2.32,-0.26 c 1,-0.31 1.86,-1.89 2.28,-4 a 35.08,35.08 0 0 0 -7.75,-1.49 21.75,21.75 0 0 0 -7.93,1.71 18,18 0 0 1 -5.47,1.36 H 120 a 4.42,4.42 0 0 1 -0.63,0 h -0.11 a 18,18 0 0 1 -5.47,-1.36 21.85,21.85 0 0 0 -7.93,-1.71 35.28,35.28 0 0 0 -7.76,1.49 c 0.42,2.15 1.31,3.72 2.28,4 a 8.13,8.13 0 0 0 2.32,0.26 c 1.06,0 2.19,-0.09 3.1,-0.17 0.62,-0.05 1.15,-0.1 1.49,-0.1 h 0.13 a 3.31,3.31 0 0 0 1.14,-0.21 4.55,4.55 0 0 1 1.69,-0.23 13.33,13.33 0 0 1 2.3,0.49 31.23,31.23 0 0 0 6.72,1.18 h 0.12 0.31 z"
         transform="translate(90)"
         id="path304" />
      <ellipse
         class="cls-3"
         cx="202.25"
         cy="172.03999"
         rx="2.46"
         ry="1.34"
         id="ellipse306" />
      <polygon
         class="cls-3"
         points="192.71,174.35 199.78,174.35 199.2,175.79 192.13,175.79 "
         id="polygon308" />
      <polygon
         class="cls-3"
         points="195.43,173.38 197.52,173.38 196.48,176.89 194.39,176.89 "
         id="polygon310" />
      <ellipse
         class="cls-3"
         cx="127.04"
         cy="172.2"
         rx="1.34"
         ry="2.46"
         transform="rotate(-84.83,172.04075,122.94815)"
         id="ellipse312" />
      <ellipse
         class="cls-3"
         cx="136.25"
         cy="175.36"
         rx="1.23"
         ry="0.67000002"
         transform="rotate(-0.96,181.99656,-5195.3263)"
         id="ellipse314" />
      <ellipse
         class="cls-3"
         cx="134.08"
         cy="173.64999"
         rx="1.23"
         ry="0.67000002"
         transform="rotate(-0.96,179.62429,-5197.1367)"
         id="ellipse316" />
      <ellipse
         class="cls-3"
         cx="134.08"
         cy="176.88"
         rx="1.23"
         ry="0.67000002"
         transform="rotate(-0.96,179.59429,-5193.5558)"
         id="ellipse318" />
      <ellipse
         class="cls-3"
         cx="131.96001"
         cy="175.36"
         rx="1.23"
         ry="0.67000002"
         transform="rotate(-0.96,177.81884,-5195.3613)"
         id="ellipse320" />
      <path
         class="cls-12"
         d="M 115.08,177.81 H 125 a 10.1,10.1 0 0 1 -5.29,1.86 6.92,6.92 0 0 1 -4.63,-1.86 z"
         transform="translate(90)"
         id="path322" />
      <path
         class="cls-3"
         d="m 119.69,179.93 a 7.06,7.06 0 0 1 -4.79,-1.93 0.27,0.27 0 0 1 0.18,-0.45 H 125 a 0.28,0.28 0 0 1 0.25,0.18 0.27,0.27 0 0 1 -0.1,0.29 10.18,10.18 0 0 1 -5.46,1.91 z m -3.9,-1.86 a 6.7,6.7 0 0 0 3.9,1.34 9.27,9.27 0 0 0 4.4,-1.34 z"
         transform="translate(90)"
         id="path324" />
      <path
         class="cls-6"
         d="m 86.82,104.61 c 0,0 -18,11.34 -23.66,37.56 -5.66,26.22 10.46,44.45 23.66,42.25 a 32.44,32.44 0 0 1 -0.15,-4.31 c 0,0 5.78,6.26 8.61,5 2.83,-1.26 3.13,-2.4 2.35,-4.4 -0.78,-2 -5.18,-6.95 -5.13,-11.49 0,0 1.61,3.32 2.59,3.13 A 13.55,13.55 0 0 0 99.88,169 c 1.32,-1.46 3,-4.55 0,-6.09 -3,-1.54 -22.5,1.3 -16.19,-17 3,-8.8 9.2,-23.47 26.41,-30.71"
         transform="translate(90)"
         id="path326" />
      <path
         class="cls-6"
         d="m 149.64,104.61 c 0,0 18,11.34 23.67,37.56 5.67,26.22 -10.47,44.45 -23.67,42.25 a 32.44,32.44 0 0 0 0.15,-4.31 c 0,0 -5.77,6.26 -8.61,5 -2.84,-1.26 -3.13,-2.4 -2.35,-4.4 0.78,-2 5.17,-6.91 5.17,-11.45 0,0 -1.61,3.32 -2.59,3.13 a 13.55,13.55 0 0 1 -4.79,-3.38 c -1.33,-1.46 -3,-4.55 0,-6.09 3,-1.54 22.5,1.3 16.18,-17 -3,-8.8 -9.19,-23.47 -26.41,-30.71"
         transform="translate(90)"
         id="path328" />
      <path
         class="cls-9"
         d="M 110.1,115.17"
         transform="translate(90)"
         id="path330" />
      <g
         class="cls-7"
         id="g338">
        <path
           class="cls-10"
           d="m 151.1,141.41 c -7,3.5 -17.31,6.74 -31.53,6.74 h -0.11 c -15.79,0.33 -26.83,-3.45 -33.89,-7.23 -0.74,1.78 -1.36,3.46 -1.88,5 -0.2,0.59 -0.37,1.15 -0.52,1.69 7.73,4 18.91,7.55 34.23,7.55 0.7,0 1.41,0 2.13,0 h 0.12 c 14.85,0 25.88,-3.21 33.77,-7 -0.18,-0.7 -0.38,-1.42 -0.65,-2.19 -0.47,-1.45 -1.03,-2.97 -1.67,-4.56 z"
           transform="translate(90)"
           id="path332" />
        <path
           class="cls-10"
           d="m 85.57,140.92 a 42.38,42.38 0 0 1 -8,-5.49 c -2.61,-2.31 -5.24,-7.14 -6.48,-13.39 a 65,65 0 0 0 -4.53,9.15 26.18,26.18 0 0 0 6.4,9.45 50.35,50.35 0 0 0 10.26,6.93 c 0.15,-0.54 0.32,-1.1 0.52,-1.69 0.47,-1.5 1.09,-3.18 1.83,-4.96 z"
           transform="translate(90)"
           id="path334" />
        <path
           class="cls-10"
           d="m 170.74,133.25 a 65,65 0 0 0 -4,-8.82 c -1.37,4.67 -3.5,8.27 -5.56,10.17 a 44.05,44.05 0 0 1 -10.12,6.81 c 0.64,1.6 1.2,3.11 1.67,4.47 0.27,0.77 0.47,1.49 0.65,2.19 a 51.47,51.47 0 0 0 12.51,-8.36 24.28,24.28 0 0 0 4.85,-6.46 z"
           transform="translate(90)"
           id="path336" />
      </g>
      <path
         class="cls-3"
         d="m 94.51,187.07 c -2,0 -4.13,-1.32 -5.92,-2.74 a 1.76,1.76 0 0 1 -1.47,1.83 c -5.85,1 -12.14,-1.54 -17.25,-6.9 -8.45,-8.86 -11.6,-22.87 -8.45,-37.47 5.77,-26.63 23.7,-38.2 24.46,-38.68 a 1.7728579,1.7728579 0 0 1 1.89,3 v 0 c -0.17,0.11 -17.45,11.32 -22.88,36.43 -2.89,13.46 -0.09,26.27 7.54,34.28 3.8,4 8.28,6.12 12.5,6 a 17.29,17.29 0 0 1 0,-3 1.78,1.78 0 0 1 3.06,-0.94 c 2.65,2.88 5.86,4.93 6.6,4.61 1.91,-0.82 1.83,-1 1.4,-2.13 a 16.92,16.92 0 0 0 -1.25,-2.11 c -1.71,-2.65 -4,-6.29 -4,-10 a 1.77,1.77 0 0 1 3.36,-0.76 13.23,13.23 0 0 0 1.16,1.94 14.87,14.87 0 0 0 3.31,-2.59 3.94,3.94 0 0 0 1.22,-2.61 c 0,-0.11 -0.08,-0.4 -0.71,-0.72 a 16.12,16.12 0 0 0 -2.89,-0.42 37.7,37.7 0 0 1 -7.19,-1.27 1.77,1.77 0 0 1 1,-3.38 35.22,35.22 0 0 0 6.51,1.11 12.74,12.74 0 0 1 4.15,0.8 4.5,4.5 0 0 1 2.57,3.22 c 0.47,2.57 -1.46,5 -2.06,5.63 a 15.7,15.7 0 0 1 -5.48,3.85 c 0.63,1.19 1.36,2.33 2,3.32 a 17.67,17.67 0 0 1 1.57,2.73 c 1.22,3.11 0.2,5.17 -3.29,6.68 a 3.76,3.76 0 0 1 -1.46,0.29 z"
         transform="translate(90)"
         id="path340" />
      <path
         class="cls-3"
         d="m 73.37,147.27 c 0.83,2.14 -6,3.71 -10.57,4.5 0,-1.66 0.08,-3.49 0.25,-5.44 4.14,-0.6 9.56,-0.98 10.32,0.94 z"
         transform="translate(90)"
         id="path342" />
      <path
         class="cls-3"
         d="m 74.69,155.85 c 1,2.22 -6.71,4.36 -11.11,5.39 a 40.43,40.43 0 0 1 -0.65,-5.35 c 4.12,-0.96 10.8,-2.15 11.76,-0.04 z"
         transform="translate(90)"
         id="path344" />
      <path
         class="cls-3"
         d="m 77,163.52 c 1.23,2.11 -6.29,5.15 -10.54,6.67 -0.8,-1.92 -1.4,-3.62 -1.84,-5 3.86,-1.45 11.13,-3.79 12.38,-1.67 z"
         transform="translate(90)"
         id="path346" />
      <path
         class="cls-9"
         d="M 126.36,115.17"
         transform="translate(90)"
         id="path348" />
      <path
         class="cls-3"
         d="m 142,187.07 a 3.76,3.76 0 0 1 -1.48,-0.29 c -3.49,-1.51 -4.51,-3.57 -3.3,-6.68 a 17.86,17.86 0 0 1 1.58,-2.73 c 0.63,-1 1.36,-2.13 2,-3.32 a 15.61,15.61 0 0 1 -5.48,-3.85 c -0.61,-0.67 -2.54,-3.06 -2.06,-5.63 a 4.45,4.45 0 0 1 2.57,-3.22 12.61,12.61 0 0 1 4.14,-0.8 29.28,29.28 0 0 0 7.6,-1.49 1.7706072,1.7706072 0 1 1 1.31,3.29 32.76,32.76 0 0 1 -8.55,1.73 17.28,17.28 0 0 0 -2.89,0.42 c -0.63,0.32 -0.68,0.61 -0.7,0.72 a 4,4 0 0 0 1.21,2.61 14.33,14.33 0 0 0 3.32,2.58 12.29,12.29 0 0 0 1.15,-1.93 1.78,1.78 0 0 1 3.37,0.76 c 0,3.75 -2.3,7.39 -4,10 a 16.54,16.54 0 0 0 -1.25,2.11 c -0.44,1.11 -0.52,1.31 1.39,2.13 0.76,0.32 4,-1.74 6.61,-4.61 a 1.77,1.77 0 0 1 3,0.94 17.15,17.15 0 0 1 0,3 c 4.19,0.12 8.69,-2 12.49,-6 7.64,-8 10.46,-20.83 7.55,-34.28 -5.45,-25.19 -22.71,-36.32 -22.88,-36.43 a 1.7728579,1.7728579 0 1 1 1.89,-3 c 0.76,0.48 18.69,12 24.45,38.68 3.16,14.6 0,28.61 -8.44,37.47 -5.11,5.36 -11.41,7.88 -17.25,6.9 a 1.78,1.78 0 0 1 -1.48,-1.83 c -1.78,1.43 -3.96,2.75 -5.87,2.75 z"
         transform="translate(90)"
         id="path350" />
      <path
         class="cls-3"
         d="m 163.23,147.27 c -0.84,2.14 6,3.71 10.57,4.5 0,-1.66 -0.08,-3.49 -0.26,-5.44 -4.13,-0.6 -9.54,-0.98 -10.31,0.94 z"
         transform="translate(90)"
         id="path352" />
      <path
         class="cls-3"
         d="m 161.91,155.85 c -1,2.22 6.71,4.36 11.11,5.39 a 42.58,42.58 0 0 0 0.65,-5.35 c -4.12,-0.96 -10.8,-2.15 -11.76,-0.04 z"
         transform="translate(90)"
         id="path354" />
      <path
         class="cls-3"
         d="m 159.61,163.52 c -1.23,2.11 6.3,5.15 10.55,6.67 0.8,-1.92 1.4,-3.62 1.83,-5 -3.87,-1.45 -11.14,-3.79 -12.38,-1.67 z"
         transform="translate(90)"
         id="path356" />
      <path
         class="cls-6"
         d="M 76.42,86.58 C 93,63.69 118.66,63.93 118.66,63.93 c 0,0 24.73,-0.74 42.68,21.81 16.95,21.3 9.79,44.45 2.23,51.42 -7.56,6.97 -21.89,14.49 -44,14.47 -22.15,0.46 -36.62,-6.78 -44.32,-13.59 -7.7,-6.81 -14.81,-29.41 1.17,-51.46 z"
         transform="translate(90)"
         id="path358" />
      <path
         class="cls-6"
         d="m 79.45,86.59 a 53.08,53.08 0 0 1 41,-22.64 c 0,0 24,-0.73 41.42,21.82 16.46,21.31 9.52,44.45 2.18,51.42 -7.34,6.97 -21.23,14.49 -42.73,14.45 -21.49,0.46 -35.53,-6.78 -43,-13.6 -7.47,-6.82 -14.38,-29.41 1.13,-51.45 z"
         transform="translate(90)"
         id="path360" />
      <path
         class="cls-3"
         d="m 108.89,77.54 c 2.27,0.41 2.36,-7.27 2.18,-12.29 -1.62,0.39 -3.4,0.88 -5.27,1.52 0.29,4.54 1.05,10.41 3.09,10.77 z"
         transform="translate(90)"
         id="path362" />
      <path
         class="cls-3"
         d="m 117.56,77 c 2.38,0.58 2.85,-8.15 2.93,-13.07 a 37.23,37.23 0 0 0 -5.37,0.52 c -0.07,4.62 0.17,12 2.44,12.55 z"
         transform="translate(90)"
         id="path364" />
      <path
         class="cls-3"
         d="m 125.54,77.69 c 2.32,0.83 3.71,-7.88 4.3,-12.75 -2,-0.42 -3.84,-0.67 -5.29,-0.82 -0.55,4.46 -1.35,12.74 0.99,13.57 z"
         transform="translate(90)"
         id="path366" />
      <path
         class="cls-3"
         d="m 170.62,105.67 a 1.23,1.23 0 0 1 -1.2,-1 46.09,46.09 0 0 0 -9,-18.21 C 143,64.7 118.93,65.14 118.7,65.16 v 0 c -0.57,0 -25.35,0.19 -41.27,22.15 a 50.36,50.36 0 0 0 -7.3,14.21 1.2333896,1.2333896 0 1 1 -2.35,-0.75 53.07,53.07 0 0 1 7.66,-14.91 C 92.06,62.94 117.94,62.7 118.67,62.7 h 0.2 c 2.36,0 26.17,0.57 43.44,22.27 a 48.65,48.65 0 0 1 9.52,19.19 1.24,1.24 0 0 1 -0.92,1.48 z"
         transform="translate(90)"
         id="path368" />
      <path
         class="cls-6"
         d="m 76.86,111.14 c 0,0 -9,-5.14 -11.29,-23.67 C 63.28,68.94 67,60.39 67,60.39 c 0,0 12.34,0.29 32.11,18.32 -0.05,0 4.2,19.99 -22.25,32.43 z"
         transform="translate(90)"
         id="path370" />
      <path
         class="cls-5"
         d="m 66.06,67 c 0.63,-4.34 0.89,-6.64 0.89,-6.64 0,0 8.4,0 24.11,12.25 v 0 C 75.47,63.58 67.9,62.71 67.9,62.71 A 8.64,8.64 0 0 0 66.06,67 Z"
         transform="translate(90)"
         id="path372" />
      <path
         class="cls-3"
         d="m 69.54,103.13 a 1.21,1.21 0 0 1 -1.11,-0.7 47.6,47.6 0 0 1 -4.08,-14.81 1.2341495,1.2341495 0 1 1 2.45,-0.3 45.07,45.07 0 0 0 3.85,14.05 1.23,1.23 0 0 1 -1.11,1.76 z"
         transform="translate(90)"
         id="path374" />
      <path
         class="cls-3"
         d="m 64.86,79.37 a 1.24,1.24 0 0 1 -1.23,-1.2 c -0.33,-12.22 2.08,-18 2.19,-18.26 A 1.26,1.26 0 0 1 67,59.16 c 0.39,0 9.79,0.37 25.2,12.17 a 1.25,1.25 0 1 1 -1.5,2 C 78.62,64 70.38,62.12 67.79,61.72 c -0.61,2 -1.94,7.34 -1.7,16.38 a 1.24,1.24 0 0 1 -1.2,1.27 z"
         transform="translate(90)"
         id="path376" />
      <path
         class="cls-5"
         d="M 85.66,76.22 A 0.83,0.83 0 0 1 85.09,75.99 C 84.9,75.8 84.7,75.62 84.5,75.44 a 29.3,29.3 0 0 0 -2.53,-2 0.84001488,0.84001488 0 1 1 1,-1.35 31.38,31.38 0 0 1 2.69,2.16 l 0.62,0.58 a 0.83,0.83 0 0 1 -0.58,1.43 z"
         transform="translate(90)"
         id="path378" />
      <path
         class="cls-5"
         d="m 79.86,71.58 a 0.88,0.88 0 0 1 -0.43,-0.12 l -0.37,-0.23 a 0.82,0.82 0 0 1 -0.3,-1.13 0.83,0.83 0 0 1 1.14,-0.3 l 0.4,0.24 a 0.83,0.83 0 0 1 0.27,1.14 0.82,0.82 0 0 1 -0.71,0.4 z"
         transform="translate(90)"
         id="path380" />
      <path
         class="cls-5"
         d="m 74.5,97.32 c 0,0 -7.08,-14.49 -5.5,-28.32 0,0 8.39,1.86 16.5,14.08 0.03,0.04 2.72,3.72 -11,14.24 z"
         transform="translate(90)"
         id="path382" />
      <path
         class="cls-13"
         d="M 70.77,69.67 A 10.8,10.8 0 0 0 69,69 c -1.62,13.79 5.46,28.28 5.46,28.28 A 67.27,67.27 0 0 0 80.66,92 c -1.22,1.09 -2.66,2.27 -4.34,3.57 0,-0.01 -6.32,-12.94 -5.55,-25.9 z"
         transform="translate(90)"
         id="path384" />
      <path
         class="cls-3"
         d="m 74.5,98.21 a 0.75,0.75 0 0 1 -0.21,0 0.91,0.91 0 0 1 -0.6,-0.48 C 73.4,97.13 66.52,82.85 68.14,68.95 a 0.92,0.92 0 0 1 1.09,-0.77 c 0.35,0.08 8.83,2.08 17,14.47 0.51,0.7 2.48,4.88 -11.24,15.4 a 0.9,0.9 0 0 1 -0.49,0.16 z m -4.69,-28 c -0.91,11 3.56,22.3 5,25.69 11.46,-9 10,-12.29 9.94,-12.32 C 78.56,74.23 72.19,71.12 69.81,70.23 Z"
         transform="translate(90)"
         id="path386" />
      <path
         class="cls-3"
         d="m 65.14,84.47 a 1.23,1.23 0 0 1 -1.23,-1.14 l -0.1,-1.46 a 1.22,1.22 0 0 1 1.13,-1.32 1.24,1.24 0 0 1 1.32,1.13 l 0.11,1.47 a 1.23,1.23 0 0 1 -1.14,1.32 z"
         transform="translate(90)"
         id="path388" />
      <path
         class="cls-6"
         d="m 160.81,111.14 c 0,0 9,-5.14 11.29,-23.67 2.29,-18.53 -1.38,-27.08 -1.38,-27.08 0,0 -12.33,0.29 -32.1,18.32 0,0 -4.26,19.99 22.19,32.43 z"
         transform="translate(90)"
         id="path390" />
      <path
         class="cls-5"
         d="m 171.61,67 c -0.62,-4.34 -0.89,-6.64 -0.89,-6.64 0,0 -8.4,0 -24.11,12.25 v 0 c 15.6,-9.06 23.17,-9.93 23.17,-9.93 a 8.58,8.58 0 0 1 1.83,4.32 z"
         transform="translate(90)"
         id="path392" />
      <path
         class="cls-3"
         d="m 168.14,103.13 a 1.24,1.24 0 0 1 -0.53,-0.12 1.22,1.22 0 0 1 -0.58,-1.64 45.35,45.35 0 0 0 3.85,-14.05 1.23,1.23 0 1 1 2.44,0.3 47.88,47.88 0 0 1 -4.07,14.81 1.22,1.22 0 0 1 -1.11,0.7 z"
         transform="translate(90)"
         id="path394" />
      <path
         class="cls-3"
         d="m 172.82,79.37 v 0 a 1.24,1.24 0 0 1 -1.2,-1.27 c 0.25,-9.09 -1.08,-14.43 -1.69,-16.38 -2.59,0.39 -10.82,2.31 -22.9,11.56 a 1.2470064,1.2470064 0 1 1 -1.49,-2 c 15.4,-11.8 24.8,-12.16 25.2,-12.17 a 1.27,1.27 0 0 1 1.16,0.75 c 0.1,0.24 2.51,6 2.18,18.26 a 1.22,1.22 0 0 1 -1.26,1.25 z"
         transform="translate(90)"
         id="path396" />
      <path
         class="cls-5"
         d="m 163.18,97.32 c 0,0 7.07,-14.49 5.46,-28.28 0,0 -8.39,1.86 -16.5,14.08 0,0 -2.69,3.68 11.04,14.2 z"
         transform="translate(90)"
         id="path398" />
      <path
         class="cls-13"
         d="m 166.91,69.67 a 10.45,10.45 0 0 1 1.8,-0.63 c 1.61,13.79 -5.47,28.28 -5.47,28.28 A 67,67 0 0 1 157,92 c 1.22,1.09 2.65,2.27 4.34,3.57 0.02,-0.01 6.33,-12.94 5.57,-25.9 z"
         transform="translate(90)"
         id="path400" />
      <path
         class="cls-3"
         d="m 163.18,98.21 a 0.91,0.91 0 0 1 -0.55,-0.18 C 148.91,87.51 150.88,83.33 151.42,82.6 c 8.19,-12.36 16.67,-14.36 17,-14.44 a 0.91,0.91 0 0 1 0.71,0.15 0.88,0.88 0 0 1 0.37,0.62 c 1.63,13.9 -5.25,28.18 -5.55,28.78 a 0.91,0.91 0 0 1 -0.6,0.48 0.65,0.65 0 0 1 -0.17,0.02 z m 4.68,-28 c -2.39,0.9 -8.78,4 -15,13.39 0,0 -1.52,3.29 9.94,12.3 1.5,-3.37 5.98,-14.69 5.06,-25.67 z"
         transform="translate(90)"
         id="path402" />
      <path
         class="cls-3"
         d="m 172.53,84.47 h -0.09 a 1.22,1.22 0 0 1 -1.13,-1.32 l 0.1,-1.47 a 1.2336632,1.2336632 0 0 1 2.46,0.19 l -0.11,1.46 a 1.23,1.23 0 0 1 -1.23,1.14 z"
         transform="translate(90)"
         id="path404" />
      <path
         class="cls-3"
         d="m 114.12,128.31 a 10.75,10.75 0 0 1 -4.94,-1.13 10.6,10.6 0 0 1 -5.2,-6.35 1.9405218,1.9405218 0 0 1 3.75,-1 6.72,6.72 0 0 0 3.24,3.9 c 2.15,1.07 5.06,0.89 8.65,-0.55 a 1.94,1.94 0 0 1 1.44,3.6 19,19 0 0 1 -6.94,1.53 z"
         transform="translate(90)"
         id="path406" />
      <path
         class="cls-3"
         d="m 126.49,128.27 a 18.89,18.89 0 0 1 -6.86,-1.47 1.9349677,1.9349677 0 0 1 1.42,-3.6 c 3.59,1.41 6.5,1.58 8.65,0.49 a 6.71,6.71 0 0 0 3.21,-3.92 1.9453534,1.9453534 0 0 1 3.76,1 10.67,10.67 0 0 1 -5.16,6.39 10.79,10.79 0 0 1 -5.02,1.11 z"
         transform="translate(90)"
         id="path408" />
      <path
         class="cls-3"
         d="m 108.42,124.35 c 0,0 1.27,14.6 12,14.57 10.73,-0.03 11.93,-12.15 11.49,-14.33 a 14,14 0 0 1 -11.53,1 c 0,0 -5.45,3.03 -11.96,-1.24 z"
         transform="translate(90)"
         id="path410" />
      <path
         class="cls-3"
         d="m 127.17,116.64 c -0.63,-3.32 -6.73,-2.55 -6.73,-2.55 0,0 -6.11,-0.73 -6.72,2.6 -0.61,3.33 4.68,6.19 6.75,6.18 2.07,-0.01 7.33,-2.87 6.7,-6.23 z"
         transform="translate(90)"
         id="path412" />
      <path
         class="cls-14"
         d="m 114.9,132.23 a 8.9,8.9 0 0 1 5.3,-1.7 10.59,10.59 0 0 1 5.88,1.67 6.63,6.63 0 0 1 -11.18,0 z"
         transform="translate(90)"
         id="path414" />
      <path
         class="cls-15"
         d="m 124.76,133.64 a 9.72,9.72 0 0 0 -4.4,-1.15 7.72,7.72 0 0 0 -4.06,1.24 6.41,6.41 0 0 0 8.46,-0.09 z"
         transform="translate(90)"
         id="path416" />
      <path
         class="cls-3"
         d="m 161.58,112.29 c -1.16,2 5.38,4.61 9.74,6.1 0.25,-1.64 0.46,-3.46 0.6,-5.42 -3.99,-1.23 -9.29,-2.46 -10.34,-0.68 z"
         transform="translate(90)"
         id="path418" />
      <path
         class="cls-3"
         d="m 158.93,120.55 c -1.35,2 5.95,5.37 10.14,7.07 a 42.58,42.58 0 0 0 1.48,-5.18 c -3.93,-1.6 -10.33,-3.81 -11.62,-1.89 z"
         transform="translate(90)"
         id="path420" />
      <path
         class="cls-3"
         d="m 155.47,127.77 c -1.54,1.89 5.41,6.07 9.37,8.24 1.1,-1.77 1.95,-3.36 2.6,-4.67 -3.6,-2.02 -10.44,-5.47 -11.97,-3.57 z"
         transform="translate(90)"
         id="path422" />
      <path
         class="cls-3"
         d="m 76.88,112.29 c 1.16,2 -5.38,4.61 -9.73,6.1 -0.26,-1.64 -0.47,-3.46 -0.6,-5.42 3.99,-1.23 9.28,-2.46 10.33,-0.68 z"
         transform="translate(90)"
         id="path424" />
      <path
         class="cls-3"
         d="m 79.53,120.55 c 1.35,2 -6,5.37 -10.13,7.07 a 40.5,40.5 0 0 1 -1.48,-5.18 c 3.92,-1.6 10.33,-3.81 11.61,-1.89 z"
         transform="translate(90)"
         id="path426" />
      <path
         class="cls-3"
         d="m 83,127.77 c 1.54,1.89 -5.41,6.07 -9.37,8.24 -1.09,-1.77 -2,-3.36 -2.6,-4.67 3.59,-2.02 10.41,-5.47 11.97,-3.57 z"
         transform="translate(90)"
         id="path428" />
      <path
         class="cls-3"
         d="m 117.44,152.88 c -23.71,0 -37.1,-8.66 -43,-13.92 -6.1,-5.4 -12.18,-20.81 -6.63,-38.19 a 1.2333896,1.2333896 0 1 1 2.35,0.75 c -5.22,16.33 0.31,30.64 5.91,35.6 4.58,4 17.65,13.3 41.5,13.3 h 2 0.12 c 25.07,0 38.5,-9.88 43.12,-14.14 4.47,-4.12 10.24,-16.33 6.68,-31.53 a 1.23,1.23 0 0 1 0.92,-1.48 1.24,1.24 0 0 1 1.48,0.92 c 3.39,14.46 -1.29,28.26 -7.41,33.9 -6.12,5.64 -19.79,14.79 -44.76,14.8 h -0.12 z"
         transform="translate(90)"
         id="path430" />
      <rect
         class="cls-3"
         x="208.17"
         y="119.93"
         width="4.6399999"
         height="7.5300002"
         id="rect432" />
      <path
         class="cls-5"
         d="m 151.41,76.22 a 0.86,0.86 0 0 1 -0.6,-0.26 0.83,0.83 0 0 1 0,-1.17 l 0.62,-0.58 a 31.23,31.23 0 0 1 2.68,-2.16 0.84001488,0.84001488 0 1 1 1,1.35 28,28 0 0 0 -2.54,2 L 152,76 a 0.85,0.85 0 0 1 -0.59,0.22 z"
         transform="translate(90)"
         id="path434" />
      <path
         class="cls-5"
         d="m 157.21,71.58 a 0.83,0.83 0 0 1 -0.43,-1.54 l 0.4,-0.24 a 0.83,0.83 0 0 1 0.84,1.43 l -0.38,0.23 a 0.85,0.85 0 0 1 -0.43,0.12 z"
         transform="translate(90)"
         id="path436" />
      <ellipse
         class="cls-3"
         cx="185.03"
         cy="104.51"
         rx="10.37"
         ry="12.79"
         id="ellipse438" />
      <ellipse
         class="cls-16"
         cx="185.12"
         cy="104.53"
         rx="8.1700001"
         ry="10.74"
         id="ellipse440" />
      <ellipse
         class="cls-3"
         cx="186.35001"
         cy="105.59"
         rx="7.0999999"
         ry="9.3400002"
         id="ellipse442" />
      <ellipse
         class="cls-16"
         cx="184.77"
         cy="102.85"
         rx="1.76"
         ry="2.78"
         id="ellipse444" />
      <path
         class="cls-3"
         d="m 155.34,98.7 c -1,0.22 -1.92,0.44 -2.84,0.71 -0.92,0.27 -1.83,0.53 -2.71,0.81 l -1.31,0.45 c -0.43,0.17 -0.86,0.35 -1.28,0.5 -0.42,0.15 -0.83,0.36 -1.25,0.53 a 13.35,13.35 0 0 0 -1.21,0.57 c -0.4,0.2 -0.81,0.37 -1.19,0.6 l -1.15,0.64 c -0.72,0.49 -1.49,0.9 -2.17,1.44 -0.34,0.26 -0.7,0.5 -1,0.77 l -1,0.83 c -0.67,0.54 -1.24,1.19 -1.88,1.77 l -2.2,-4 c 0.55,-0.07 0.92,-0.09 1.36,-0.12 0.44,-0.03 0.85,0 1.27,0 0.83,0 1.66,0.09 2.48,0.19 0.82,0.1 1.63,0.27 2.43,0.47 a 18.94,18.94 0 0 1 2.35,0.76 19.7,19.7 0 0 1 2.24,1 l 1.05,0.64 a 9.38,9.38 0 0 1 1,0.69 14.41,14.41 0 0 1 1.81,1.59 8.57,8.57 0 0 1 0.8,0.9 c 0.24,0.31 0.49,0.62 0.72,0.94 -0.38,-0.13 -0.74,-0.28 -1.11,-0.41 -0.37,-0.13 -0.7,-0.3 -1.07,-0.41 -0.37,-0.11 -0.72,-0.23 -1.06,-0.36 -0.34,-0.13 -0.72,-0.19 -1.07,-0.3 -0.7,-0.22 -1.42,-0.35 -2.11,-0.52 -0.69,-0.17 -1.4,-0.26 -2.11,-0.34 -0.71,-0.08 -1.4,-0.15 -2.09,-0.2 -0.69,-0.05 -1.39,-0.07 -2.09,-0.06 -0.7,0.01 -1.38,0 -2.06,0.08 -0.34,0 -0.68,0.05 -1,0.09 -0.32,0.04 -0.69,0.09 -0.9,0.13 h -0.06 a 2.39,2.39 0 0 1 -2.14,-4 l 1.11,-1.13 a 10,10 0 0 1 1.17,-1.08 l 1.24,-1 c 0.41,-0.33 0.88,-0.59 1.32,-0.88 a 15.6,15.6 0 0 1 1.36,-0.8 l 1.42,-0.69 a 23.48,23.48 0 0 1 2.95,-1 c 0.51,-0.14 1,-0.28 1.51,-0.37 0.51,-0.09 1,-0.19 1.53,-0.25 0.53,-0.06 1,-0.11 1.52,-0.15 0.52,-0.04 1,0 1.53,0 a 20.18,20.18 0 0 1 3,0.27 14.53,14.53 0 0 1 2.89,0.7 z"
         transform="translate(90)"
         id="path446" />
    </g>
  </g>
</svg>
